{"glyphs":{":":{"x_min":0,"x_max":156,"ha":156,"o":"m 60 60 b 46 60 33 49 29 36 l 27 28 b 23 15 31 4 45 4 b 58 4 72 15 76 28 l 78 36 b 81 49 73 60 60 60 z m 104 224 b 90 224 76 213 73 200 l 71 191 b 67 178 75 167 89 167 b 102 167 116 178 119 191 l 122 200 b 125 213 117 224 104 224 z"},"$":{"x_min":0,"x_max":309,"ha":309,"o":"m 198 329 b 193 329 189 329 184 329 l 192 361 b 194 368 190 374 183 374 b 176 374 169 368 168 361 l 159 328 b 147 327 135 324 124 320 b 112 316 102 311 92 304 b 83 297 74 289 67 279 b 60 270 55 259 52 247 b 49 234 48 223 51 214 b 54 205 60 196 68 188 b 76 181 89 172 107 162 l 112 159 l 79 36 b 61 36 48 40 40 48 b 34 54 30 63 30 75 b 29 80 25 84 19 84 b 12 84 4 78 2 70 l 2 70 b 0 65 0 60 0 56 b 0 56 2 20 70 16 b 71 16 72 15 74 15 l 65 -16 b 63 -23 67 -28 74 -28 b 81 -28 88 -23 90 -16 l 98 16 b 127 18 151 26 169 40 b 187 54 200 74 207 100 b 211 114 211 127 208 137 b 205 147 199 157 190 165 b 181 173 167 183 148 194 l 178 308 b 193 308 203 304 210 297 b 216 291 219 283 221 273 b 221 268 226 264 231 264 b 239 264 247 270 249 278 b 249 281 250 284 250 287 b 253 322 207 328 198 329 z m 162 124 b 167 115 168 103 164 89 b 160 74 153 62 142 53 b 132 43 119 38 104 36 l 134 150 b 148 142 158 133 162 124 z m 125 203 b 111 211 102 219 97 228 b 92 236 91 247 95 260 b 98 273 105 283 116 292 b 127 301 139 306 153 308 z"},"?":{"x_min":0,"x_max":401,"ha":401,"o":"m 92 110 b 69 110 44 91 38 68 l 35 54 b 28 31 42 12 66 12 b 89 12 113 31 119 54 l 123 68 b 129 91 115 110 92 110 z m 364 541 b 359 558 346 572 327 582 b 307 593 281 598 247 598 b 225 598 202 594 178 588 b 170 586 161 583 151 580 b 128 571 90 553 79 525 l 77 517 b 72 499 82 484 100 484 b 114 484 129 493 137 507 b 147 522 157 535 169 544 b 186 557 206 564 228 564 b 242 564 254 560 263 552 b 271 545 277 533 278 518 b 280 503 278 485 273 463 b 268 446 262 430 254 416 b 247 402 238 388 227 375 b 217 362 200 345 178 325 b 160 307 145 293 135 282 b 124 271 116 262 111 253 b 105 245 100 238 97 231 b 94 224 91 214 87 203 l 86 199 b 85 193 88 188 94 188 l 130 188 b 136 188 142 193 143 199 b 148 215 153 228 158 238 b 164 248 171 259 181 269 b 190 280 205 294 225 311 b 251 335 270 352 280 361 b 291 371 301 381 310 391 b 319 401 327 410 334 420 b 341 429 346 438 351 448 b 356 458 360 469 363 480 b 369 503 369 523 364 541 z"},"<":{"x_min":0,"x_max":401,"ha":401,"o":"m 350 311 l 54 193 b 43 188 35 179 32 168 b 29 158 33 148 41 144 l 274 26 b 284 21 299 29 302 42 b 304 48 301 54 296 57 l 69 168 l 356 280 b 362 282 368 289 370 295 b 373 307 363 316 350 311 z"},"'":{"x_min":0,"x_max":127,"ha":127,"o":"m 81 355 l 62 355 b 54 355 46 348 44 340 l 27 254 b 26 247 30 241 38 241 b 45 241 52 246 55 253 l 91 339 b 95 347 90 355 81 355 z"},"=":{"x_min":0,"x_max":387,"ha":387,"o":"m 316 141 l 54 141 b 45 141 36 134 34 125 b 31 117 36 109 45 109 l 307 109 b 316 109 325 117 327 125 b 330 134 325 141 316 141 z m 342 240 l 80 240 b 71 240 62 233 60 224 b 58 216 63 208 72 208 l 334 208 b 343 208 352 216 354 224 b 356 233 351 240 342 240 z"},"a":{"x_min":0,"x_max":471,"ha":471,"o":"m 506 213 l 487 213 b 483 202 478 191 473 180 b 442 113 411 65 383 40 b 325 -8 322 48 322 57 b 322 63 322 71 323 79 b 325 97 329 116 333 137 b 338 158 343 178 348 198 b 354 219 359 237 364 253 b 368 269 372 281 374 288 b 380 305 380 319 375 329 b 370 339 362 345 353 347 b 343 348 333 346 323 339 b 312 332 304 321 300 306 l 278 238 b 278 254 276 268 272 283 b 268 297 261 310 250 322 b 242 330 233 337 222 341 b 211 345 199 347 187 347 b 152 347 121 338 95 322 b 69 305 48 283 32 258 b 17 232 6 204 2 174 b -3 144 -3 116 3 90 b 9 64 22 43 40 26 b 59 9 83 1 114 2 b 134 3 152 7 168 16 b 184 25 199 37 212 53 b 230 73 244 96 254 120 b 251 89 253 61 262 38 b 262 38 272 -6 333 0 b 342 0 349 2 356 4 b 357 4 357 5 358 5 b 363 7 368 9 373 12 b 376 13 377 14 377 14 l 377 14 b 430 47 476 140 506 213 z m 259 194 b 255 170 248 147 238 124 b 228 101 216 81 201 62 b 192 52 180 42 166 33 b 152 23 138 18 125 18 b 108 17 95 24 87 39 b 79 55 75 74 74 97 b 73 120 75 146 81 173 b 86 199 94 225 105 248 b 116 271 129 291 144 306 b 159 322 176 330 195 330 b 209 330 221 326 231 319 b 241 311 248 301 253 288 b 257 276 260 261 261 245 b 262 228 261 211 259 194 z"},"L":{"x_min":0,"x_max":790,"ha":790,"o":"m 727 784 b 629 790 540 745 468 674 b 459 693 449 711 436 728 b 431 736 425 743 418 750 b 412 757 405 763 398 769 b 384 782 369 792 353 801 b 320 818 283 828 247 830 b 229 831 210 830 192 827 b 174 824 156 819 140 812 b 131 809 123 805 115 800 b 107 796 99 791 92 785 b 77 774 65 760 54 745 b 33 715 20 680 17 644 b 14 608 20 572 36 539 b 40 531 44 524 49 516 b 54 509 60 502 65 495 b 77 481 90 469 103 458 b 131 436 163 420 197 410 b 230 399 265 393 299 391 b 302 391 304 390 306 390 b 306 388 305 385 305 383 l 305 383 b 276 289 254 200 232 145 b 230 142 229 138 228 135 b 175 156 128 172 88 171 b -32 167 -33 2 109 8 b 181 12 233 46 272 98 b 383 40 503 -37 606 -32 b 678 -29 734 17 707 100 b 684 54 626 48 580 46 b 472 41 371 78 283 113 b 284 115 285 117 286 118 b 322 174 352 281 387 392 b 392 393 398 393 404 394 b 473 402 541 423 603 454 b 634 469 664 488 691 509 b 705 519 719 531 732 542 b 738 548 744 554 750 561 b 754 564 757 567 760 570 b 761 572 763 574 765 576 l 770 582 b 846 674 849 777 727 784 z m 108 18 b -21 12 -18 160 88 161 b 129 161 174 146 222 123 b 195 62 160 21 108 18 z m 308 397 b 305 397 303 397 300 398 b 283 399 266 401 249 404 b 232 408 215 412 199 417 b 183 423 167 430 152 438 b 137 446 123 455 110 466 b 97 477 85 489 74 502 b 69 509 64 516 59 523 b 55 530 51 537 47 545 b 34 575 29 610 33 643 b 35 659 40 675 46 691 b 52 706 60 720 70 733 b 80 746 92 758 105 767 b 118 777 133 784 148 790 b 164 796 180 799 196 801 b 212 803 229 804 245 802 b 277 799 309 789 337 773 b 364 756 388 733 406 707 b 410 700 414 693 418 686 b 420 682 422 679 424 675 b 424 673 425 672 426 670 l 428 664 b 432 656 435 649 437 641 b 425 626 413 611 402 596 b 346 512 310 401 308 397 z m 768 596 l 768 595 b 767 594 766 592 764 591 l 758 583 l 758 583 b 758 582 758 582 758 582 l 757 582 l 757 582 b 756 580 754 578 753 576 b 750 573 747 570 744 567 b 738 560 732 554 726 548 b 714 536 701 525 687 515 b 660 493 631 475 600 459 b 569 443 537 431 504 421 b 471 411 437 404 403 400 b 398 400 393 399 388 399 b 389 400 389 401 389 402 l 389 402 b 394 416 414 483 453 555 b 454 544 455 532 455 520 l 455 520 b 455 520 455 519 455 519 b 455 505 467 495 480 496 b 494 497 504 508 503 522 b 501 553 497 584 489 615 b 516 656 550 695 590 724 b 617 743 648 759 682 768 b 697 772 713 773 729 773 b 831 770 833 680 768 596 z"},"3":{"x_min":0,"x_max":315,"ha":315,"o":"m 252 310 b 248 321 240 329 227 335 b 215 340 200 343 182 343 b 167 343 150 341 133 336 b 125 334 117 332 108 329 b 70 313 67 283 67 283 b 67 276 72 271 80 271 b 87 271 94 275 98 282 b 106 293 114 302 123 308 b 135 317 148 321 163 321 b 182 321 194 316 201 306 b 208 297 209 283 204 265 b 200 251 194 238 183 227 b 173 216 159 207 143 200 b 128 194 112 190 94 188 b 89 188 83 183 82 177 b 80 171 83 166 90 166 l 100 166 b 128 166 147 160 158 147 b 169 135 171 117 165 94 b 159 71 149 54 135 43 b 121 31 104 26 83 26 b 67 26 55 29 48 37 b 42 43 38 52 36 63 b 35 69 30 73 23 73 b 17 73 11 70 6 65 b 6 65 -21 25 37 9 b 51 6 64 5 77 5 b 101 5 123 9 142 18 b 161 26 176 37 188 52 b 200 66 209 83 214 102 b 217 114 218 125 216 134 b 214 143 211 152 205 158 b 200 165 194 171 186 175 b 178 179 169 182 160 184 l 160 186 b 178 194 193 201 205 209 b 217 217 227 226 235 236 b 244 247 249 259 253 272 b 257 287 257 300 252 310 z"},";":{"x_min":0,"x_max":201,"ha":201,"o":"m 104 64 b 92 64 80 54 77 42 b 76 37 75 33 74 28 b 70 17 67 7 63 -1 b 60 -9 55 -16 50 -22 b 46 -26 41 -31 35 -36 b 30 -40 29 -46 31 -50 b 34 -54 40 -54 45 -51 b 58 -42 69 -34 78 -27 b 89 -18 97 -9 104 1 b 110 10 115 20 118 31 b 119 36 120 40 121 44 b 123 56 116 64 104 64 z m 145 224 b 132 224 118 213 115 200 l 113 192 b 109 179 117 168 130 168 b 143 168 157 179 160 192 l 163 200 b 166 213 158 224 145 224 z"},"J":{"x_min":0,"x_max":845,"ha":845,"o":"m 1043 789 l 1043 790 b 1043 790 1043 790 1043 790 b 1042 790 1041 790 1040 790 b 1038 790 1037 790 1035 790 l 1036 790 b 1036 790 815 802 625 718 b 587 702 550 681 517 656 b 514 654 512 652 509 650 b 509 650 509 650 509 650 l 509 650 b 487 632 466 612 447 590 l 447 591 b 408 547 392 502 392 502 l 392 502 b 390 496 388 491 387 486 b 386 482 384 479 383 475 b 382 471 381 468 381 464 b 380 460 379 457 378 453 b 377 449 377 445 376 441 b 375 434 374 426 374 418 b 374 411 374 403 375 395 b 376 380 379 364 384 349 b 390 334 397 320 407 308 b 417 295 429 285 442 277 b 449 273 456 269 463 267 b 466 265 470 264 474 263 b 477 262 481 260 484 259 b 499 255 513 253 528 253 b 538 253 548 254 557 257 b 566 259 572 261 577 263 b 579 264 581 264 583 265 b 584 266 585 266 585 266 b 585 266 585 267 585 267 b 595 271 603 276 611 282 b 623 291 633 302 642 313 b 651 325 659 337 666 350 b 672 363 678 376 682 390 b 684 397 685 405 686 412 b 687 419 688 426 688 434 b 689 448 688 463 685 478 b 683 492 678 507 670 520 b 662 534 652 546 639 556 b 633 561 626 566 618 569 b 611 573 603 576 595 578 b 588 581 579 582 571 583 b 567 584 563 584 558 584 b 554 584 550 584 546 583 b 535 580 528 571 528 560 b 528 547 539 536 552 536 l 553 537 b 556 537 559 537 561 538 b 564 538 567 539 570 539 b 576 540 582 540 588 539 b 600 539 612 536 623 531 b 635 526 645 519 654 509 b 663 499 669 488 673 475 b 677 462 679 448 678 434 b 678 427 677 420 676 413 b 675 407 674 400 672 393 b 665 367 651 341 634 320 b 625 309 615 300 604 292 l 604 292 b 603 291 602 290 601 290 b 601 289 600 289 599 288 b 599 288 599 288 599 288 b 585 279 571 274 567 273 b 564 272 560 271 557 270 b 557 270 557 270 557 270 l 557 270 b 547 268 538 267 529 267 b 515 268 502 270 489 275 b 487 275 486 276 484 276 b 483 277 481 277 479 278 b 476 280 473 281 471 283 b 465 286 459 290 454 294 b 444 302 436 312 430 323 b 423 334 419 346 417 358 b 414 371 413 384 413 396 b 414 409 415 422 417 435 b 418 438 419 441 419 444 b 420 448 421 451 422 454 b 422 457 423 460 424 464 b 425 467 426 470 427 473 b 427 473 434 499 456 536 l 463 548 b 485 584 521 627 575 666 b 600 683 740 773 980 780 b 949 772 921 759 896 742 l 875 726 b 782 651 729 520 692 384 b 681 343 670 299 658 255 l 655 245 l 655 243 b 644 206 633 169 619 135 l 619 135 b 619 135 617 131 615 125 l 615 125 b 614 124 614 124 614 123 b 606 104 547 -27 411 -79 b 409 -80 408 -80 406 -81 b 406 -81 406 -81 406 -81 b 399 -83 393 -85 386 -87 b 386 -87 385 -87 385 -88 b 371 -92 357 -95 342 -97 b 339 -97 336 -98 333 -98 b 296 -102 259 -101 224 -93 b 188 -85 153 -71 123 -51 b 93 -30 67 -3 48 28 b 38 43 30 60 24 77 b 18 94 14 112 12 130 b 9 166 13 203 26 236 b 39 270 60 300 88 322 b 116 343 151 355 186 356 b 203 357 221 355 237 350 b 254 345 270 338 284 328 b 298 319 311 307 321 293 b 331 280 340 264 345 249 b 350 233 353 216 352 200 b 352 184 348 167 342 152 b 339 145 335 138 331 131 b 326 124 321 118 316 112 b 305 100 292 90 278 83 b 271 79 264 77 257 75 b 249 73 242 71 234 71 b 219 70 204 72 190 78 b 189 78 188 78 188 79 b 173 82 157 73 153 58 b 150 43 159 28 174 24 l 174 24 b 195 19 218 17 240 20 b 262 24 282 31 301 42 b 337 65 365 100 378 139 b 385 159 388 179 387 200 b 387 221 382 241 375 260 b 367 279 356 296 343 311 b 330 326 315 340 298 350 b 281 360 262 368 243 372 b 224 377 204 378 185 377 b 165 375 146 371 128 364 b 110 357 93 347 78 334 b 63 322 50 308 39 292 b 28 276 20 259 14 241 b 11 232 8 222 6 213 b 4 204 2 195 1 185 b -1 166 0 147 2 129 b 4 110 9 91 15 74 b 22 56 30 39 41 23 b 51 7 63 -7 76 -21 b 89 -34 104 -46 119 -56 b 150 -77 185 -92 222 -100 b 240 -105 259 -107 277 -109 b 296 -110 315 -110 334 -108 b 338 -108 343 -107 348 -107 b 352 -106 357 -105 362 -105 b 371 -103 380 -102 389 -100 b 408 -97 426 -92 444 -86 b 449 -85 453 -83 458 -81 b 461 -80 464 -79 467 -78 l 467 -78 b 601 -28 682 111 682 111 l 682 111 b 707 147 727 187 745 229 b 745 229 745 229 745 229 l 750 242 b 766 282 779 323 790 364 b 810 442 830 518 854 584 b 867 619 881 651 898 678 b 898 678 898 678 898 678 b 924 725 958 748 958 748 l 958 748 b 968 755 978 761 989 766 b 1005 773 1022 777 1041 779 l 1041 779 b 1043 780 1045 781 1046 784 b 1046 786 1045 788 1043 789 z"},"V":{"x_min":0,"x_max":902,"ha":902,"o":"m 1140 787 b 823 754 767 185 642 44 b 655 61 663 80 667 101 b 695 240 621 428 588 553 b 587 560 584 569 581 580 b 578 594 576 607 575 619 b 572 651 580 677 590 697 b 600 716 615 736 640 752 b 646 756 643 766 636 765 b 634 765 632 765 630 765 b 566 758 456 739 330 680 b 320 686 309 689 297 690 b 285 691 273 690 261 688 b 238 684 215 675 194 663 b 153 640 117 607 88 570 b 59 532 37 490 22 444 b 7 399 0 351 0 304 b 0 280 2 256 6 233 b 7 221 10 209 12 198 b 15 186 18 174 21 163 b 35 117 56 73 85 34 b 94 21 105 9 116 -3 l 130 -17 l 141 -27 b 157 -41 174 -54 193 -64 b 214 -77 237 -87 260 -95 b 284 -102 308 -108 332 -111 l 332 -111 b 333 -111 333 -111 334 -111 b 346 -112 356 -103 357 -91 b 358 -79 348 -69 336 -68 b 298 -65 259 -56 224 -40 l 224 -40 b 224 -40 224 -40 224 -40 b 219 -38 214 -36 210 -33 b 200 -28 190 -23 180 -16 b 180 -16 180 -16 180 -16 b 175 -13 172 -10 169 -8 l 151 5 b 135 19 120 34 107 51 b 79 86 57 126 41 169 b 38 180 34 191 31 202 b 29 213 26 224 24 236 b 21 258 18 281 18 304 b 16 350 22 396 36 440 b 49 484 70 526 98 563 b 111 581 127 598 144 614 b 161 629 179 643 199 655 b 219 666 241 675 263 679 b 274 681 285 682 297 681 b 304 680 312 679 319 676 l 317 675 b 76 560 24 282 168 290 b 217 293 263 322 300 365 l 308 374 b 379 464 411 601 350 663 b 350 663 483 735 618 756 b 586 732 500 655 518 531 b 531 395 617 208 620 83 b 621 21 599 14 598 14 b 596 14 593 13 591 13 b 588 13 586 10 587 7 b 587 4 589 2 592 2 l 596 3 b 770 47 786 705 1143 744 b 1167 746 1163 789 1140 787 z m 189 308 b 70 303 156 549 341 659 b 431 574 309 314 189 308 z"},"\"":{"x_min":0,"x_max":202,"ha":202,"o":"m 52 355 l 36 355 b 28 355 20 348 18 340 l 0 256 b -1 249 3 243 11 243 b 17 243 25 248 27 255 l 61 339 b 65 347 60 355 52 355 z m 132 355 l 117 355 b 109 355 101 348 99 340 l 81 257 b 79 249 84 243 91 243 b 98 243 106 249 108 255 l 142 339 b 145 347 141 355 132 355 z"},"7":{"x_min":0,"x_max":319,"ha":319,"o":"m 252 343 l 100 343 b 66 343 31 317 20 283 l 16 272 b 14 265 18 259 25 259 b 30 259 36 263 39 268 b 43 275 46 280 48 283 b 51 287 55 290 58 292 b 62 295 66 296 70 298 b 75 299 81 300 88 300 l 198 300 b 200 300 201 298 201 296 l 5 31 b -5 18 1 4 15 4 b 22 4 31 8 36 15 l 257 329 b 258 330 259 331 259 333 b 261 338 257 343 252 343 z"},"S":{"x_min":0,"x_max":657,"ha":657,"o":"m 780 749 b 776 770 762 780 756 784 b 752 786 748 788 744 790 b 740 791 736 793 732 794 b 646 816 584 741 584 741 l 584 741 b 552 705 539 655 534 601 l 533 588 b 531 570 530 552 530 534 b 523 531 516 528 510 524 b 498 519 486 514 474 508 l 465 504 l 456 500 b 450 498 444 495 438 492 b 436 490 433 489 430 488 b 403 519 361 537 302 533 b -55 506 -122 -24 246 -15 b 254 -26 262 -36 272 -45 b 282 -55 293 -64 305 -72 b 317 -81 329 -88 342 -94 b 355 -100 369 -105 382 -109 b 389 -111 396 -113 403 -114 b 407 -115 410 -116 414 -116 b 416 -116 418 -117 420 -117 l 423 -117 l 424 -118 b 425 -118 425 -118 426 -118 b 441 -118 454 -107 454 -92 b 455 -77 443 -64 429 -64 b 429 -64 428 -64 428 -64 l 427 -64 l 425 -63 b 424 -63 422 -63 421 -63 b 418 -63 415 -63 413 -62 b 407 -61 401 -60 395 -59 b 384 -57 373 -53 362 -49 b 340 -40 319 -28 302 -13 b 301 -12 300 -11 299 -10 b 545 27 610 263 609 482 b 610 504 608 532 608 561 b 623 569 638 578 653 587 b 676 601 698 615 718 632 b 728 640 738 649 747 659 b 756 669 765 679 771 692 b 773 695 774 698 775 702 b 778 708 780 717 781 727 b 782 729 782 730 782 731 b 782 737 781 743 780 749 z m 430 471 b 501 369 425 153 277 142 b 260 141 244 142 231 146 b 230 159 230 172 231 185 b 232 197 234 209 236 222 b 239 234 242 246 246 258 b 261 306 288 350 323 387 b 353 420 390 448 430 471 z m 46 226 b 50 401 187 516 302 524 b 357 528 396 511 421 483 b 403 473 386 463 370 451 b 348 436 328 419 309 400 b 290 381 273 361 258 338 b 244 316 231 292 221 267 b 211 241 205 215 201 188 b 200 180 199 171 199 163 b 155 198 150 269 178 330 b 183 342 180 353 169 358 l 168 359 b 164 361 160 361 156 361 b 149 360 142 356 138 349 b 95 265 122 167 198 133 b 199 124 199 114 200 105 b 202 92 205 78 209 65 b 212 51 217 38 223 25 b 227 16 232 8 237 -1 b 106 1 42 109 46 226 z m 286 3 b 275 15 266 28 259 42 b 253 53 249 64 245 76 b 241 87 238 99 236 111 b 235 115 234 118 234 122 b 247 120 260 119 275 120 b 444 132 518 366 439 477 b 441 478 443 479 445 480 b 450 483 456 486 462 488 l 471 493 l 479 497 b 491 502 503 508 515 514 b 520 516 525 518 530 521 b 530 508 530 495 531 483 b 533 297 510 39 286 3 z m 762 696 b 756 685 748 675 740 666 b 731 656 722 648 712 639 b 692 623 670 609 648 595 b 635 588 622 580 608 573 b 608 577 608 582 608 587 l 609 597 b 611 683 631 773 717 782 b 742 784 761 770 768 749 b 770 744 770 738 770 732 b 770 719 767 707 762 696 z"},"}":{"x_min":0,"x_max":253,"ha":253,"o":"m 203 192 b 193 193 186 196 182 202 b 176 209 174 218 177 229 b 179 234 184 246 192 263 b 200 279 206 294 210 308 b 219 341 216 365 202 382 b 189 396 168 405 137 407 b 132 407 126 403 125 398 b 124 393 126 389 131 388 b 147 386 159 381 167 371 b 177 359 178 339 170 312 b 167 301 162 287 155 271 b 147 254 142 243 140 236 b 137 222 138 211 143 202 b 149 194 157 187 167 183 l 165 179 b 153 175 142 168 132 160 b 122 151 115 140 111 126 b 109 119 108 108 106 91 b 105 75 103 61 100 50 b 92 21 80 1 64 -11 b 51 -21 36 -27 19 -29 b 14 -29 10 -33 8 -38 b 7 -43 10 -47 16 -47 b 47 -45 73 -36 94 -22 b 117 -5 133 20 142 54 b 145 67 148 83 148 99 b 149 116 150 128 152 133 b 155 144 161 153 170 160 b 178 166 187 169 198 170 b 204 171 210 177 211 183 b 211 187 208 191 203 192 z"},"Z":{"x_min":0,"x_max":1080,"ha":1080,"o":"m 906 46 b 894 38 881 32 867 27 b 853 22 839 18 824 16 b 810 14 795 12 780 13 b 765 13 750 14 735 17 b 704 22 674 31 646 43 b 617 56 589 71 562 88 b 556 92 549 96 543 100 b 555 110 566 119 577 129 b 590 141 602 153 614 166 b 617 169 619 172 622 176 l 631 185 b 633 188 634 190 636 192 l 644 202 l 647 205 b 665 230 682 255 697 282 b 716 312 733 341 749 368 l 865 368 b 868 368 871 371 872 375 b 872 378 869 381 865 381 l 757 381 b 819 491 878 601 939 672 l 940 673 b 955 670 971 667 988 665 b 1007 662 1027 662 1046 664 b 1056 666 1065 668 1075 671 b 1084 675 1093 680 1101 687 b 1104 690 1108 694 1110 699 b 1111 701 1112 703 1113 706 b 1114 708 1115 711 1115 713 b 1116 718 1116 724 1114 729 b 1114 732 1113 734 1112 736 b 1110 739 1109 741 1107 743 b 1104 747 1100 751 1096 754 b 1092 757 1087 759 1082 760 b 1073 763 1063 763 1054 762 b 1006 758 961 738 918 707 l 910 701 b 901 704 892 708 882 712 b 847 725 812 741 776 755 b 740 769 704 782 666 792 b 656 794 647 796 638 798 b 457 838 401 742 401 742 b 385 720 386 698 389 683 b 396 643 453 630 453 630 b 453 630 453 630 453 630 l 453 631 b 453 632 453 633 453 634 b 453 635 453 637 453 639 b 452 643 452 646 452 650 b 453 658 454 665 455 672 b 458 687 464 700 472 711 b 480 723 491 732 505 740 b 518 747 534 752 551 755 b 585 760 621 758 657 752 b 693 746 730 736 766 725 b 802 714 838 702 875 691 b 880 689 886 688 891 686 l 886 682 b 800 608 724 495 655 381 l 577 381 b 573 381 570 379 570 375 b 570 371 573 368 576 368 l 646 368 b 613 313 581 259 551 210 b 539 193 520 166 492 139 b 490 141 487 143 484 145 b 472 155 460 166 448 177 b 436 188 424 199 413 210 b 405 218 397 226 390 234 b 409 248 426 265 440 284 b 460 312 473 346 478 382 b 480 399 480 417 478 435 b 475 453 470 471 462 488 b 454 504 444 520 431 533 b 419 547 404 559 389 568 b 358 587 322 597 286 599 b 268 599 250 598 232 595 b 215 591 198 586 182 579 b 166 572 150 563 136 554 b 121 544 108 533 96 521 b 83 509 72 496 62 482 b 52 469 42 454 35 439 b 27 424 20 408 15 392 b 10 376 6 360 3 343 b 1 326 0 309 0 293 b 1 276 3 259 6 243 b 13 210 26 179 44 151 b 61 122 84 97 110 77 b 136 56 166 41 198 30 b 200 29 202 29 204 28 b 206 28 208 27 210 27 l 216 25 l 223 23 b 231 21 239 20 247 18 b 256 17 264 16 272 15 b 281 15 289 14 298 14 b 366 13 435 31 495 67 b 503 72 510 77 518 82 b 552 54 589 29 629 9 b 644 1 660 -6 676 -12 b 692 -18 708 -23 725 -28 b 759 -36 795 -40 830 -37 b 866 -34 902 -25 935 -10 b 968 4 998 24 1026 47 l 1025 47 b 999 75 956 79 925 58 b 919 53 913 49 906 46 z m 1021 741 b 1023 742 1063 758 1087 749 b 1087 749 1087 749 1087 749 b 1088 748 1088 748 1089 748 b 1094 745 1098 742 1101 738 b 1107 732 1109 723 1108 714 b 1107 706 1102 698 1095 692 b 1089 686 1081 682 1072 679 b 1063 676 1054 675 1045 674 b 1036 673 1027 673 1017 674 b 1008 675 999 676 990 678 b 977 680 964 684 951 687 b 974 712 998 730 1021 741 z m 195 47 b 167 55 140 68 117 85 b 91 104 69 129 52 156 b 48 163 44 170 41 177 b 39 181 37 184 36 188 b 34 192 33 195 31 199 b 26 214 21 229 19 245 b 17 253 16 261 16 269 b 15 277 15 285 15 293 b 16 308 18 324 21 340 b 28 371 40 400 56 427 b 73 453 93 477 117 497 b 141 517 167 533 196 543 b 224 553 254 558 283 556 b 313 554 341 545 366 530 b 391 516 411 494 425 469 b 438 444 444 415 442 385 b 442 370 439 355 435 341 b 430 326 424 312 417 299 b 406 281 391 264 375 250 b 371 255 367 259 363 264 b 357 270 352 276 346 282 b 335 294 323 306 309 316 b 302 321 294 326 286 329 b 282 331 278 333 273 334 b 269 335 265 336 260 337 b 251 338 242 338 233 336 b 224 334 215 330 208 325 b 200 319 194 311 191 302 b 187 294 186 284 187 275 b 189 265 192 257 197 249 b 202 241 208 235 215 229 b 228 218 243 209 260 205 b 277 200 295 199 312 202 b 321 203 329 205 337 208 b 346 210 354 213 361 217 b 365 219 368 221 372 223 b 380 213 388 204 396 195 b 408 183 419 171 431 159 b 442 148 454 136 467 125 b 468 123 470 121 472 120 b 410 65 316 16 195 47 z m 358 238 b 356 237 354 236 352 235 b 339 227 324 221 309 218 b 302 217 294 216 287 216 b 279 217 271 217 264 219 b 249 223 235 230 224 240 b 218 245 213 250 209 257 b 205 263 202 270 202 277 b 201 283 202 290 204 297 b 207 303 211 308 217 312 b 223 316 229 319 236 320 b 243 322 251 322 258 320 b 262 320 265 319 269 318 b 272 317 276 315 279 314 b 286 311 292 307 298 302 b 311 293 322 281 332 269 b 337 263 342 257 348 251 b 351 246 355 242 358 238 z"},"x":{"x_min":0,"x_max":410,"ha":410,"o":"m 446 213 l 427 213 b 422 202 417 191 412 180 b 383 118 355 73 329 46 b 329 46 329 46 328 46 b 326 44 324 42 322 40 b 320 39 318 37 316 35 b 312 33 309 30 306 28 b 304 27 302 26 300 25 b 232 -9 222 57 220 72 b 219 79 219 88 219 97 b 218 120 218 149 218 185 b 218 187 218 189 218 191 l 229 207 b 268 270 308 322 346 327 b 355 327 356 344 342 344 b 298 340 260 309 224 264 l 214 251 b 202 321 172 340 159 344 b 159 344 121 362 87 341 b 87 341 87 340 86 340 b 86 340 86 340 86 340 l 86 340 b 82 337 77 334 74 330 b 52 307 34 259 34 259 l 34 259 b 26 239 17 216 7 192 l 26 192 b 33 209 40 226 46 241 l 46 241 b 46 241 78 326 109 330 b 109 330 111 330 115 329 b 117 329 119 328 121 327 b 121 327 121 327 121 327 b 130 321 142 304 141 257 b 140 226 139 182 143 140 l 128 118 b 79 40 32 -30 -23 -38 b -31 -39 -34 -47 -34 -49 b -34 -51 -33 -55 -27 -55 b 35 -53 89 0 137 66 l 137 66 l 152 86 b 158 63 167 42 180 27 b 180 27 194 7 225 0 b 289 -19 334 27 334 27 l 334 27 b 379 67 419 148 446 213 z"},")":{"x_min":0,"x_max":282,"ha":282,"o":"m 232 327 b 219 365 194 390 155 404 b 151 405 144 403 141 397 l 141 397 b 138 392 139 387 143 385 b 173 372 191 349 199 316 b 207 281 204 236 190 182 b 175 127 154 81 126 45 b 101 12 70 -12 34 -25 b 29 -27 25 -32 25 -37 b 25 -42 30 -45 36 -43 b 81 -30 121 -5 154 33 b 189 73 215 122 230 180 b 246 237 246 286 232 327 z"},"&":{"x_min":0,"x_max":357,"ha":357,"o":"m 328 192 l 277 192 b 273 192 269 189 268 185 b 268 182 269 180 272 179 b 278 178 281 176 284 172 b 286 168 287 162 284 153 b 281 141 275 130 267 119 b 259 108 248 96 234 85 b 223 103 211 122 200 141 b 189 160 181 175 176 186 b 190 193 202 200 214 206 b 225 212 235 218 243 223 b 251 229 257 234 262 239 b 267 243 271 248 275 252 b 278 257 281 261 284 266 b 286 271 288 276 289 282 b 292 293 293 302 291 310 b 289 318 285 324 279 329 b 274 334 266 338 257 340 b 249 342 239 343 228 343 b 210 343 194 340 177 333 b 161 327 148 318 137 306 b 126 295 119 281 115 266 b 111 253 110 240 112 227 b 113 215 118 200 126 185 b 104 174 86 163 73 153 b 59 143 48 133 40 122 b 33 111 27 99 23 86 b 19 69 19 55 23 42 b 28 30 36 20 49 14 b 62 7 78 4 98 4 b 116 4 134 7 151 12 b 168 18 187 27 207 41 b 214 30 219 22 224 17 b 229 12 234 9 240 7 b 245 5 252 4 260 4 b 269 4 280 6 292 12 b 302 16 311 22 321 29 b 326 33 328 38 326 42 b 323 46 318 47 313 44 b 308 40 304 38 300 36 b 295 34 290 33 285 33 b 280 33 276 34 272 36 b 268 39 264 42 259 47 b 254 53 250 60 244 69 b 250 74 256 78 262 83 b 268 88 273 92 278 97 b 283 102 287 106 292 111 b 296 115 300 120 304 125 b 307 129 311 133 314 138 b 317 143 320 147 323 152 b 325 156 328 161 330 166 b 334 173 336 178 336 180 b 338 187 334 192 327 192 z m 157 270 b 159 281 164 290 170 298 b 177 306 184 312 192 316 b 201 320 210 322 219 322 b 228 322 235 321 240 317 b 246 314 249 309 251 302 b 253 295 252 287 250 278 b 246 264 237 251 223 238 b 209 226 190 214 167 203 b 160 217 156 230 155 240 b 153 250 154 260 157 270 z m 155 37 b 143 33 130 32 115 32 b 104 32 93 34 85 39 b 77 44 71 51 68 61 b 66 71 66 82 70 96 b 73 110 81 123 91 135 b 101 146 116 157 134 167 l 142 152 b 145 146 149 139 154 130 l 181 83 b 188 71 193 63 197 57 b 181 47 167 41 155 37 z"},"_":{"x_min":0,"x_max":267,"ha":267,"o":"m 220 -13 l 47 -13 b 38 -13 31 -20 31 -29 b 31 -37 38 -44 47 -44 l 220 -44 b 229 -44 236 -37 236 -29 b 236 -20 229 -13 220 -13 z"},"v":{"x_min":0,"x_max":312,"ha":312,"o":"m 335 182 b 340 193 344 203 348 213 l 329 213 b 325 204 321 195 317 186 l 315 180 l 312 174 b 312 174 300 149 278 134 b 246 112 221 132 221 132 b 217 135 213 139 209 143 b 223 168 234 192 241 209 b 245 218 249 226 252 235 b 252 235 252 235 252 235 l 252 235 b 255 243 257 250 259 257 b 275 313 261 336 253 343 b 233 361 198 359 179 302 b 167 264 166 226 169 201 b 170 188 173 176 176 168 l 176 168 b 176 168 178 157 186 144 b 184 142 182 139 181 136 b 162 105 95 0 67 31 b 62 39 60 51 61 61 b 61 67 61 73 62 80 b 64 97 67 117 72 138 b 76 159 81 180 86 199 b 91 219 96 237 101 253 b 106 269 110 281 112 288 b 118 306 118 319 113 329 b 107 339 100 345 91 347 b 82 349 72 346 61 339 b 50 332 42 321 37 306 b 34 296 29 280 23 261 b 16 241 11 220 5 197 b 0 174 -4 151 -7 126 b -9 102 -9 81 -6 62 b -3 43 4 28 16 16 b 27 5 44 0 66 1 b 71 1 75 2 80 4 b 80 4 80 4 80 4 b 81 4 81 4 81 4 b 127 17 169 73 200 127 b 201 126 202 125 204 124 l 204 124 b 214 115 225 109 238 108 b 241 107 244 107 246 107 b 249 107 251 107 253 107 l 253 107 b 308 111 333 177 333 177 l 333 177 b 334 180 335 182 335 182 z m 198 165 b 194 175 191 186 190 200 b 189 214 189 227 190 241 b 191 255 193 268 196 281 b 200 295 204 306 210 314 b 215 323 222 328 229 329 b 236 331 241 325 245 312 b 247 302 247 291 244 278 b 241 264 237 251 232 237 b 227 224 221 210 214 198 b 208 185 202 174 198 165 z"},"O":{"x_min":0,"x_max":876,"ha":876,"o":"m 809 669 b 800 733 756 780 679 784 b 581 790 488 747 411 677 b 408 681 405 685 402 688 b 396 695 389 701 382 708 b 368 720 353 730 336 739 b 303 757 267 766 230 768 b 212 769 194 768 176 765 b 158 762 140 757 123 750 b 115 747 106 743 98 738 b 91 734 83 729 75 723 b 61 712 48 698 38 684 b 16 654 4 618 1 583 b -2 547 4 510 19 478 b 23 470 28 462 33 454 b 38 447 43 440 49 433 b 60 420 73 407 87 396 b 115 375 147 359 180 348 b 195 343 210 339 226 336 b 226 335 225 334 225 333 b 224 326 223 319 222 312 b 222 312 222 311 222 311 l 222 311 b 222 303 221 296 221 288 b 213 134 280 3 440 0 b 612 -3 829 172 854 482 b 861 558 847 626 809 669 z m 795 633 l 795 633 b 793 603 778 568 752 534 l 752 534 l 752 534 b 751 532 749 530 748 529 l 742 521 l 742 521 b 742 521 741 521 741 520 l 741 520 l 741 520 b 740 518 738 516 736 514 b 734 511 731 508 728 505 b 722 499 716 493 710 487 b 697 475 684 463 671 453 b 644 432 614 413 584 398 b 553 382 521 369 488 359 b 462 351 435 345 408 341 b 374 335 336 334 313 335 b 313 337 314 339 314 341 l 317 358 b 331 440 366 526 414 598 b 416 592 419 585 421 579 b 421 579 432 548 437 494 b 437 494 437 494 437 494 b 437 491 437 488 437 485 b 437 485 437 485 437 485 b 437 484 438 482 438 481 b 438 474 438 466 438 458 l 438 458 b 438 458 438 457 438 457 b 439 444 451 433 464 434 b 477 435 487 447 487 460 b 485 485 482 509 477 534 b 527 625 609 701 697 701 b 723 701 744 696 762 685 l 762 685 b 778 675 789 663 796 653 b 797 641 795 633 795 633 z m 681 772 b 740 770 778 735 791 685 b 766 705 733 717 690 717 b 610 717 528 643 473 550 b 473 551 473 552 472 553 b 472 553 473 553 473 553 b 463 587 452 612 452 612 b 448 620 444 627 440 634 b 505 717 589 774 681 772 z m 183 356 b 167 361 151 368 136 376 b 121 384 107 394 93 404 b 80 415 68 427 58 440 b 52 447 48 454 43 461 b 38 468 35 475 31 483 b 17 514 13 548 17 581 b 19 597 23 614 29 629 b 36 644 44 659 54 672 b 64 685 75 696 89 706 b 102 715 117 722 132 728 b 147 734 163 738 180 740 b 196 742 212 742 229 740 b 261 738 293 727 320 711 b 346 696 368 675 385 652 b 334 599 293 535 264 468 l 264 468 b 264 468 240 424 227 344 b 212 347 197 351 183 356 z m 830 477 b 808 217 624 52 487 58 b 357 63 306 162 309 283 b 309 297 310 312 312 328 b 326 327 346 328 370 330 b 370 330 370 330 370 331 b 376 331 382 332 387 332 b 457 341 524 361 586 392 b 618 408 647 426 675 447 b 689 458 702 469 715 481 b 722 487 728 493 734 499 b 737 502 740 505 743 509 b 745 511 747 513 749 515 l 754 520 b 786 559 805 600 807 635 b 809 631 810 629 810 629 b 829 589 834 535 829 477 z"},"(":{"x_min":0,"x_max":282,"ha":282,"o":"m 250 394 l 250 394 b 249 399 245 402 239 401 b 194 387 154 362 121 324 b 85 283 60 234 44 177 b 29 119 28 70 42 30 b 55 -8 81 -33 119 -46 b 124 -48 130 -45 133 -40 b 136 -35 135 -30 131 -28 b 102 -15 84 8 76 42 b 68 78 71 124 86 179 b 100 233 121 278 149 313 b 174 346 205 369 241 382 b 246 384 250 389 250 394 z"},"C":{"x_min":0,"x_max":571,"ha":571,"o":"m 192 413 b 509 401 722 758 487 772 b 313 783 165 636 89 467 b 14 540 23 693 94 791 b 101 803 99 812 87 818 b 74 823 60 819 52 808 b -23 699 -20 525 81 450 b 27 320 15 181 67 93 l 67 93 b 67 93 116 -3 241 0 b 244 0 248 0 252 0 l 259 1 l 266 2 b 275 3 284 4 294 6 b 306 9 318 12 329 17 b 329 17 329 17 329 17 l 329 17 b 335 19 341 21 347 24 b 356 28 364 32 372 37 b 380 42 388 47 395 53 b 410 64 424 78 436 92 b 459 121 476 156 484 192 b 486 201 488 210 489 219 b 490 228 491 237 491 247 b 490 256 490 265 488 274 b 487 283 485 292 482 301 b 476 318 466 334 453 346 b 446 352 439 357 431 361 b 423 365 414 367 405 368 b 397 370 388 370 379 369 b 370 369 361 367 353 365 b 344 362 336 359 328 354 b 320 349 313 343 306 336 b 293 322 284 305 278 286 b 273 268 271 247 275 227 b 276 222 277 217 279 212 b 280 207 282 202 285 198 b 290 188 297 179 305 172 b 313 165 323 160 333 156 b 338 155 344 154 349 153 b 354 152 359 152 364 152 b 373 153 381 161 381 171 b 382 182 374 191 364 192 l 363 192 b 359 192 356 192 352 192 b 349 192 346 192 342 193 b 336 194 330 196 325 200 b 319 203 314 208 310 214 b 308 217 306 220 304 223 b 303 227 301 230 300 234 b 296 248 295 265 298 281 b 301 297 307 313 317 326 b 322 332 328 338 335 343 b 341 348 348 352 356 355 b 371 362 388 364 405 363 b 413 362 421 360 429 356 b 437 353 444 348 450 343 b 463 331 471 315 476 299 b 481 282 483 264 482 247 b 481 229 478 212 472 196 b 469 187 466 179 462 172 b 458 164 454 157 449 150 b 440 135 429 123 417 112 b 392 89 363 74 333 66 b 332 66 330 65 329 65 b 257 48 207 70 193 78 b 97 133 92 278 142 420 b 157 416 174 414 192 413 z m 489 760 b 691 756 514 417 195 425 b 177 426 161 428 146 433 b 208 602 344 764 489 760 z"},"W":{"x_min":0,"x_max":1005,"ha":1005,"o":"m 1214 792 b 891 763 919 196 817 44 b 849 106 844 194 839 257 b 826 446 764 656 802 700 b 800 699 797 698 795 697 l 795 697 b 776 691 758 673 742 651 b 733 640 723 622 713 601 b 707 589 702 578 697 567 b 668 499 641 421 640 418 b 586 270 545 117 497 44 b 527 106 529 191 525 252 b 520 376 495 507 492 593 b 492 616 495 653 514 686 b 516 690 519 694 522 698 b 536 718 558 736 590 746 l 598 747 b 599 753 591 755 591 756 b 562 754 533 752 505 749 b 465 745 426 739 387 731 b 347 722 309 711 271 696 b 233 681 197 663 163 639 b 146 628 130 615 115 601 b 100 586 86 571 73 555 b 60 538 49 521 39 502 b 34 493 30 484 26 474 b 22 464 18 455 15 445 b 12 435 9 424 7 414 b 5 404 3 394 2 383 b 1 373 0 362 0 352 b 0 341 0 331 1 320 b 4 300 8 279 15 259 b 22 239 32 220 44 203 b 50 194 56 186 64 179 b 71 171 79 164 87 158 b 96 151 105 146 114 141 b 123 136 133 132 142 129 b 152 125 162 123 172 121 b 182 119 193 118 203 117 b 224 117 244 120 264 126 b 302 139 338 161 365 191 b 379 205 391 222 400 240 b 410 258 417 277 421 297 b 424 317 425 338 421 358 b 417 378 409 398 397 415 b 385 432 368 446 349 456 b 344 459 339 461 334 463 b 329 465 324 467 318 468 b 308 470 296 471 285 471 b 262 470 240 463 220 452 b 210 446 201 439 193 431 b 189 428 185 424 181 420 b 179 418 177 416 175 413 b 173 411 172 409 170 407 b 164 397 166 384 175 375 b 185 366 200 367 209 377 l 210 378 b 212 380 213 382 214 383 l 218 389 b 220 392 223 396 226 399 b 231 405 237 412 244 417 b 257 428 272 436 289 439 b 305 443 323 442 340 436 b 357 430 373 420 385 406 b 398 392 406 374 410 356 b 412 346 413 337 413 327 b 413 318 412 308 410 299 b 407 280 400 262 391 245 b 382 228 371 212 357 198 b 344 184 329 172 312 162 b 296 152 278 144 260 139 b 241 133 222 131 203 132 b 199 132 194 133 189 133 b 185 134 180 135 176 136 b 166 139 157 142 149 145 b 114 160 85 186 66 217 b 61 225 57 234 54 242 b 50 251 47 259 45 268 b 40 286 37 305 36 323 b 34 360 40 397 52 433 b 58 450 65 468 74 484 b 83 500 93 516 104 531 b 115 546 128 560 141 573 b 154 587 169 599 184 610 b 215 633 248 652 283 668 b 301 676 318 684 337 690 b 355 697 373 703 392 708 b 430 719 468 728 507 734 b 524 737 542 740 559 742 b 522 726 419 668 421 535 b 415 390 480 185 474 58 b 473 39 468 15 454 2 b 452 2 451 1 450 1 b 447 1 445 -2 445 -4 l 445 -4 b 445 -8 448 -10 452 -10 l 453 -10 b 549 19 611 354 723 571 b 713 438 785 240 796 103 b 800 32 778 11 777 11 b 776 10 775 10 773 9 b 771 9 769 7 769 4 b 769 1 773 -2 776 -1 b 946 58 854 712 1215 748 b 1240 750 1237 794 1214 792 z"},"A":{"x_min":0,"x_max":1219,"ha":1219,"o":"m 1277 794 l 1277 794 b 1277 794 1277 794 1277 794 b 1277 794 1276 794 1276 794 b 1272 794 1258 796 1241 793 l 1240 793 b 1238 793 1236 792 1234 792 b 1231 791 1228 790 1225 789 l 1225 789 b 1130 757 1042 629 943 480 b 939 487 934 494 929 501 b 922 510 915 518 908 527 b 900 535 893 543 885 551 b 869 566 852 581 834 593 b 798 619 757 638 714 649 b 693 654 671 657 650 658 b 628 660 606 659 584 657 b 541 651 498 638 462 614 b 443 602 426 588 412 571 b 405 563 398 554 392 545 b 388 540 385 534 382 528 b 367 531 350 532 332 531 b -82 511 -133 -112 317 -85 b 586 -70 770 193 923 426 l 928 435 b 930 438 932 441 935 445 b 937 441 939 437 941 433 b 943 428 946 424 948 419 b 949 416 950 414 951 412 l 954 404 b 956 400 958 395 960 390 b 962 385 964 380 966 375 b 973 355 979 335 985 315 b 991 294 996 274 999 253 b 1007 212 1011 169 1007 126 b 1005 105 1001 84 995 63 b 994 57 992 52 990 46 b 986 36 981 25 975 15 b 965 -5 953 -23 938 -39 b 937 -40 936 -41 935 -42 b 934 -43 934 -43 933 -44 b 932 -46 930 -47 928 -49 l 928 -49 b 912 -65 892 -79 870 -90 b 868 -91 867 -93 867 -95 b 867 -99 871 -101 874 -100 b 1153 -28 1166 487 1229 727 b 1239 764 1256 779 1276 782 b 1279 782 1281 784 1282 787 b 1282 790 1280 793 1277 794 z m 919 444 l 914 437 b 897 411 880 385 863 360 b 720 151 547 -66 321 -70 b -93 -78 12 506 332 519 b 348 520 363 519 376 517 b 376 517 376 516 376 516 b 372 506 368 496 365 485 b 362 475 360 464 358 453 b 356 431 356 409 360 387 b 365 366 372 344 382 325 b 387 315 394 306 401 297 b 408 288 416 280 424 273 b 442 259 462 248 483 241 b 489 239 495 238 502 236 b 474 159 414 95 328 91 b 203 85 173 209 221 307 b 228 320 224 333 212 339 l 211 339 b 207 342 202 343 198 342 b 190 342 182 337 177 330 b 111 209 176 59 325 66 b 426 71 493 145 520 233 b 530 232 540 232 550 233 b 573 234 595 240 616 249 b 637 258 656 271 672 288 b 680 296 687 305 694 315 b 700 324 706 334 711 345 b 715 355 719 367 722 378 b 723 384 724 390 724 396 b 725 401 725 407 725 413 b 725 437 719 461 708 483 b 697 504 681 523 661 537 b 642 552 619 562 595 567 b 583 569 570 570 558 570 b 545 569 533 567 521 564 l 521 564 b 520 564 519 564 519 563 b 507 559 500 546 505 534 b 509 522 522 516 534 520 b 551 526 570 529 588 526 b 606 524 624 517 640 507 b 656 497 669 483 679 467 b 689 450 695 432 696 412 b 697 393 694 373 686 355 b 683 346 678 337 673 328 b 668 319 662 311 655 304 b 642 289 625 276 607 267 b 598 263 589 259 579 256 b 569 254 559 252 549 251 b 541 250 533 250 525 250 b 554 367 514 500 390 527 b 393 532 396 536 399 541 b 404 550 411 558 417 566 b 431 583 447 597 465 608 b 483 620 502 629 523 636 b 543 642 564 646 585 648 b 606 650 628 650 649 648 b 670 646 691 642 711 636 b 751 624 789 603 822 577 b 830 571 839 564 846 557 b 854 550 862 543 869 535 b 876 527 883 520 890 511 b 896 503 903 495 909 486 b 915 477 922 467 928 457 b 925 453 922 448 919 444 z m 507 252 b 500 253 494 254 488 256 b 468 262 449 271 433 284 b 429 287 425 290 421 294 b 418 298 414 301 411 305 b 404 313 398 322 393 331 b 382 349 375 369 371 389 b 362 430 367 474 384 513 b 384 514 384 515 385 515 b 505 491 538 362 507 252 z m 1020 138 b 1020 138 1015 115 1005 84 b 1009 97 1012 111 1014 125 b 1023 168 1025 212 1021 256 b 1019 278 1015 300 1010 321 b 1005 343 998 364 991 384 b 987 394 983 405 978 415 l 975 422 b 974 425 973 427 972 430 b 969 435 967 440 964 445 b 960 453 955 461 951 469 b 1050 620 1138 750 1229 778 b 1113 674 1079 359 1020 138 z"},"f":{"x_min":0,"x_max":207,"ha":207,"o":"m 396 764 b 388 764 379 764 370 763 b 321 760 278 743 241 715 b 206 687 175 653 149 611 l 149 611 b 75 497 28 299 14 232 b -55 -47 -59 -177 -54 -231 b -54 -233 -54 -235 -54 -236 b -52 -253 -43 -302 2 -308 b 14 -309 52 -308 90 -247 b 93 -243 95 -239 97 -236 b 107 -215 114 -194 120 -172 b 122 -162 124 -151 126 -140 b 127 -129 129 -118 129 -107 b 131 -84 130 -62 127 -40 b 125 -18 121 4 114 25 b 109 40 102 55 94 69 l 99 70 b 125 73 145 81 160 90 b 168 95 175 100 181 106 b 185 110 189 115 193 119 b 193 119 193 119 193 120 b 195 122 197 124 198 126 b 199 127 199 127 199 127 b 199 127 199 128 200 128 b 207 139 214 151 218 160 b 227 178 235 196 242 213 l 223 213 b 218 202 213 191 208 180 b 207 176 205 173 204 170 b 199 160 182 127 160 111 b 159 110 158 110 157 109 b 137 95 113 88 85 86 b 79 92 73 96 68 99 l 81 168 b 82 172 83 176 83 180 l 99 258 b 99 258 99 258 98 258 b 99 262 100 267 101 271 b 105 286 108 300 111 315 b 111 315 111 315 111 315 l 111 315 b 113 321 114 327 115 333 l 115 333 l 119 348 b 123 368 129 392 136 419 b 143 447 152 474 162 503 b 172 531 183 559 197 587 b 210 615 225 640 242 663 b 259 686 278 705 299 720 b 299 720 300 720 301 721 b 307 725 313 729 320 732 b 337 741 364 753 397 760 b 399 760 399 763 396 764 z m 73 68 b 74 68 75 68 76 68 b 86 54 93 37 99 20 b 105 0 109 -21 111 -42 b 113 -63 114 -84 113 -105 b 111 -127 108 -148 103 -168 b 97 -188 89 -208 79 -226 b 74 -235 68 -243 62 -251 b 60 -253 59 -254 58 -255 b 50 -263 44 -268 38 -270 b 6 -279 11 -208 14 -180 b 21 -123 35 -53 45 -6 l 62 68 b 66 68 69 68 73 68 z"},"Q":{"x_min":0,"x_max":876,"ha":876,"o":"m 854 480 b 861 557 847 624 809 667 b 800 731 756 778 679 782 b 581 788 488 745 411 676 b 408 679 405 683 402 686 b 396 693 389 700 382 706 b 368 718 353 729 336 738 b 303 755 267 765 230 766 b 212 767 194 766 176 763 b 158 760 140 756 123 749 b 115 745 106 741 98 737 b 91 732 83 727 75 721 b 61 710 48 697 38 682 b 16 652 4 617 1 581 b -2 545 4 508 19 476 b 23 468 28 460 33 453 b 38 445 43 438 49 431 b 60 418 73 406 87 395 b 115 373 147 357 180 346 b 195 341 210 337 226 334 b 226 333 225 332 225 331 b 224 324 223 317 222 310 b 222 310 222 310 222 309 l 222 309 b 222 302 221 294 221 286 b 213 133 280 1 440 -2 b 491 -3 545 12 597 41 b 706 -53 762 -29 783 7 b 794 29 801 60 796 91 b 796 93 794 95 792 95 b 790 95 788 93 788 91 b 788 88 787 85 786 82 l 786 82 b 786 82 775 12 687 60 b 676 66 666 72 655 79 b 756 159 839 295 854 480 z m 681 770 b 740 768 778 733 791 684 b 766 703 733 715 690 715 b 610 715 528 641 473 548 b 473 549 473 550 472 551 b 472 551 473 551 473 552 b 463 586 452 610 452 610 b 448 618 444 625 440 633 b 505 715 589 772 681 770 z m 414 596 b 416 590 419 584 421 577 b 421 577 432 546 437 492 b 437 492 437 492 437 492 b 437 489 437 486 437 483 b 437 483 437 483 437 483 b 437 482 438 481 438 480 b 438 472 438 464 438 457 l 438 457 b 438 456 438 456 438 455 b 439 442 451 432 464 432 b 477 433 487 445 487 458 b 485 483 482 508 477 532 b 527 624 609 700 697 700 b 723 700 744 694 762 683 l 762 683 b 778 674 789 662 796 651 b 797 639 795 631 795 631 l 795 631 b 793 601 778 566 752 532 l 752 532 l 752 532 b 751 530 749 529 748 527 l 742 519 l 742 519 b 742 519 741 519 741 519 l 741 518 l 741 518 b 740 516 738 515 736 513 b 734 509 731 506 728 503 b 722 497 716 491 710 485 b 697 473 684 462 671 451 b 644 430 614 412 584 396 b 553 380 521 367 488 357 b 462 349 435 344 408 340 b 374 333 336 332 313 333 b 313 335 314 337 314 339 l 317 357 b 331 438 366 524 414 596 z m 264 466 l 264 466 b 264 466 240 422 227 342 b 212 345 197 349 183 354 b 167 359 151 366 136 374 b 121 382 107 392 93 403 b 80 413 68 425 58 439 b 52 445 48 452 43 459 b 38 466 35 474 31 481 b 17 512 13 546 17 579 b 19 596 23 612 29 627 b 36 642 44 657 54 670 b 64 683 75 694 89 704 b 102 713 117 721 132 726 b 147 732 163 736 180 738 b 196 740 212 740 229 739 b 261 736 293 726 320 709 b 346 694 368 674 385 650 b 334 597 293 534 264 466 z m 487 56 b 396 60 344 110 321 181 b 326 184 330 186 333 187 b 335 187 336 188 338 188 b 339 189 340 189 341 189 l 341 189 b 341 189 417 219 555 80 b 558 77 562 73 566 69 b 539 60 512 55 487 56 z m 626 100 b 563 146 495 203 407 211 b 362 214 330 195 327 193 b 324 192 322 190 319 187 b 311 216 308 248 309 281 b 309 296 310 311 312 326 b 326 326 346 326 370 328 b 370 328 370 329 370 329 b 376 329 382 330 387 331 b 457 339 524 359 586 390 b 618 406 647 424 675 445 b 689 456 702 467 715 479 b 722 485 728 491 734 497 b 737 500 740 503 743 507 b 745 509 747 511 749 513 l 754 519 b 786 558 805 599 807 633 b 809 629 810 627 810 627 b 829 587 834 533 830 476 b 815 298 725 165 626 100 z"},"w":{"x_min":0,"x_max":504,"ha":504,"o":"m 526 182 b 531 193 536 203 540 213 l 521 213 b 517 204 513 195 508 186 l 506 180 l 503 174 b 503 174 492 149 470 134 b 437 112 413 132 413 132 b 409 135 405 139 401 143 b 414 168 425 192 433 209 b 437 218 440 226 444 235 b 444 235 444 235 444 235 l 444 235 b 447 243 449 250 451 257 b 467 313 452 336 445 343 b 425 361 390 359 370 302 b 358 264 358 226 360 201 b 362 188 364 176 367 168 l 367 168 b 367 168 369 157 377 144 b 376 142 374 139 372 136 b 354 105 287 0 259 31 b 253 39 252 51 252 61 b 252 67 253 73 254 80 b 256 97 259 117 263 138 b 268 159 272 180 278 199 b 283 219 288 237 293 253 b 297 269 301 281 304 288 b 309 306 309 319 304 329 b 299 339 292 345 282 347 b 273 349 263 346 252 339 b 241 332 234 321 229 306 b 226 296 221 280 214 261 b 208 241 202 220 197 197 b 197 196 197 196 196 195 b 190 176 183 158 174 140 b 165 118 153 97 139 76 b 129 60 118 47 107 36 b 96 25 86 19 76 19 b 68 19 63 25 62 37 b 60 49 60 63 62 81 b 64 98 68 117 72 139 b 76 160 81 181 87 200 b 92 220 97 238 102 254 b 107 270 110 282 113 289 b 118 307 118 321 113 331 b 108 341 101 347 91 349 b 82 350 72 348 61 341 b 50 334 42 323 38 308 b 34 297 29 282 23 262 b 17 242 11 221 5 198 b 0 175 -4 151 -7 127 b -9 103 -9 81 -6 62 b -3 43 4 28 16 16 b 27 5 44 0 67 1 b 88 2 105 9 118 23 b 131 37 143 52 154 68 b 159 77 165 86 170 96 b 175 105 180 114 185 124 b 182 101 182 80 185 62 b 189 43 196 28 207 16 b 218 5 235 0 258 1 b 262 1 267 2 272 4 b 272 4 272 4 272 4 b 272 4 272 4 273 4 b 319 17 361 73 392 127 b 393 126 394 125 395 124 l 395 124 b 405 115 417 109 429 108 b 432 107 435 107 438 107 b 440 107 442 107 444 107 l 444 107 b 499 111 524 177 524 177 l 524 177 b 526 180 526 182 526 182 z m 389 165 b 385 175 382 186 381 200 b 380 214 380 227 381 241 b 382 255 385 268 388 281 b 391 295 395 306 401 314 b 407 323 413 328 420 329 b 428 331 433 325 436 312 b 438 302 438 291 435 278 b 433 264 429 251 423 237 b 418 224 412 210 406 198 b 399 185 394 174 389 165 z"},"-":{"x_min":0,"x_max":186,"ha":186,"o":"m 131 189 l 57 189 b 47 189 36 180 34 170 b 31 160 37 152 47 152 l 121 152 b 131 152 142 160 144 170 b 147 180 141 189 131 189 z"},"E":{"x_min":0,"x_max":1115,"ha":1115,"o":"m 1001 721 b 946 721 885 728 829 735 b 839 745 846 750 846 750 l 846 750 b 855 756 865 762 875 767 b 890 773 907 778 925 779 l 925 780 b 927 780 929 782 930 784 b 930 786 929 788 927 789 l 927 790 b 927 790 927 790 927 790 b 926 790 925 790 924 790 b 870 786 826 770 786 744 b 786 744 785 745 784 745 b 773 747 762 749 750 750 b 727 753 704 754 681 754 b 658 753 635 751 613 747 b 601 745 590 742 579 739 b 568 736 557 732 546 728 b 503 712 462 690 426 662 b 390 635 357 602 333 564 b 326 565 319 565 312 564 b -36 547 -110 60 177 -28 l 177 -28 b 177 -28 231 -49 313 -40 l 313 -40 b 389 -32 452 0 503 47 l 504 48 l 512 56 b 520 64 527 71 534 80 b 658 45 810 -26 913 -23 b 990 -21 1048 39 1011 128 b 996 90 956 71 903 65 b 805 53 664 81 550 98 b 553 102 555 105 558 109 b 593 152 621 202 643 255 b 643 255 643 255 643 255 l 648 268 b 661 301 672 335 682 369 l 879 368 b 882 368 884 370 884 373 b 884 376 882 379 879 379 l 684 380 b 685 381 685 383 686 384 b 705 458 724 531 747 594 b 759 627 773 657 789 683 b 789 683 789 683 789 683 b 796 697 805 708 812 718 b 906 694 1001 656 1076 661 b 1115 664 1150 700 1162 763 b 1131 730 1071 720 1001 721 z m 327 415 b 327 427 328 439 331 452 b 331 455 332 458 333 461 b 333 464 334 467 335 470 b 335 473 336 476 337 479 b 338 482 339 485 340 488 b 340 488 347 513 367 548 b 373 547 380 545 386 543 b 389 542 392 541 394 539 b 394 539 395 539 395 539 b 395 539 395 539 396 539 b 396 539 396 539 396 538 b 396 538 397 538 397 538 b 483 499 503 390 475 297 b 475 297 475 297 474 297 b 462 293 449 292 437 292 b 424 292 411 295 399 299 b 397 299 396 300 394 300 b 393 301 391 301 390 302 b 387 303 384 305 381 307 b 376 310 371 313 366 317 b 356 325 348 335 342 345 b 336 356 332 367 330 379 b 328 391 327 403 327 415 z m 413 13 l 413 13 b 381 -9 343 -22 296 -25 b 292 -25 288 -25 284 -25 b 280 -25 276 -25 273 -25 l 273 -25 b 230 -26 197 -14 197 -14 l 197 -14 b 196 -14 195 -13 194 -13 b 193 -13 193 -13 193 -13 l 193 -13 b -70 69 41 542 311 553 b 316 554 321 554 326 554 b 324 549 321 545 319 541 b 315 534 312 528 309 521 b 306 514 304 507 301 500 b 300 497 299 493 298 490 b 297 486 296 483 296 479 b 295 476 294 472 293 469 b 293 465 292 461 291 458 b 290 451 290 443 290 436 b 289 428 289 421 290 414 b 291 399 294 384 299 370 b 304 355 312 342 321 330 b 330 318 342 308 354 301 b 361 297 367 294 374 291 b 377 290 381 289 384 288 b 388 286 391 285 394 284 b 408 280 422 278 437 278 b 448 278 459 280 470 283 b 444 212 387 154 308 150 b 281 149 258 154 240 165 l 240 165 b 240 165 240 165 240 165 b 239 165 238 166 237 166 b 237 166 237 167 236 167 b 235 167 235 168 234 168 b 234 168 234 168 234 168 b 226 174 219 180 214 187 b 214 187 214 187 214 187 b 200 204 195 221 195 221 b 181 260 186 309 207 354 b 214 366 210 378 199 383 l 198 384 b 194 386 189 387 185 387 b 178 386 170 382 166 375 b 126 301 137 216 188 167 b 188 167 188 167 188 167 b 194 162 201 155 211 149 b 211 149 211 150 211 150 b 237 134 268 125 305 127 b 403 132 467 205 491 291 b 500 295 508 300 515 306 b 527 315 536 325 545 336 b 554 346 561 358 567 370 l 584 370 b 576 340 569 310 560 280 l 558 271 l 557 268 b 547 233 536 199 522 166 l 522 166 b 522 166 487 63 413 13 z m 593 403 b 591 395 589 388 587 380 l 572 380 b 576 390 580 399 583 409 b 585 416 586 423 587 430 b 588 437 589 443 589 450 b 589 464 589 478 586 492 b 584 506 579 520 572 533 b 564 546 554 558 542 567 b 536 572 529 576 522 580 b 515 583 508 586 500 588 b 493 591 485 592 477 593 b 473 593 469 594 465 594 b 461 594 457 594 453 593 b 443 590 436 581 436 571 b 436 558 446 548 459 548 l 460 548 b 463 548 465 549 468 550 b 471 550 473 551 476 551 b 482 551 487 551 493 551 b 505 550 516 548 527 543 b 538 538 548 532 556 522 b 564 513 571 502 574 489 b 578 477 580 464 579 451 b 579 444 578 437 578 431 b 577 425 575 418 573 412 b 570 401 566 390 561 380 l 523 381 b 522 381 520 380 519 379 b 516 375 519 370 523 370 l 556 370 b 551 360 544 351 537 342 b 525 328 511 315 495 306 b 516 404 488 512 398 550 l 398 550 b 398 550 388 555 374 559 b 400 600 443 651 512 692 l 512 692 b 537 707 565 720 595 727 b 595 727 596 727 596 728 b 643 741 701 745 767 729 b 765 728 764 727 762 726 b 762 726 762 726 761 726 l 762 725 b 677 653 627 530 593 403 z"},"s":{"x_min":0,"x_max":258,"ha":258,"o":"m 274 213 b 270 204 266 195 262 186 l 257 174 l 257 174 b 257 174 247 151 226 126 b 208 105 180 79 140 63 b 136 77 130 93 119 110 b 50 215 90 298 135 317 b 135 317 170 331 168 304 b 164 286 151 262 134 253 b 133 252 132 251 132 250 b 131 248 132 245 133 244 b 142 238 161 231 172 243 b 184 256 192 270 196 282 b 206 319 173 337 166 340 b 154 346 138 350 121 349 b 106 349 91 345 75 336 b 63 329 52 320 42 310 b 30 298 -31 224 43 97 b 48 91 53 84 57 76 b 61 70 65 62 68 54 l 72 40 b 72 40 34 29 3 7 b 3 7 3 7 3 7 b -34 -17 -39 -41 -40 -51 b -40 -53 -39 -55 -39 -57 b -38 -65 -36 -73 -29 -81 b -20 -89 -8 -94 5 -95 b 64 -96 100 -60 115 -41 b 118 -37 120 -33 123 -29 b 135 -10 145 16 142 45 b 188 63 220 92 239 115 b 256 135 266 153 270 162 l 270 162 b 271 164 272 165 272 166 b 280 182 287 198 293 213 l 274 213 z m 69 -17 b 68 -19 68 -20 67 -21 b 67 -21 67 -22 67 -22 b 67 -22 67 -23 67 -23 b 67 -23 67 -24 66 -24 b 63 -33 59 -41 53 -49 b 44 -62 30 -76 11 -78 b 4 -79 -2 -78 -6 -76 b -7 -76 -8 -76 -9 -75 b -9 -75 -9 -75 -10 -75 b -10 -75 -10 -75 -10 -75 b -11 -74 -12 -73 -12 -73 b -15 -70 -17 -68 -18 -65 b -20 -63 -21 -60 -21 -58 l -21 -58 b -22 -55 -22 -51 -21 -48 b -19 -38 -12 -28 0 -19 b 28 6 73 23 73 23 l 73 20 b 73 20 73 20 73 20 l 73 20 b 74 8 73 -4 69 -17 z"},">":{"x_min":0,"x_max":401,"ha":401,"o":"m 361 192 l 127 311 b 117 316 102 307 99 295 b 97 288 99 282 105 280 l 333 168 l 45 56 b 38 53 32 47 31 40 b 27 28 38 20 50 25 l 348 143 b 359 148 367 157 370 168 b 373 178 369 188 361 192 z"},"l":{"x_min":0,"x_max":211,"ha":211,"o":"m 393 764 b 385 764 376 764 367 763 b 318 760 275 743 238 715 b 201 686 169 649 141 603 b 129 583 117 561 107 538 b 92 505 79 469 68 435 b 68 435 68 435 68 435 b 64 424 61 413 58 402 b 34 325 -21 132 -6 57 b -1 31 13 3 50 0 b 57 -1 64 -1 73 0 b 82 0 89 2 96 4 b 96 4 97 5 98 5 b 103 7 108 9 113 12 b 116 13 117 14 117 14 l 117 14 b 170 47 216 140 246 213 l 227 213 b 222 202 217 191 212 180 b 182 113 151 65 123 40 b 101 22 86 19 77 22 b 59 32 68 108 80 180 l 96 258 b 96 258 96 258 95 258 b 97 262 98 267 98 271 b 102 286 105 300 108 315 b 108 315 108 315 108 315 l 108 315 b 110 321 111 327 112 333 l 112 333 l 116 348 b 120 368 126 392 133 419 b 141 447 149 474 159 503 b 169 531 180 559 194 587 b 207 615 222 640 239 663 b 256 686 275 705 296 720 b 296 720 297 720 298 721 b 304 725 310 729 317 732 b 334 741 361 753 394 760 b 396 760 396 763 393 764 z"},"8":{"x_min":0,"x_max":1067,"ha":1067,"o":"m 161 498 b 215 520 184 631 192 678 l 166 678 b 166 647 166 585 166 554 b 166 533 159 506 133 514 b 101 535 124 647 117 678 l 95 678 b 102 627 64 469 161 498 z m 271 721 l 224 721 l 224 787 l 261 787 l 261 805 l 224 805 l 224 865 l 269 865 l 269 885 l 200 885 l 200 703 l 271 703 z m 918 498 l 918 523 l 893 523 l 893 498 z m 652 557 l 601 678 l 585 678 l 585 498 l 604 498 l 604 620 l 657 498 l 675 498 l 675 678 l 652 678 z m 886 19 b 894 60 873 69 839 65 l 839 -26 b 872 -32 893 -16 886 19 z m 852 56 b 885 64 870 12 873 -4 b 870 -19 862 -19 852 -19 z m 853 -141 l 853 -50 l 842 -50 l 842 -141 z m 161 56 l 161 65 l 126 65 l 126 -26 l 140 -26 l 140 16 l 157 16 l 157 25 l 140 25 l 140 56 z m 536 56 l 536 65 l 502 65 l 502 -26 l 511 -26 l 511 16 l 530 16 l 530 25 l 511 25 l 511 56 z m 239 678 b 169 640 243 587 275 556 b 300 506 229 499 235 554 l 210 547 b 213 519 230 496 259 496 b 321 499 308 577 265 599 b 196 639 269 699 280 625 l 299 633 b 303 668 269 686 239 678 z m 968 -111 l 940 -50 l 933 -50 l 933 -141 l 940 -141 l 940 -77 l 968 -141 l 977 -141 l 977 -50 l 968 -50 z m 398 754 b 399 725 417 702 448 702 b 478 702 496 729 490 757 b 483 798 423 808 423 852 b 437 883 468 860 469 833 l 488 839 b 486 853 483 870 471 877 b 392 912 377 816 441 782 b 461 767 479 744 462 726 b 440 710 421 734 422 761 z m 604 738 b 606 775 611 823 602 859 b 587 895 519 896 511 854 b 505 818 505 778 510 740 b 513 690 597 688 604 738 z m 535 848 b 547 885 589 860 581 829 b 575 804 602 705 547 722 b 524 736 536 770 533 791 b 533 808 530 833 535 848 z m 553 654 b 542 688 473 688 463 648 b 462 600 436 497 511 496 b 556 494 562 539 558 575 b 558 598 564 630 553 654 z m 520 517 b 496 505 482 530 486 554 b 488 582 482 616 486 643 b 498 675 543 657 533 624 b 528 598 546 533 520 517 z m 652 824 l 703 703 l 719 703 l 719 885 l 697 885 l 697 763 l 648 885 l 632 885 l 632 703 l 652 703 z m 664 65 l 651 65 l 651 -26 l 686 -26 l 686 -19 l 664 -19 z m 323 498 l 393 498 l 393 514 l 347 514 l 347 581 l 383 581 l 383 599 l 347 599 l 347 658 l 393 658 l 393 678 l 323 678 z m 117 787 b 164 777 201 820 175 864 b 161 893 119 882 94 885 l 94 703 l 117 703 z m 117 865 b 140 870 163 860 159 833 b 162 807 137 804 117 805 z m 254 16 l 266 -26 l 281 -26 l 266 19 b 285 25 281 55 266 62 b 257 68 243 65 233 65 l 233 -26 l 244 -26 l 244 16 z m 244 56 b 275 62 272 20 244 25 z m 316 788 l 335 788 l 360 703 l 383 703 l 360 794 b 389 805 387 861 360 877 b 341 887 313 885 290 885 l 290 703 l 316 703 z m 316 865 b 369 877 369 794 316 805 z m 895 -50 b 867 -45 867 -69 867 -94 b 867 -112 865 -142 893 -142 b 920 -142 918 -115 918 -94 b 918 -76 921 -51 895 -50 z m 886 -130 b 876 -126 883 -96 883 -87 b 883 -75 880 -51 900 -60 b 910 -65 913 -148 886 -130 z m 929 721 l 884 721 l 884 885 l 858 885 l 858 703 l 929 703 z m 770 747 l 807 747 l 816 703 l 839 703 l 802 885 l 776 885 l 738 703 l 761 703 z m 790 848 l 804 766 l 774 766 z m 408 -77 b 393 -155 456 -163 456 -108 l 442 -108 b 447 -152 410 -130 420 -94 b 410 -58 447 -38 442 -80 l 456 -80 b 462 -41 405 -38 408 -77 z m 426 -26 l 462 -26 l 462 -19 l 440 -19 l 440 16 l 459 16 l 459 25 l 440 25 l 440 56 l 462 56 l 462 65 l 426 65 z m 482 -141 l 482 -50 l 470 -50 l 470 -141 z m 385 -52 b 375 -46 363 -50 350 -50 l 350 -141 l 364 -141 l 364 -96 l 374 -96 l 385 -141 l 397 -141 l 383 -94 b 399 -89 398 -60 385 -52 z m 364 -87 l 364 -59 b 388 -54 391 -92 364 -87 z m 413 -26 l 413 65 l 401 65 l 401 25 l 376 25 l 376 65 l 364 65 l 364 -26 l 376 -26 l 376 16 l 401 16 l 401 -26 z m 646 -117 l 632 -49 l 620 -49 b 646 -173 646 -172 672 -49 l 660 -49 z m 511 -50 l 491 -141 l 505 -141 l 510 -117 l 530 -117 l 532 -141 l 544 -141 l 524 -50 z m 511 -110 l 519 -66 l 527 -110 z m 566 -50 l 553 -50 l 553 -141 l 590 -141 l 590 -133 l 566 -133 z m 592 65 l 581 65 b 577 46 593 -14 567 -19 b 544 -13 559 46 555 65 l 544 65 b 549 39 527 -37 576 -26 b 603 -10 588 39 592 65 z m 811 -87 b 778 -68 816 -37 819 -76 b 846 -66 810 -35 793 -54 b 764 -77 814 -99 819 -120 b 818 -141 793 -128 796 -112 b 771 -112 792 -145 810 -142 b 843 -140 830 -98 811 -87 z m 641 -19 l 620 -19 l 620 65 l 606 65 l 606 -26 l 641 -26 z m 681 -141 l 718 -141 l 718 -133 l 695 -133 l 695 -96 l 714 -96 l 714 -87 l 695 -87 l 695 -59 l 718 -59 l 718 -50 l 681 -50 z m 802 678 l 779 678 b 786 652 809 587 816 562 b 818 546 816 515 816 498 l 842 498 b 834 560 862 621 881 678 l 856 678 l 829 591 z m 764 -52 b 753 -46 739 -50 728 -50 l 728 -141 l 742 -141 l 742 -96 l 750 -96 l 763 -141 l 774 -141 l 761 -95 b 776 -89 776 -60 764 -52 z m 742 -87 l 742 -59 b 766 -54 769 -92 742 -87 z m 117 -50 b 92 -45 92 -69 92 -94 b 92 -112 87 -142 117 -142 b 152 -147 155 -46 117 -50 z m 110 -130 b 98 -121 105 -88 103 -74 b 103 -63 110 -54 122 -60 b 133 -63 136 -150 110 -130 z m 702 678 l 702 498 l 771 498 l 771 514 l 726 514 l 726 678 z m 791 36 l 816 -26 l 825 -26 l 825 65 l 813 65 l 813 5 l 787 65 l 779 65 l 779 -26 l 791 -26 z m 58 -142 b 78 -142 80 -122 80 -108 l 68 -108 b 68 -155 37 -124 45 -94 b 37 -62 68 -35 68 -80 l 80 -80 b 87 -40 29 -38 32 -77 b 32 -101 25 -142 58 -142 z m 357 65 l 310 65 l 310 56 l 327 56 l 327 -26 l 341 -26 l 341 56 l 357 56 z m 200 -50 l 185 -122 l 168 -50 l 154 -50 l 154 -141 l 166 -141 l 166 -74 b 184 -165 187 -165 205 -74 l 205 -141 l 214 -141 l 213 -50 z m 196 67 b 157 76 157 -33 194 -27 b 229 -32 231 68 196 67 z m 207 16 b 207 2 207 -22 190 -18 b 172 -6 185 24 182 39 b 182 51 190 62 200 55 b 210 51 207 25 207 16 z m 304 -141 l 341 -141 l 341 -133 l 318 -133 l 318 -96 l 336 -96 l 336 -87 l 318 -87 l 318 -59 l 341 -59 l 341 -50 l 304 -50 z m 276 -50 l 259 -122 l 243 -50 l 230 -50 l 230 -141 l 239 -141 l 241 -74 l 254 -141 l 264 -141 l 280 -74 l 281 -141 l 290 -141 l 288 -50 z m 918 678 l 893 678 b 901 490 910 492 918 678 z m 728 -26 b 735 -5 727 -1 753 -3 b 753 -3 757 -26 757 -26 l 770 -26 l 751 65 l 736 65 l 718 -26 l 728 -26 z m 743 48 l 751 6 l 736 6 z m 129 356 b 121 308 205 288 201 327 b 159 300 131 362 163 388 b 175 396 185 392 201 387 b 208 422 122 407 129 356 z m 242 405 b 192 407 192 306 242 307 b 293 306 293 407 242 405 z m 257 334 b 231 286 213 372 234 389 b 263 406 262 350 257 334 z m 339 343 b 339 342 305 402 305 402 l 288 402 l 288 310 l 300 310 l 300 371 b 301 372 335 310 335 310 l 351 310 l 351 402 l 339 402 l 339 343 z m 360 390 l 388 390 l 388 310 l 406 310 l 406 390 l 434 390 l 434 402 l 360 402 z m 450 310 l 457 333 l 485 333 b 493 312 485 308 511 310 l 485 402 l 467 402 l 437 310 z m 472 380 l 482 345 l 461 345 z m 535 398 b 500 375 513 305 559 307 b 572 309 591 307 587 327 b 520 289 518 423 587 387 b 594 414 547 405 535 398 z m 637 310 l 637 390 l 665 390 l 665 402 l 591 402 l 591 390 l 619 390 l 619 310 z m 816 402 l 796 402 l 783 361 b 783 360 771 402 771 402 l 749 402 l 749 310 l 761 310 l 761 381 b 762 381 774 334 774 334 l 789 334 b 789 335 801 381 802 381 l 802 310 l 816 310 z m 889 390 l 889 402 l 832 402 l 832 310 l 893 310 l 893 322 l 850 322 l 850 352 l 883 352 l 883 364 l 850 364 l 850 390 z m 46 165 b 51 165 54 168 57 170 b 61 163 74 163 71 173 b 63 173 71 196 65 200 b 59 207 33 209 37 195 b 44 198 58 201 57 190 b 37 196 22 169 46 165 z m 46 181 b 47 183 54 183 57 183 b 62 171 37 169 46 181 z m 92 188 b 96 195 109 201 106 188 l 113 188 l 113 204 b 104 206 96 204 91 197 l 92 204 l 81 204 l 81 166 l 92 166 z m 121 166 l 156 166 l 156 174 l 134 174 b 137 178 160 197 156 204 l 122 204 l 122 197 l 142 197 b 139 192 116 174 121 166 z m 183 190 b 151 195 164 150 186 170 b 191 164 203 161 200 173 b 192 173 201 196 195 200 b 188 207 163 209 166 195 b 173 198 187 201 187 190 l 183 190 z m 187 177 b 172 164 166 187 187 183 z m 232 152 l 242 152 l 242 204 b 239 203 232 206 233 200 b 195 227 200 138 232 173 b 232 169 232 157 232 152 z m 228 176 b 215 168 213 197 225 197 b 235 198 234 180 228 176 z m 264 197 b 270 199 275 198 282 195 b 285 211 251 207 252 193 b 251 185 266 182 272 178 b 275 168 259 172 251 175 b 250 150 315 176 267 191 b 263 192 260 195 264 197 z m 309 167 b 316 164 330 163 327 175 b 310 166 312 185 312 196 l 326 196 l 326 203 l 312 203 l 312 213 l 302 213 l 302 203 l 294 203 l 294 196 l 302 196 b 303 188 298 170 309 167 z m 360 180 b 343 160 347 196 347 204 l 336 204 b 334 187 337 146 360 173 l 360 166 l 370 166 l 370 204 l 360 204 z m 415 166 l 415 221 l 404 221 b 404 218 404 203 405 200 b 368 226 373 138 405 173 l 404 166 z m 404 181 b 392 161 381 194 397 197 b 406 198 404 186 404 181 z m 425 197 l 439 197 l 439 166 l 449 166 l 449 204 l 425 204 z m 449 211 l 449 221 l 439 221 l 439 211 z m 502 185 b 504 211 461 211 463 185 b 461 159 504 159 502 185 z m 489 175 b 477 163 470 187 476 195 b 489 207 495 183 489 175 z m 543 173 l 533 173 l 533 219 l 512 217 l 512 211 l 522 211 l 522 173 l 512 173 l 512 166 l 543 166 z m 590 182 l 586 182 b 591 212 575 237 552 205 b 537 178 574 148 580 174 b 542 151 554 237 580 207 b 549 218 561 150 580 187 l 580 176 l 590 176 z m 575 186 b 565 171 564 205 576 203 b 585 204 577 189 575 186 z m 621 153 b 636 159 628 192 630 204 b 627 203 620 206 620 201 b 581 226 590 137 620 175 b 620 171 621 164 618 161 b 612 156 606 159 598 162 b 593 149 614 150 621 153 z m 620 182 b 609 163 596 195 612 197 b 620 198 620 188 620 182 z m 659 166 b 657 204 668 205 665 166 l 673 166 b 674 176 676 224 659 197 b 659 209 647 205 645 197 l 645 204 l 636 204 l 636 166 l 645 166 b 643 204 653 205 651 166 z m 699 190 b 668 195 680 150 702 170 b 707 164 720 161 717 173 b 709 173 717 196 711 200 b 705 207 679 209 683 195 b 690 198 704 201 703 190 l 699 190 z m 703 177 b 688 164 683 187 703 183 z m 750 211 l 750 221 l 740 221 l 740 211 z m 726 197 l 740 197 l 740 166 l 750 166 l 750 204 l 726 204 z m 790 166 l 790 221 l 766 221 l 766 214 l 780 214 l 780 166 z m 833 166 l 833 178 l 821 178 l 821 166 z m 875 198 b 879 198 883 197 887 196 b 889 215 848 204 852 185 b 848 166 889 155 887 174 b 868 163 851 195 875 198 z m 899 170 b 919 153 946 182 927 200 b 908 217 881 188 899 170 z m 920 175 b 907 163 900 187 907 195 b 919 207 926 183 920 175 z m 946 191 b 956 209 951 169 952 166 l 961 166 b 959 204 969 205 966 166 l 975 166 b 975 176 977 224 961 197 b 960 209 949 205 946 197 l 946 204 l 938 204 l 938 166 l 946 166 z m 0 908 l 0 -182 l 1009 -182 l 1009 908 z m 8 -174 l 8 900 l 1001 900 l 1001 -174 z"},"\\":{"x_min":0,"x_max":252,"ha":252,"o":"m 222 -22 l 62 387 b 60 394 53 398 46 398 b 34 398 26 386 30 375 l 189 -35 b 192 -41 198 -46 205 -46 l 206 -46 b 218 -46 226 -33 222 -22 z"},"e":{"x_min":0,"x_max":309,"ha":309,"o":"m 325 213 b 321 204 317 194 313 184 b 308 173 294 145 275 118 b 262 99 245 79 225 62 b 205 46 188 36 172 30 b 148 21 130 22 116 28 b 107 32 100 37 94 43 b 71 71 72 121 73 135 b 74 145 76 156 77 166 b 134 170 170 191 192 213 l 192 213 b 198 218 202 223 206 228 b 206 229 207 230 207 230 b 254 289 230 326 230 326 b 229 329 226 333 223 336 l 223 336 b 195 363 141 344 141 344 l 141 344 b 123 339 101 328 78 309 b 77 309 77 308 76 308 b 76 308 76 308 76 308 l 76 308 b 59 294 44 277 33 258 b 17 232 7 203 2 173 b -3 143 -3 115 3 89 b 10 63 22 41 40 24 b 57 8 80 0 109 0 b 209 -11 275 84 275 84 b 291 105 304 126 311 141 l 311 141 l 316 150 b 327 172 336 193 345 213 z m 81 184 b 84 197 87 209 92 221 l 94 229 b 97 236 100 243 103 249 b 112 269 124 286 136 301 b 143 308 159 322 182 326 b 193 328 205 326 211 317 b 213 314 230 286 186 233 b 161 204 126 188 81 184 b 81 184 81 184 81 184 z"},"b":{"x_min":0,"x_max":429,"ha":429,"o":"m 446 213 b 442 202 437 191 432 180 b 430 176 428 173 427 170 b 422 160 405 127 384 111 b 383 110 382 110 381 109 b 356 93 325 85 290 86 l 294 92 b 297 98 301 104 304 110 l 312 131 b 321 155 326 180 326 204 b 326 229 323 252 315 272 b 307 293 294 310 277 322 b 260 335 239 341 213 340 b 193 339 175 334 160 326 b 144 317 129 305 116 290 l 116 290 b 112 285 108 279 104 274 b 100 269 96 263 92 257 b 98 282 104 308 110 333 l 113 348 b 118 368 123 392 131 419 b 138 447 146 474 156 503 b 166 531 177 559 191 587 b 204 615 219 640 236 663 b 253 686 272 705 293 720 b 293 720 294 720 295 721 b 301 725 307 729 314 732 b 331 741 358 753 391 760 b 393 760 393 763 390 764 b 382 764 373 764 364 763 b 315 760 272 743 235 715 b 198 686 166 649 139 603 b 126 583 115 561 104 538 b 57 430 25 292 25 292 b 8 218 -17 101 -25 45 b -25 35 -23 27 -18 21 b -11 13 -4 8 6 7 b 15 6 25 8 34 15 b 44 21 50 32 52 47 l 73 161 b 77 183 84 204 93 225 b 103 245 114 264 128 280 b 136 290 148 300 161 309 b 175 319 189 323 202 323 b 217 324 229 318 237 305 b 245 292 251 275 253 255 b 255 234 254 212 250 187 b 247 163 241 139 232 116 l 226 102 b 225 100 224 99 224 97 b 222 98 220 98 219 98 b 218 98 218 98 218 98 l 218 98 b 176 106 143 103 120 90 b 105 82 98 72 94 65 l 94 65 b 90 56 88 48 89 39 b 91 29 96 20 105 13 b 115 5 128 2 146 2 b 164 2 181 5 199 11 b 223 20 244 33 261 50 b 267 56 273 62 278 69 b 278 69 278 69 278 69 b 284 68 290 68 296 68 b 335 68 363 78 383 90 b 391 95 398 100 404 106 b 409 110 413 115 416 119 b 417 119 417 119 417 120 b 419 122 420 124 422 126 b 422 127 422 127 423 127 b 423 127 423 128 423 128 b 431 139 437 151 442 160 b 450 178 458 196 465 213 z m 182 38 b 166 26 152 21 140 21 b 135 21 130 21 126 23 b 126 23 126 23 126 23 b 99 35 109 55 111 59 b 111 60 112 60 112 60 b 112 60 112 60 112 60 b 115 64 120 70 129 75 b 144 83 170 89 216 81 b 216 81 216 81 216 81 b 205 61 194 47 182 38 z"},"%":{"x_min":0,"x_max":404,"ha":404,"o":"m 112 171 b 129 188 142 213 151 247 b 155 261 157 274 158 286 b 159 298 157 308 154 316 b 151 325 145 331 138 336 b 130 341 119 343 106 343 b 92 343 78 339 66 332 b 53 325 42 314 32 299 b 21 284 13 265 7 243 b -2 210 -2 186 5 170 b 12 154 27 146 51 146 b 74 146 95 154 112 171 z m 34 182 b 31 195 34 217 42 247 b 47 264 52 278 57 290 b 62 302 69 311 76 317 b 83 323 92 327 101 327 b 114 327 122 320 124 306 b 126 291 123 270 115 241 b 108 213 100 193 90 181 b 81 168 70 162 58 162 b 44 162 36 169 34 182 z m 310 339 b 305 339 300 337 296 333 l 29 27 b 21 17 24 5 35 5 l 36 5 b 41 5 46 8 50 12 l 316 318 b 325 327 321 339 310 339 z m 341 172 b 338 181 333 187 325 192 b 317 197 307 199 293 199 b 279 199 266 196 253 188 b 240 181 229 170 219 155 b 209 140 201 121 194 99 b 186 66 185 42 192 26 b 199 10 215 2 238 2 b 262 2 282 10 299 27 b 316 44 329 70 338 103 b 342 117 344 130 345 142 b 346 154 345 164 341 172 z m 303 97 b 295 69 287 49 278 37 b 268 24 257 18 245 18 b 232 18 224 25 221 38 b 219 52 221 73 229 103 b 234 120 239 134 244 146 b 250 158 256 167 263 173 b 271 180 279 183 289 183 b 301 183 309 176 311 162 b 313 148 311 126 303 97 z"},"m":{"x_min":0,"x_max":643,"ha":643,"o":"m 678 213 l 659 213 b 654 202 649 191 644 180 b 613 113 583 65 554 40 b 502 -3 495 38 493 53 b 493 61 494 70 495 80 b 495 81 495 82 495 82 b 497 89 498 96 500 103 b 506 127 513 153 520 182 b 528 211 532 238 533 262 b 534 286 529 306 520 323 b 510 339 491 347 463 347 b 441 347 419 340 398 326 b 382 314 366 296 350 274 b 334 251 320 231 309 211 b 311 229 311 246 310 262 b 308 279 305 294 301 306 b 296 319 289 329 279 337 b 269 344 256 347 240 347 b 223 347 206 343 192 335 b 177 327 163 317 151 304 b 139 291 128 277 118 262 b 108 248 99 233 91 220 l 105 290 b 109 306 109 319 103 329 b 97 338 90 343 80 344 b 71 346 61 343 51 335 b 41 328 34 317 30 302 b 18 253 9 209 2 168 b -5 127 -12 89 -19 54 b -21 39 -19 28 -13 20 b -6 12 2 7 12 6 b 21 5 31 7 40 14 b 50 20 56 31 58 46 b 62 64 64 80 66 94 b 68 109 71 123 75 136 b 78 149 83 163 88 176 b 93 189 100 203 109 219 b 116 231 125 243 134 256 b 143 269 153 281 163 291 b 173 302 183 311 193 318 b 203 326 213 329 222 329 b 231 329 237 324 240 313 b 244 302 245 288 244 270 b 243 253 241 233 237 212 b 234 191 230 170 225 149 b 220 129 215 110 211 93 b 207 75 205 62 203 54 b 201 39 203 28 210 20 b 216 12 225 7 234 6 b 244 5 253 7 263 14 b 272 20 278 31 281 46 b 284 60 287 77 291 96 b 295 116 299 137 303 161 b 307 170 311 179 316 188 b 320 197 325 207 332 219 b 339 231 347 243 357 256 b 366 269 375 281 385 291 b 396 302 406 311 416 318 b 427 326 437 329 446 329 b 461 329 468 321 469 306 b 469 290 466 270 460 246 b 453 222 446 196 438 167 b 430 139 425 112 423 88 b 423 76 423 65 425 55 b 428 38 439 10 472 1 b 476 1 479 0 483 0 b 488 -1 492 -1 498 -1 b 498 -1 499 -1 499 -1 b 500 -1 500 -1 500 -1 b 503 -1 505 0 508 0 b 508 0 508 0 508 0 b 509 0 510 0 510 0 b 517 1 522 3 527 4 b 528 4 529 5 530 5 b 535 7 540 9 545 12 b 548 13 549 14 549 14 l 549 14 b 601 47 648 140 678 213 z"},"#":{"x_min":0,"x_max":346,"ha":346,"o":"m 276 238 l 241 238 l 276 323 b 280 333 275 341 265 341 b 257 341 248 335 245 327 l 208 238 l 132 238 l 167 323 b 171 333 166 341 156 341 b 147 341 139 335 136 327 l 99 238 l 58 238 b 50 238 42 232 40 224 b 38 216 43 210 51 210 l 88 210 l 57 136 l 18 136 b 11 136 3 130 1 122 b -2 115 3 108 11 108 l 46 108 l 11 22 b 7 13 13 4 23 4 b 31 4 39 10 43 18 l 79 108 l 155 108 l 120 22 b 116 13 121 4 131 4 b 140 4 148 10 152 18 l 188 108 l 230 108 b 238 108 246 115 248 122 b 250 130 245 136 237 136 l 200 136 l 230 210 l 269 210 b 277 210 285 216 287 224 b 289 232 284 238 276 238 z m 167 136 l 91 136 l 121 210 l 197 210 z"},",":{"x_min":0,"x_max":171,"ha":171,"o":"m 110 64 b 98 64 86 54 83 42 b 82 37 81 33 80 28 b 76 17 73 7 69 -1 b 66 -9 61 -16 56 -22 b 52 -26 47 -31 41 -36 b 36 -40 35 -46 37 -50 b 40 -54 46 -55 51 -51 b 64 -42 75 -34 84 -27 b 95 -18 103 -9 110 1 b 116 10 121 20 124 31 b 125 36 126 40 127 44 b 129 56 122 64 110 64 z"},"n":{"x_min":0,"x_max":418,"ha":418,"o":"m 453 213 l 434 213 b 430 202 425 191 419 180 b 389 113 358 65 330 40 b 277 -3 270 38 269 53 b 269 61 269 70 270 80 b 270 81 271 83 271 85 b 272 91 274 97 275 103 b 281 127 288 153 296 182 b 303 211 307 238 308 262 b 309 286 305 306 295 323 b 285 339 266 347 238 347 b 216 347 194 340 173 326 b 158 314 143 298 128 278 b 113 257 100 237 89 219 l 97 261 l 103 290 b 107 306 106 319 100 329 b 94 338 87 343 77 344 b 67 346 58 343 48 335 b 38 328 32 317 28 302 b 16 253 7 209 0 168 b -7 127 -14 89 -21 54 b -23 39 -21 28 -15 20 b -8 12 0 7 9 6 b 19 5 29 7 38 14 b 48 20 54 31 56 46 b 60 67 63 86 66 102 b 69 119 73 134 78 149 b 82 164 88 179 95 194 b 102 209 112 225 124 244 b 131 254 139 265 147 275 b 155 286 163 295 171 303 b 180 311 188 317 197 322 b 205 327 213 329 221 329 b 236 329 243 321 244 306 b 244 290 241 270 235 246 b 228 222 221 196 213 167 b 205 139 200 112 199 88 b 198 79 198 71 199 64 l 199 64 b 199 62 199 61 199 59 b 201 46 211 7 256 0 b 257 0 258 0 259 0 b 263 -1 268 -1 273 -1 b 275 -1 276 -1 278 -1 b 279 0 280 0 280 0 b 282 0 283 0 285 0 b 291 1 298 2 303 4 b 304 4 304 5 305 5 b 310 7 315 9 320 12 b 323 13 324 14 324 14 l 324 14 b 377 47 423 140 453 213 z"},"h":{"x_min":0,"x_max":407,"ha":407,"o":"m 443 213 l 424 213 b 419 202 414 191 409 180 b 379 113 348 65 320 40 b 292 18 277 18 269 25 b 254 40 263 86 264 90 b 265 94 266 98 267 103 b 273 127 280 153 288 182 b 295 211 299 237 300 261 b 301 285 297 305 287 322 b 277 338 258 346 230 346 b 213 346 197 342 182 334 b 168 326 155 316 142 303 b 130 290 119 277 109 262 b 100 247 91 233 83 219 b 83 219 107 346 139 459 b 143 473 148 488 153 503 b 163 531 174 559 188 587 b 201 615 216 640 233 663 b 250 686 269 705 290 720 b 290 720 291 720 292 721 b 298 725 304 729 311 732 b 328 741 355 753 388 760 b 390 760 390 763 388 764 b 379 764 370 764 361 763 b 312 760 269 743 232 715 b 195 686 163 649 136 603 b 123 583 112 561 101 538 b 54 430 22 292 22 292 b 8 231 -12 139 -22 77 l -23 77 b -24 69 -25 61 -27 53 b -29 39 -27 28 -21 20 b -14 12 -6 7 3 6 b 13 5 23 7 32 14 b 42 20 48 31 50 46 b 53 66 57 84 60 101 b 63 117 67 133 71 148 b 75 162 80 177 87 192 b 94 206 103 222 114 238 b 128 261 145 281 163 300 b 181 319 198 328 214 328 b 229 328 236 321 236 305 b 236 289 233 270 227 246 b 221 222 214 195 206 167 b 197 138 193 112 191 88 b 191 77 191 66 193 57 b 196 39 213 -15 289 3 b 290 3 291 4 293 4 b 293 4 294 5 295 5 b 300 7 305 9 310 12 b 313 13 314 14 314 14 l 314 14 b 366 47 413 140 443 213 z"},"z":{"x_min":0,"x_max":421,"ha":421,"o":"m 456 213 l 437 213 b 433 202 428 191 422 180 b 412 157 402 136 391 118 b 353 56 305 16 270 -7 b 267 -2 264 2 263 4 b 263 5 262 6 261 7 b 261 7 261 7 261 7 b 245 30 225 45 209 54 l 209 54 b 205 57 202 59 198 61 b 268 118 293 171 297 213 b 297 230 296 245 294 258 b 290 273 285 286 279 296 b 268 314 253 326 240 333 b 237 334 234 336 231 337 b 214 343 197 347 178 348 b 172 348 166 348 160 347 l 160 347 b 70 342 26 236 26 236 b 23 230 20 224 18 218 b 14 211 11 203 8 195 b 7 194 7 194 7 193 b 7 193 7 193 7 192 l 26 192 l 33 208 b 33 208 42 230 55 252 b 65 268 108 332 171 328 b 184 327 198 323 211 311 b 212 310 213 309 214 308 b 229 293 235 269 233 236 b 232 227 231 217 229 207 l 229 207 b 229 207 228 205 228 203 b 227 199 225 194 224 189 b 221 182 219 176 216 169 b 204 141 183 104 148 77 b 134 78 121 77 111 75 l 111 75 b 107 75 104 74 101 73 b 101 73 100 73 100 73 b 100 73 99 72 99 72 b 83 68 74 62 74 62 b 54 49 44 32 56 23 b 59 21 62 19 66 18 b 70 16 74 15 79 15 b 79 15 115 9 172 43 b 178 38 183 32 187 27 b 187 27 188 27 188 27 b 190 24 192 21 194 18 b 196 15 197 13 197 13 b 199 8 202 3 204 -2 b 208 -13 211 -24 213 -37 b 197 -46 179 -56 160 -66 b 141 -76 123 -87 104 -98 b 85 -109 68 -121 50 -133 b 33 -146 19 -159 7 -173 b -7 -189 -17 -207 -23 -225 b -28 -244 -29 -261 -25 -278 b -22 -292 -15 -304 -4 -314 b -4 -314 25 -352 109 -329 b 121 -326 133 -322 145 -316 b 145 -316 145 -316 145 -316 l 145 -316 b 152 -313 158 -310 164 -307 b 197 -287 224 -262 245 -231 b 267 -200 281 -166 287 -128 b 294 -92 290 -57 277 -24 b 284 -19 293 -13 301 -7 b 337 20 386 66 421 136 l 421 136 l 422 137 b 422 138 423 139 424 141 l 423 141 l 428 150 b 431 157 435 164 438 171 l 438 171 l 438 171 b 445 186 451 200 456 213 z m 208 -132 b 202 -162 193 -191 180 -219 b 166 -246 150 -270 130 -290 b 121 -298 112 -305 101 -310 b 18 -343 -34 -284 5 -212 b 44 -139 215 -58 215 -58 b 216 -79 214 -104 208 -132 z"},"B":{"x_min":0,"x_max":1040,"ha":1040,"o":"m 835 736 b 860 758 889 772 925 776 b 927 776 929 777 930 780 b 930 783 927 786 924 786 b 870 782 825 766 786 740 b 762 740 738 739 714 736 b 687 733 660 728 634 723 b 620 720 607 717 594 714 b 581 710 568 707 555 703 b 528 694 503 685 477 673 b 452 661 428 648 405 631 b 394 623 383 614 372 604 b 367 599 362 594 357 589 b 355 586 352 584 350 581 b 348 578 345 576 343 573 b 340 569 337 564 334 560 b 327 560 319 560 312 560 b -36 543 -110 55 177 -32 l 177 -32 b 177 -32 231 -53 313 -44 l 313 -44 b 389 -36 452 -4 503 43 b 550 7 616 -8 683 -5 b 817 1 959 83 972 226 b 981 322 929 416 809 458 b 1063 475 1090 714 835 736 z m 475 293 b 475 293 475 293 474 293 b 462 289 449 287 437 288 b 424 288 411 290 399 295 b 397 295 396 296 394 296 b 393 297 391 297 390 298 b 387 299 384 301 381 302 b 376 305 371 309 366 313 b 356 321 348 330 342 341 b 336 351 332 363 330 374 b 328 386 327 398 327 411 b 327 423 328 435 331 447 b 331 450 332 453 333 456 b 333 459 334 462 335 466 b 335 469 336 472 337 475 b 338 478 339 481 340 483 b 342 489 344 495 346 501 l 348 505 l 350 509 b 351 512 353 515 354 518 b 356 521 357 523 359 526 l 361 530 b 362 531 362 533 363 534 b 365 537 367 539 368 542 b 369 543 369 543 369 544 b 371 543 373 543 376 542 b 376 542 376 542 376 542 b 382 540 388 538 394 535 b 394 535 395 535 395 535 b 395 535 395 535 396 534 b 396 534 396 534 396 534 b 396 534 397 534 397 534 b 483 495 503 386 475 293 z m 296 -29 b 292 -29 288 -29 284 -29 b 280 -29 276 -29 273 -29 l 273 -29 b 230 -30 197 -18 197 -18 l 197 -18 b 196 -18 195 -18 194 -17 b 193 -17 193 -17 193 -17 l 193 -17 b -70 64 41 538 311 549 b 316 549 321 549 326 549 b 324 545 321 541 319 536 b 315 530 312 523 309 517 b 306 510 304 503 301 496 b 300 493 299 489 298 486 b 297 482 296 479 296 475 b 295 472 294 468 293 464 b 293 461 292 457 291 454 b 290 446 290 439 289 432 b 289 424 289 417 290 409 b 291 395 294 380 299 365 b 304 351 312 338 321 326 b 330 314 342 304 354 297 b 361 293 367 290 374 287 b 377 286 381 284 384 283 b 388 282 391 281 394 280 b 408 276 422 274 436 274 b 448 274 459 276 470 279 b 444 208 387 150 308 146 b 281 145 258 150 240 160 l 240 160 b 240 160 240 160 240 160 b 239 161 238 161 237 162 b 237 162 237 162 236 162 b 235 163 235 164 234 164 b 234 164 234 164 234 164 b 226 169 219 175 214 182 b 214 182 214 182 214 183 b 200 200 195 216 195 216 b 181 256 186 305 207 349 b 214 362 210 373 199 379 l 198 380 b 194 382 189 383 185 382 b 178 382 170 377 166 370 b 126 297 137 212 188 163 b 188 163 188 163 188 163 b 194 157 201 151 211 145 b 211 145 211 145 211 145 b 237 130 268 121 305 123 b 403 127 467 201 491 287 b 500 291 508 296 515 302 b 527 311 536 321 545 331 b 554 342 561 354 568 366 b 574 379 579 392 583 405 b 585 412 586 418 587 425 b 588 432 589 439 589 446 b 589 460 589 474 586 488 b 584 502 579 516 572 529 b 564 542 554 554 542 563 b 536 568 529 572 522 575 b 515 579 508 582 500 584 b 493 586 485 588 477 589 b 473 589 469 589 465 589 b 461 589 457 589 453 588 b 443 586 436 577 436 566 b 436 554 446 544 459 544 l 460 544 b 463 544 465 545 468 545 b 471 546 473 546 476 547 b 482 547 487 547 493 547 b 505 546 516 544 527 539 b 538 534 548 527 556 518 b 564 509 571 497 574 485 b 578 473 580 460 579 446 b 579 440 578 433 578 427 b 577 420 575 414 573 408 b 566 382 554 358 537 338 b 525 323 511 311 495 302 b 518 405 484 519 384 552 l 376 554 b 405 593 444 627 487 655 b 533 682 583 703 635 715 b 662 721 688 725 715 726 b 733 728 751 728 769 727 l 769 727 b 679 655 628 529 593 399 b 582 358 571 315 559 273 b 554 272 549 272 544 271 b 532 269 520 265 509 259 b 498 253 488 245 479 235 b 471 226 464 215 459 204 b 454 192 451 180 450 168 b 448 155 448 143 450 130 b 453 109 461 89 475 71 b 434 14 378 -25 296 -29 z m 480 80 b 475 85 471 92 468 98 b 463 109 459 120 457 132 b 455 143 455 155 456 167 b 457 179 460 190 465 201 b 475 223 491 241 512 252 b 523 257 534 261 546 263 b 549 263 553 264 557 264 b 538 197 515 132 480 80 z m 880 222 b 858 98 746 21 639 16 b 593 14 548 25 512 51 b 565 104 606 172 637 246 b 640 244 643 242 645 239 b 654 232 661 223 666 213 b 669 208 670 203 672 198 b 673 193 674 187 674 182 b 676 160 667 138 653 124 b 646 117 637 113 628 110 b 623 109 619 109 614 108 b 609 108 604 109 599 109 l 599 109 b 590 109 582 103 581 94 b 579 85 585 75 595 74 b 602 72 610 73 617 74 b 624 75 632 76 639 79 b 652 85 665 94 674 105 b 678 111 682 117 685 124 b 688 130 690 137 692 143 b 695 157 695 170 693 184 b 691 197 687 210 680 221 b 673 232 664 242 653 250 b 650 253 646 255 641 257 b 658 299 673 342 685 385 b 692 410 698 435 706 460 b 851 436 900 330 880 222 z m 758 476 b 743 475 726 475 711 478 b 739 578 771 669 822 724 b 996 693 968 482 758 476 z"},"K":{"x_min":0,"x_max":989,"ha":989,"o":"m 1085 760 b 935 761 886 577 794 508 l 794 508 b 794 508 794 508 794 508 b 781 498 766 490 750 486 l 750 486 b 750 486 750 486 750 486 b 743 484 735 483 727 482 l 727 483 b 723 482 717 482 712 482 b 723 521 734 558 747 592 b 759 625 773 655 789 681 b 789 681 789 682 789 682 b 814 727 846 748 846 748 l 846 748 b 855 755 865 760 875 765 b 890 772 907 776 925 777 l 925 778 b 927 778 929 780 930 782 b 930 784 929 787 927 788 l 927 788 b 927 788 927 788 927 788 b 926 788 925 788 924 788 b 922 788 921 788 919 788 l 920 788 b 920 788 710 799 529 720 b 492 704 457 684 426 660 b 423 659 421 657 418 655 b 418 654 418 654 418 654 l 418 654 b 385 628 356 598 333 563 b 326 563 319 563 312 563 b -36 545 -110 58 177 -30 l 177 -30 b 177 -30 231 -51 313 -41 l 313 -41 b 389 -34 452 -2 503 45 l 504 46 l 512 54 b 529 71 544 88 558 108 b 593 150 621 200 643 254 b 643 253 643 253 643 253 l 648 266 b 663 304 675 343 686 382 b 694 414 702 446 711 478 b 723 476 732 472 737 468 b 738 468 740 467 741 466 b 748 461 753 455 758 448 l 758 448 b 829 342 692 4 843 -1 b 871 -2 909 12 938 40 b 939 42 939 44 938 46 b 937 47 935 48 933 47 b 924 42 915 39 906 39 b 790 43 926 383 746 474 b 965 492 975 751 1085 752 b 1087 752 1089 754 1089 756 b 1089 758 1088 760 1085 760 z m 327 413 b 327 425 328 438 331 450 b 331 453 332 456 333 459 b 333 462 334 465 335 468 b 335 471 336 474 337 477 b 338 480 339 483 340 486 b 340 486 347 511 367 546 b 373 545 380 543 386 541 b 389 540 392 539 394 538 b 394 538 395 538 395 537 b 395 537 395 537 396 537 b 396 537 396 537 396 537 b 396 537 397 537 397 537 b 483 497 503 388 475 296 b 475 296 475 296 474 296 b 462 292 449 290 437 290 b 424 290 411 293 399 297 b 397 298 396 298 394 299 b 393 299 391 300 390 300 b 387 302 384 303 381 305 b 376 308 371 311 366 315 b 356 323 348 333 342 343 b 336 354 332 365 330 377 b 328 389 327 401 327 413 z m 593 401 b 582 362 572 320 560 279 l 558 269 l 557 267 b 547 231 536 197 522 164 l 522 164 b 522 164 487 62 413 11 l 413 11 b 381 -10 343 -24 296 -26 b 292 -27 288 -27 284 -27 b 280 -27 276 -27 273 -27 l 273 -27 b 230 -28 197 -16 197 -16 l 197 -16 b 196 -16 195 -15 194 -15 b 193 -15 193 -15 193 -15 l 193 -15 b -70 67 41 540 311 552 b 316 552 321 552 326 552 b 324 548 321 543 319 539 b 315 532 312 526 309 519 b 306 512 304 506 301 499 b 300 495 299 492 298 488 b 297 485 296 481 296 478 b 295 474 294 470 293 467 b 293 463 292 460 291 456 b 290 449 290 441 290 434 b 289 427 289 419 290 412 b 291 397 294 382 299 368 b 304 354 312 340 321 328 b 330 317 342 307 354 299 b 361 295 367 292 374 289 b 377 288 381 287 384 286 b 388 285 391 283 394 283 b 408 279 422 276 437 277 b 448 277 459 278 470 281 b 444 210 387 152 308 148 b 281 147 258 153 240 163 l 240 163 b 240 163 240 163 240 163 b 239 163 238 164 237 164 b 237 165 237 165 236 165 b 235 166 235 166 234 167 b 234 167 234 167 234 167 b 226 172 219 178 214 185 b 214 185 214 185 214 185 b 200 202 195 219 195 219 b 181 258 186 307 207 352 b 214 364 210 376 199 381 l 198 382 b 194 384 189 385 185 385 b 178 385 170 380 166 373 b 126 299 137 214 188 166 b 188 166 188 165 188 165 b 194 160 201 153 211 147 b 211 148 211 148 211 148 b 237 132 268 123 305 125 b 403 130 467 204 491 289 b 500 294 508 299 515 304 b 527 313 536 323 545 334 b 554 345 561 356 568 369 b 574 381 579 394 583 407 b 585 414 586 421 587 428 b 588 435 589 442 589 449 b 589 462 589 477 586 491 b 584 504 579 518 572 531 b 564 544 554 556 542 566 b 536 570 529 574 522 578 b 515 581 508 584 500 587 b 493 589 485 590 477 591 b 473 592 469 592 465 592 b 461 592 457 592 453 591 b 443 588 436 579 436 569 b 436 556 446 546 459 547 l 460 547 b 463 547 465 547 468 548 b 471 548 473 549 476 549 b 482 550 487 550 493 549 b 505 549 516 546 527 541 b 538 537 548 530 556 521 b 564 511 571 500 574 488 b 578 475 580 462 579 449 b 579 442 578 436 578 429 b 577 423 575 416 573 410 b 566 385 554 361 537 340 b 525 326 511 313 495 304 b 516 402 487 510 398 549 l 398 549 b 398 549 388 554 374 557 b 396 592 429 633 481 670 b 505 686 638 772 867 779 b 837 771 811 759 786 742 l 767 728 b 678 656 628 531 593 401 z m 712 481 b 712 482 712 482 712 482 l 713 481 z"},"R":{"x_min":0,"x_max":1082,"ha":1082,"o":"m 819 316 b 836 316 855 318 874 322 b 888 326 902 330 916 335 b 933 342 949 350 964 361 b 1028 411 1048 472 1052 521 b 1056 570 1046 605 1035 628 b 1000 696 936 721 898 731 b 879 735 858 738 836 740 b 842 745 846 748 846 748 l 846 748 b 855 755 865 760 875 765 b 890 772 907 776 925 777 l 925 778 b 927 778 929 780 930 782 b 930 784 929 787 927 788 l 927 788 b 927 788 927 788 927 788 b 926 788 925 788 924 788 b 871 785 827 769 788 744 b 674 752 574 735 507 707 b 397 660 352 590 352 590 l 352 590 b 345 581 339 572 333 563 b 326 563 319 563 312 563 b -36 545 -110 58 177 -30 l 177 -30 b 177 -30 231 -51 313 -41 l 313 -41 b 389 -34 452 -2 503 45 l 504 46 l 512 54 b 529 71 544 88 558 107 b 593 150 620 200 643 254 b 643 253 643 253 643 253 l 648 266 b 657 289 665 313 673 336 b 673 336 673 336 674 336 b 675 336 676 336 677 335 b 683 334 687 333 687 333 b 690 331 693 330 697 328 l 697 328 b 808 264 835 -100 972 -37 b 997 -26 1026 4 1039 42 b 1040 44 1039 46 1037 47 b 1035 48 1033 47 1032 45 b 1026 37 1019 31 1011 27 b 923 -14 888 236 760 319 b 778 317 798 315 819 316 z m 327 413 b 327 425 328 438 331 450 b 331 453 332 456 333 459 b 333 462 334 465 335 468 b 335 471 336 474 337 477 b 338 480 339 483 340 486 b 340 486 347 511 367 546 b 373 545 380 543 386 541 b 389 540 392 539 394 538 b 394 538 395 537 395 537 b 395 537 395 537 396 537 b 396 537 396 537 396 537 b 396 537 397 537 397 536 b 483 497 503 388 475 296 b 475 296 475 296 474 296 b 462 292 449 290 437 290 b 424 290 411 293 399 297 b 397 298 396 298 394 299 b 393 299 391 300 390 300 b 387 302 384 303 381 305 b 376 308 371 311 366 315 b 356 323 348 333 342 343 b 336 354 333 365 330 377 b 328 389 327 401 327 413 z m 560 279 l 558 269 l 557 267 b 547 231 536 197 522 164 l 522 164 b 522 164 487 62 413 11 l 413 11 b 381 -10 343 -24 296 -26 b 292 -27 288 -27 284 -27 b 280 -27 276 -27 273 -27 l 273 -27 b 230 -28 197 -16 197 -16 l 197 -16 b 196 -16 195 -15 194 -15 b 193 -15 193 -15 193 -15 l 193 -15 b -70 67 41 540 311 551 b 316 552 321 552 326 552 b 324 548 321 543 319 539 b 315 532 312 526 309 519 b 306 512 304 506 301 499 b 300 495 299 492 298 488 b 297 485 296 481 296 478 b 295 474 294 470 293 467 b 293 463 292 460 291 456 b 290 449 290 441 290 434 b 289 427 289 419 290 412 b 291 397 294 382 299 368 b 304 354 312 340 321 328 b 330 317 342 307 354 299 b 361 295 367 292 374 289 b 377 288 381 287 384 286 b 388 285 391 283 394 283 b 408 279 422 276 436 277 b 448 277 459 278 470 281 b 444 210 387 152 308 148 b 281 147 258 153 240 163 l 240 163 b 240 163 240 163 240 163 b 239 163 238 164 237 164 b 237 165 237 165 236 165 b 235 165 235 166 234 167 b 234 167 234 167 234 167 b 226 172 219 178 214 185 b 214 185 214 185 214 185 b 200 202 195 219 195 219 b 181 258 186 307 207 352 b 214 364 210 376 199 381 l 198 382 b 194 384 189 385 185 385 b 178 385 170 380 166 373 b 126 299 137 214 188 166 b 188 165 188 165 188 165 b 194 160 201 153 211 147 b 211 148 211 148 211 148 b 237 132 268 123 305 125 b 403 130 467 204 491 289 b 500 294 508 299 515 304 b 527 313 536 323 545 334 b 554 345 561 356 568 369 b 574 381 579 394 583 407 b 585 414 586 421 587 428 b 588 435 589 442 589 449 b 589 462 589 477 586 490 b 584 504 579 518 572 531 b 564 544 554 556 542 566 b 536 570 529 574 522 578 b 515 581 508 584 500 587 b 493 589 485 590 477 591 b 473 592 469 592 465 592 b 461 592 457 592 453 591 b 443 588 436 579 436 569 b 436 556 446 546 459 547 l 460 547 b 463 547 465 547 468 548 b 471 548 473 549 476 549 b 482 550 487 550 493 549 b 505 549 516 546 527 541 b 538 537 548 530 556 520 b 564 511 571 500 574 488 b 578 475 580 462 579 449 b 579 442 578 436 578 429 b 577 423 575 416 573 410 b 566 385 554 361 537 340 b 525 326 511 313 495 304 b 516 402 487 510 398 549 l 398 549 b 398 549 388 553 374 557 b 378 564 383 571 388 579 b 462 669 550 705 635 723 b 692 735 739 737 775 734 l 766 728 b 678 656 628 531 593 401 b 582 362 572 320 560 279 z m 680 362 b 682 369 684 376 686 382 b 705 456 724 529 747 592 b 759 625 773 655 789 681 b 789 681 789 682 789 682 b 799 700 811 715 821 726 b 943 709 985 624 974 539 b 959 412 871 338 775 338 b 743 338 711 345 680 362 z"},"T":{"x_min":0,"x_max":816,"ha":816,"o":"m 1100 829 b 1058 824 1012 823 967 823 b 950 823 933 823 917 822 l 916 822 b 914 822 910 822 906 822 l 906 822 l 906 822 b 857 823 682 821 529 753 b 492 738 457 718 426 694 b 423 692 421 690 418 688 b 418 688 418 688 418 688 l 418 688 b 385 662 356 631 333 596 b 326 596 319 596 312 596 b -36 579 -110 91 177 4 l 177 4 b 177 4 231 -17 313 -8 l 313 -8 b 389 0 452 32 503 79 l 504 79 l 512 88 b 529 104 544 122 558 141 b 593 183 620 233 643 287 b 643 287 643 287 643 287 l 648 300 b 663 337 675 376 686 416 b 705 490 724 563 747 626 b 759 659 773 689 789 715 b 789 715 789 715 789 715 b 814 760 846 781 846 781 l 846 781 b 855 788 865 794 875 798 b 879 800 884 802 888 803 b 902 803 918 803 934 800 b 1023 788 1113 766 1182 779 b 1220 786 1250 826 1255 890 b 1228 854 1169 837 1100 829 z m 327 447 b 327 459 328 471 331 483 b 331 486 332 489 333 492 b 333 495 334 498 335 502 b 335 505 336 508 337 511 b 338 514 339 517 340 519 b 340 519 347 545 367 580 b 373 578 380 577 386 574 b 389 573 392 572 394 571 b 394 571 395 571 395 571 b 395 571 395 571 396 570 b 396 570 396 570 396 570 b 396 570 397 570 397 570 b 483 531 503 422 475 329 b 475 329 475 329 474 329 b 462 325 449 323 437 324 b 424 324 411 326 399 331 b 397 331 396 332 394 332 b 393 333 391 333 390 334 b 387 335 384 337 381 338 b 376 341 371 345 366 349 b 356 357 348 366 342 377 b 336 387 332 399 330 410 b 328 422 327 434 327 447 z m 856 809 b 831 802 808 790 786 776 l 767 761 b 678 689 628 564 593 435 b 582 395 572 354 560 312 l 558 303 l 557 300 b 547 265 536 230 522 198 l 522 198 b 522 198 487 95 413 45 l 413 45 b 381 23 343 9 296 7 b 292 7 288 7 284 7 b 280 7 276 7 273 7 l 273 7 b 230 6 197 18 197 18 l 197 18 b 196 18 195 18 194 19 b 193 19 193 19 193 19 l 193 19 b -70 100 41 574 311 585 b 316 585 321 585 326 585 b 324 581 321 577 319 572 b 315 566 312 559 309 553 b 306 546 304 539 301 532 b 300 529 299 525 298 522 b 297 518 296 515 296 511 b 295 508 294 504 293 500 b 293 497 292 493 291 490 b 290 482 290 475 290 468 b 289 460 289 453 290 445 b 291 431 294 416 299 401 b 304 387 312 374 321 362 b 330 350 342 340 354 333 b 361 329 367 326 374 323 b 377 322 381 320 384 319 b 388 318 391 317 394 316 b 408 312 422 310 437 310 b 448 310 459 312 470 315 b 444 244 387 186 308 182 b 281 181 258 186 240 196 l 240 196 b 240 196 240 196 240 196 b 239 197 238 197 237 198 b 237 198 237 198 236 198 b 235 199 235 200 234 200 b 234 200 234 200 234 200 b 226 205 219 211 214 218 b 214 218 214 218 214 219 b 200 236 195 252 195 252 b 181 292 186 341 207 385 b 214 398 210 409 199 415 l 198 416 b 194 418 189 419 185 418 b 178 418 170 413 166 406 b 126 333 137 248 188 199 b 188 199 188 199 188 199 b 194 193 201 187 211 181 b 211 181 211 181 211 181 b 237 166 268 157 305 159 b 403 163 467 237 491 323 b 500 327 508 332 515 338 b 527 347 536 357 545 367 b 554 378 561 390 568 402 b 574 415 579 428 583 441 b 585 448 586 454 587 461 b 588 468 589 475 589 482 b 589 496 589 510 586 524 b 584 538 579 552 572 565 b 564 578 554 590 542 599 b 536 604 529 608 522 611 b 515 615 508 618 500 620 b 493 622 485 624 477 625 b 473 625 469 625 465 625 b 461 625 457 625 453 624 b 443 622 436 613 436 602 b 436 590 446 580 459 580 l 460 580 b 463 580 465 581 468 581 b 471 582 473 582 476 583 b 482 583 487 583 493 583 b 505 582 516 580 527 575 b 538 570 548 563 556 554 b 564 545 571 533 574 521 b 578 509 580 496 579 482 b 579 476 578 469 578 463 b 577 456 575 450 573 444 b 566 418 554 394 537 374 b 525 359 511 347 495 338 b 516 435 487 544 398 582 l 398 582 b 398 582 388 587 374 591 b 396 625 429 667 481 703 b 505 720 637 805 864 812 b 861 811 859 810 856 809 z"},"P":{"x_min":0,"x_max":1015,"ha":1015,"o":"m 1035 628 b 1000 696 936 721 898 731 b 879 735 858 738 836 740 b 842 745 846 748 846 748 l 846 748 b 855 755 865 760 875 765 b 890 772 907 776 925 777 l 925 778 b 927 778 929 780 930 782 b 930 784 929 787 927 788 l 927 788 b 927 788 927 788 927 788 b 926 788 925 788 924 788 b 871 785 827 769 788 744 b 674 752 574 735 507 707 b 397 660 352 590 352 590 l 352 590 b 345 581 339 572 333 563 b 326 563 319 563 312 563 b -36 545 -110 58 177 -30 l 177 -30 b 177 -30 231 -51 313 -41 l 313 -41 b 389 -34 452 -2 503 45 l 504 46 l 512 54 b 529 71 544 88 558 107 b 593 150 620 200 643 254 b 643 253 643 253 643 253 l 648 266 b 658 292 667 319 675 346 b 697 335 751 313 819 316 b 836 316 855 318 874 322 b 888 326 902 330 916 335 b 933 342 949 350 964 361 b 1028 411 1048 472 1052 521 b 1056 570 1046 605 1035 628 z m 327 413 b 327 425 328 438 331 450 b 331 453 332 456 333 459 b 333 462 334 465 335 468 b 335 471 336 474 337 477 b 338 480 339 483 340 486 b 340 486 347 511 367 546 b 373 545 380 543 386 541 b 389 540 392 539 394 538 b 394 538 395 538 395 537 b 395 537 395 537 396 537 b 396 537 396 537 396 537 b 396 537 397 537 397 536 b 483 497 503 388 475 296 b 475 296 475 296 474 296 b 462 292 449 290 437 290 b 424 290 411 293 399 297 b 397 298 396 298 394 299 b 393 299 391 300 390 300 b 387 302 384 303 381 305 b 376 308 371 311 366 315 b 356 323 348 333 342 343 b 336 354 333 365 330 377 b 328 389 327 401 327 413 z m 593 401 b 582 362 572 320 560 279 l 558 269 l 557 267 b 547 231 536 197 522 164 l 522 164 b 522 164 487 62 413 11 l 413 11 b 381 -10 343 -24 296 -26 b 292 -27 288 -27 284 -27 b 280 -27 276 -27 273 -27 l 273 -27 b 230 -28 197 -16 197 -16 l 197 -16 b 196 -16 195 -15 194 -15 b 193 -15 193 -15 193 -15 l 193 -15 b -70 67 41 540 311 552 b 316 552 321 552 326 552 b 324 548 321 543 319 539 b 315 532 312 526 309 519 b 306 512 304 506 301 499 b 300 495 299 492 298 488 b 297 485 296 481 296 478 b 295 474 294 470 293 467 b 293 463 292 460 291 456 b 290 449 290 441 290 434 b 289 427 289 419 290 412 b 291 397 294 382 299 368 b 304 354 312 340 321 328 b 330 317 342 307 354 299 b 361 295 367 292 374 289 b 377 288 381 287 384 286 b 388 285 391 283 394 283 b 408 279 422 276 437 277 b 448 277 459 278 470 281 b 444 210 387 152 308 148 b 281 147 258 153 240 163 l 240 163 b 240 163 240 163 240 163 b 239 163 238 164 237 164 b 237 165 237 165 236 165 b 235 166 235 166 234 167 b 234 167 234 167 234 167 b 226 172 219 178 214 185 b 214 185 214 185 214 185 b 200 202 195 219 195 219 b 181 258 186 307 207 352 b 214 364 210 376 199 381 l 198 382 b 194 384 189 385 185 385 b 178 385 170 380 166 373 b 126 299 137 214 188 166 b 188 165 188 165 188 165 b 194 160 201 153 211 147 b 211 148 211 148 211 148 b 237 132 268 123 305 125 b 403 130 467 204 491 289 b 500 294 508 299 515 304 b 527 313 536 323 545 334 b 554 345 561 356 568 369 b 574 381 579 394 583 407 b 585 414 586 421 587 428 b 588 435 589 442 589 449 b 589 462 589 477 586 490 b 584 504 579 518 572 531 b 564 544 554 556 542 566 b 536 570 529 574 522 578 b 515 581 508 584 500 587 b 493 589 485 590 477 591 b 473 592 469 592 465 592 b 461 592 457 592 453 591 b 443 588 436 579 436 569 b 436 556 446 546 459 547 l 460 547 b 463 547 465 547 468 548 b 471 548 473 549 476 549 b 482 550 487 550 493 549 b 505 549 516 546 527 541 b 538 537 548 530 556 521 b 564 511 571 500 574 488 b 578 475 580 462 579 449 b 579 442 578 436 578 429 b 577 423 575 416 573 410 b 566 385 554 361 537 340 b 525 326 511 313 495 304 b 516 402 487 510 398 549 l 398 549 b 398 549 388 553 374 557 b 378 564 383 571 388 579 b 462 669 550 705 635 723 b 692 735 739 737 775 734 l 766 728 b 678 656 628 531 593 401 z m 974 539 b 959 412 871 338 775 338 b 743 338 711 345 680 362 b 682 369 684 376 686 382 b 705 456 724 529 747 592 b 759 625 773 655 789 681 b 789 681 789 682 789 682 b 799 700 811 715 821 726 b 943 709 985 624 974 539 z"},"|":{"x_min":0,"x_max":104,"ha":104,"o":"m 52 -56 b 62 -56 70 -48 70 -38 l 70 367 b 70 377 62 385 52 385 b 42 385 34 377 34 367 l 34 -38 b 34 -48 42 -56 52 -56 z"},"t":{"x_min":0,"x_max":218,"ha":218,"o":"m 159 425 l 246 425 b 253 425 256 428 256 434 b 256 440 253 443 246 443 l 166 443 l 173 466 b 179 485 180 499 174 510 b 168 521 161 527 150 529 b 140 530 130 527 118 520 b 107 513 99 501 94 485 l 79 443 l -2 443 b -11 443 -16 440 -16 434 b -16 428 -11 425 -2 425 l 74 425 b 70 414 66 402 62 389 l 37 309 b 29 283 21 255 14 227 b 7 199 2 172 -1 145 b -5 118 -5 94 -2 73 b -1 71 -1 69 -1 67 b 5 37 27 -16 102 4 b 103 4 104 5 105 5 b 110 7 115 9 120 12 b 122 13 124 14 124 14 l 124 14 b 176 47 223 140 253 213 l 234 213 b 229 202 224 191 219 180 b 188 113 158 65 129 40 b 112 26 100 21 91 21 b 90 21 90 21 89 21 b 89 21 89 21 88 21 b 88 21 88 21 87 21 b 87 21 87 21 87 21 b 63 27 70 88 77 127 b 79 138 81 149 84 161 b 93 200 103 240 116 281 b 121 298 126 315 131 330 l 130 330 l 151 398 b 154 408 157 417 159 425 z"},"M":{"x_min":0,"x_max":1284,"ha":1284,"o":"m 1394 790 b 1375 789 1358 786 1343 780 b 1221 752 1140 640 1071 513 b 1003 383 947 237 895 143 b 951 371 824 724 902 760 b 909 761 917 763 925 763 l 925 764 b 927 764 929 766 930 768 b 930 770 929 772 927 773 l 927 774 b 927 774 927 774 927 774 b 926 774 925 774 924 774 b 922 774 921 774 919 774 l 920 774 b 920 774 710 785 529 706 b 492 690 457 670 426 646 b 423 644 421 642 418 640 b 418 640 418 640 418 640 l 418 640 b 385 614 356 584 333 549 b 326 549 319 549 312 548 b -36 531 -110 44 177 -44 l 177 -44 b 177 -44 231 -65 313 -56 l 313 -56 b 389 -48 452 -16 503 31 l 504 32 l 512 40 b 529 57 544 74 558 93 b 593 136 620 186 643 239 b 643 239 643 239 643 239 l 648 252 b 663 290 675 329 686 368 b 705 442 724 515 747 578 b 759 611 773 641 789 667 b 789 667 789 667 789 667 b 814 712 846 734 846 734 l 846 734 b 851 737 856 740 861 743 b 849 729 841 711 834 693 b 832 688 830 682 828 677 b 823 661 817 633 815 595 b 809 422 863 177 827 43 b 957 115 1055 623 1278 741 b 1191 658 1174 485 1147 328 b 1132 241 1090 20 980 9 b 977 9 975 7 975 4 b 975 1 978 -2 981 -1 b 1140 9 1200 195 1224 327 b 1262 535 1256 768 1395 780 b 1397 780 1399 782 1399 784 b 1400 787 1397 790 1394 790 z m 327 399 b 327 411 328 423 331 436 b 331 439 332 442 333 445 b 333 448 334 451 335 454 b 335 457 336 460 337 463 b 338 466 339 469 340 472 b 340 472 347 497 367 532 b 373 531 380 529 386 527 b 389 526 392 525 394 523 b 394 523 395 523 395 523 b 395 523 395 523 396 523 b 396 523 396 523 396 523 b 396 523 397 522 397 522 b 483 483 503 374 475 282 b 475 282 475 282 474 281 b 462 277 449 276 437 276 b 424 276 411 279 399 283 b 397 283 396 284 394 285 b 393 285 391 286 390 286 b 387 288 384 289 381 291 b 376 294 371 297 366 301 b 356 309 348 319 342 329 b 337 340 333 351 330 363 b 328 375 327 387 327 399 z m 786 728 l 767 714 b 678 642 628 516 593 387 b 582 348 572 306 560 265 l 558 255 l 557 252 b 547 217 536 183 522 150 l 523 150 b 523 150 487 47 413 -3 l 413 -3 b 381 -25 343 -38 296 -40 b 292 -41 288 -41 284 -41 b 280 -41 276 -41 273 -41 l 273 -41 b 230 -42 197 -30 197 -30 l 197 -30 b 196 -30 195 -29 194 -29 b 193 -29 193 -29 193 -29 l 193 -29 b -70 53 41 526 311 537 b 316 538 321 538 326 538 b 324 533 321 529 319 525 b 315 518 312 512 309 505 b 306 498 304 491 301 485 b 300 481 299 477 298 474 b 297 470 296 467 296 463 b 295 460 294 456 293 453 b 293 449 292 446 291 442 b 290 435 290 427 290 420 b 289 413 289 405 290 398 b 291 383 294 368 299 354 b 304 340 312 326 321 314 b 330 303 342 293 354 285 b 361 281 367 278 374 275 b 377 274 381 273 384 272 b 388 271 391 269 394 268 b 408 265 422 262 437 262 b 448 263 459 264 470 267 b 444 196 387 138 308 134 b 281 133 258 138 240 149 l 240 149 b 240 149 240 149 240 149 b 239 149 238 150 237 150 b 237 151 237 151 236 151 b 236 151 235 152 234 153 b 234 153 234 153 234 153 b 226 158 219 164 214 171 b 214 171 214 171 214 171 b 200 188 195 205 195 205 b 181 244 186 293 207 338 b 214 350 210 362 199 367 l 198 368 b 194 370 189 371 185 371 b 178 370 170 366 166 359 b 126 285 137 200 188 152 b 188 151 188 151 188 151 b 194 146 201 139 211 133 b 211 133 211 134 211 134 b 237 118 268 109 305 111 b 403 116 467 190 491 275 b 500 279 508 285 515 290 b 527 299 536 309 545 320 b 554 331 561 342 568 355 b 574 367 579 380 583 393 b 585 400 586 407 587 414 b 588 421 589 428 589 435 b 589 448 589 462 586 476 b 584 490 579 504 572 517 b 564 530 554 542 542 551 b 536 556 529 560 522 564 b 515 567 508 570 500 572 b 493 575 485 576 477 577 b 473 577 469 578 465 578 b 461 578 457 578 453 577 b 443 574 436 565 436 555 b 436 542 446 532 459 533 l 460 533 b 463 533 465 533 468 534 b 471 534 473 535 476 535 b 482 536 487 536 493 535 b 505 534 516 532 527 527 b 538 523 548 516 556 506 b 564 497 571 486 574 474 b 578 461 580 448 579 435 b 579 428 578 422 578 415 b 577 409 575 402 573 396 b 566 371 554 347 537 326 b 525 312 511 299 495 290 b 516 388 488 496 398 535 l 398 535 b 398 535 388 539 374 543 b 396 577 429 619 481 656 b 505 672 638 758 867 765 b 837 757 811 745 786 728 z"},"g":{"x_min":0,"x_max":450,"ha":450,"o":"m 486 213 l 467 213 b 463 204 459 194 454 184 b 453 182 452 179 451 177 b 403 82 354 37 294 4 b 297 13 300 22 302 31 l 308 55 b 319 96 329 138 338 179 b 347 221 355 262 364 303 b 366 316 365 326 359 334 b 353 341 345 346 336 347 b 327 348 318 346 309 341 b 300 335 294 325 291 312 b 289 301 286 289 284 277 b 282 265 279 253 276 241 b 276 256 274 270 270 283 b 266 297 259 309 248 320 b 240 329 231 335 220 339 b 209 343 198 345 186 345 b 151 345 121 337 95 320 b 70 303 49 282 34 257 b 18 231 8 204 3 174 b -1 144 -1 116 5 91 b 11 65 23 44 41 28 b 59 11 83 3 113 4 b 133 4 151 9 167 18 b 183 27 198 39 211 54 b 218 61 223 69 229 77 b 234 85 239 93 243 102 l 218 6 l 212 -14 b 210 -22 208 -29 206 -37 b 203 -38 200 -40 197 -41 b 166 -54 133 -68 97 -86 l 97 -86 l 97 -86 b 95 -87 93 -88 91 -88 b -38 -153 -74 -248 -67 -310 b -62 -347 -40 -372 -6 -379 b 1 -381 8 -381 15 -381 b 25 -381 35 -380 45 -377 b 45 -378 44 -378 44 -378 b 72 -373 131 -352 180 -277 b 184 -270 189 -263 193 -256 b 193 -254 194 -253 195 -252 b 216 -214 235 -173 251 -129 b 265 -91 277 -55 288 -20 b 288 -20 288 -20 288 -20 b 380 20 436 109 453 141 l 453 141 l 453 141 b 455 145 457 148 458 150 l 458 150 b 458 150 458 150 458 150 b 459 152 459 153 459 153 l 459 153 b 469 173 478 194 486 213 z m 190 -90 b 182 -118 172 -148 161 -178 b 153 -198 145 -219 136 -239 b 133 -244 121 -268 103 -292 b 76 -329 51 -344 30 -350 b -13 -360 -31 -341 -39 -319 b -39 -319 -43 -304 -42 -281 l -42 -282 b -42 -278 -41 -274 -41 -271 b -39 -255 -33 -237 -23 -219 b -20 -215 -18 -211 -15 -207 b -1 -185 17 -166 38 -150 b 49 -140 58 -134 58 -134 b 58 -134 58 -134 58 -134 b 124 -86 198 -63 198 -63 b 196 -71 193 -81 190 -90 z m 257 194 b 253 171 246 148 236 125 b 227 102 214 82 199 63 b 191 53 179 43 165 34 b 151 25 138 20 124 19 b 107 18 95 26 86 41 b 78 56 73 75 72 98 b 71 121 73 146 78 173 b 83 200 91 225 102 249 b 113 272 126 291 141 306 b 157 321 174 329 193 329 b 208 329 220 325 229 317 b 239 310 246 300 251 287 b 255 275 258 261 259 244 b 260 228 259 211 257 194 z"},"j":{"x_min":0,"x_max":193,"ha":193,"o":"m 86 361 b 98 361 107 364 114 372 b 121 379 125 388 125 399 b 125 409 121 418 114 425 b 107 432 98 436 86 436 b 75 436 66 432 58 425 b 51 418 48 409 48 399 b 48 388 51 379 58 372 b 66 364 75 361 86 361 z m 228 213 l 209 213 b 205 204 201 194 196 184 b 195 182 194 179 193 177 b 145 82 96 37 36 4 b 39 13 42 22 44 31 l 50 55 b 61 96 71 138 80 179 b 89 221 97 262 106 303 b 108 316 107 326 101 334 b 95 341 87 346 78 347 b 69 348 60 346 51 341 b 45 336 40 330 36 322 l 36 322 b 36 322 36 322 36 322 b 35 319 34 315 33 312 b 31 302 29 292 27 282 b 10 211 -25 63 -42 -4 l -46 -14 b -48 -22 -50 -29 -52 -37 b -55 -38 -58 -40 -60 -41 b -92 -54 -125 -68 -161 -86 l -161 -86 l -161 -86 b -163 -87 -165 -88 -167 -88 b -296 -153 -332 -248 -325 -310 b -320 -347 -298 -372 -264 -379 b -257 -381 -250 -381 -243 -381 b -233 -381 -223 -380 -213 -377 b -213 -378 -214 -378 -214 -378 b -186 -373 -127 -352 -78 -277 b -74 -270 -69 -263 -65 -256 b -65 -254 -64 -253 -63 -252 b -42 -214 -23 -173 -7 -129 b 7 -91 19 -55 30 -20 b 30 -20 30 -20 30 -20 b 122 20 178 109 195 141 l 195 141 l 195 141 b 197 145 199 148 200 150 l 200 150 b 200 150 200 150 200 150 b 201 152 201 153 201 153 l 201 153 b 211 173 220 194 228 213 z m -68 -90 b -76 -118 -86 -148 -97 -178 b -105 -198 -113 -219 -122 -239 b -125 -244 -137 -268 -155 -292 b -182 -329 -207 -344 -228 -350 b -271 -360 -289 -341 -297 -319 b -297 -319 -301 -304 -300 -281 l -300 -282 b -300 -278 -299 -274 -299 -271 b -297 -255 -291 -237 -281 -219 b -278 -215 -276 -211 -273 -207 b -259 -185 -241 -166 -220 -150 b -209 -140 -200 -134 -200 -134 b -200 -134 -200 -134 -200 -134 b -134 -86 -60 -63 -60 -63 b -62 -71 -65 -81 -68 -90 z"},"i":{"x_min":0,"x_max":214,"ha":214,"o":"m 106 361 b 117 361 127 364 134 372 b 141 379 145 388 145 399 b 145 409 141 418 134 425 b 127 432 117 436 106 436 b 95 436 85 432 78 425 b 71 418 67 409 67 399 b 67 388 71 379 78 372 b 85 364 95 361 106 361 z m 250 213 l 231 213 b 226 202 221 191 216 180 b 185 113 155 65 126 40 b 74 -3 66 38 65 53 b 65 61 66 70 67 80 b 69 97 72 117 77 138 b 82 159 87 179 92 199 b 97 220 102 238 107 254 b 112 270 116 282 118 289 b 124 307 124 321 119 331 b 113 341 106 347 96 348 b 87 350 76 347 65 340 b 55 334 47 322 42 307 b 38 294 33 278 27 258 b 21 238 15 217 10 195 b 5 172 1 149 -2 127 b -4 116 -4 105 -4 95 b -4 95 -10 17 42 3 l 42 3 b 51 0 63 -2 77 0 b 85 0 93 2 99 4 b 100 4 101 5 102 5 b 107 7 112 9 117 12 b 119 13 121 14 121 14 l 121 14 b 173 47 220 140 250 213 z"},"y":{"x_min":0,"x_max":380,"ha":380,"o":"m 415 213 l 396 213 b 392 204 388 194 383 184 b 382 182 381 179 380 177 b 332 82 283 37 223 4 b 226 13 229 22 231 31 l 237 55 b 248 96 258 138 267 179 b 276 221 284 262 293 303 b 295 316 294 326 288 334 b 282 341 274 346 265 347 b 256 348 247 346 238 341 b 232 336 227 330 223 322 l 223 322 b 223 322 223 322 223 322 b 222 319 221 315 220 312 b 218 302 216 292 214 282 b 209 261 203 234 195 204 b 188 183 180 162 171 141 b 161 120 150 99 136 78 b 126 63 115 49 105 38 b 94 28 84 22 74 22 b 66 22 61 28 60 40 b 58 51 58 66 60 83 b 62 100 66 119 70 140 b 74 161 79 181 84 201 b 89 220 94 238 99 254 b 104 270 108 281 110 289 b 115 306 116 320 110 330 b 105 340 98 345 89 347 b 80 349 70 346 59 339 b 48 333 41 322 36 306 b 33 296 28 281 22 262 b 15 242 9 221 4 198 b -1 176 -5 152 -8 129 b -10 105 -10 83 -7 65 b -4 46 3 31 14 19 b 26 8 42 3 65 4 b 85 5 102 12 115 26 b 128 39 140 54 150 70 b 154 76 158 83 162 90 b 166 96 169 102 173 109 b 162 65 152 24 144 -4 l 141 -14 b 139 -22 137 -29 135 -37 b 132 -38 129 -40 126 -41 b 95 -54 62 -68 26 -86 l 26 -86 l 26 -86 b 24 -87 22 -88 20 -88 b -109 -153 -145 -248 -138 -310 b -133 -347 -111 -372 -77 -379 b -70 -381 -63 -381 -56 -381 b -46 -381 -36 -380 -26 -377 b -26 -378 -27 -378 -27 -378 b 1 -373 60 -352 109 -277 b 113 -270 118 -263 122 -256 b 122 -254 123 -253 124 -252 b 145 -214 164 -173 180 -129 b 194 -91 206 -55 217 -20 b 217 -20 217 -20 217 -20 b 309 20 365 109 382 141 l 382 141 b 384 145 386 148 387 150 l 387 150 b 387 150 387 150 387 150 b 388 152 388 153 388 153 l 388 153 b 398 173 407 194 415 213 z m 119 -90 b 111 -118 101 -148 90 -178 b 82 -198 74 -219 65 -239 b 62 -244 50 -268 32 -292 b 5 -329 -20 -344 -41 -350 b -84 -360 -102 -341 -110 -319 b -110 -319 -114 -304 -113 -281 l -113 -282 b -113 -278 -112 -274 -112 -271 b -110 -255 -104 -237 -94 -219 b -91 -215 -89 -211 -86 -207 b -72 -185 -54 -166 -33 -150 b -22 -140 -13 -134 -13 -134 b -13 -134 -13 -134 -13 -134 b 53 -86 127 -63 127 -63 b 125 -71 122 -81 119 -90 z"},"@":{"x_min":0,"x_max":491,"ha":491,"o":"m 461 269 b 460 288 454 305 444 321 b 434 336 419 348 398 357 b 377 365 351 369 319 369 b 287 369 255 364 225 353 b 195 342 167 326 141 306 b 116 286 94 262 77 236 b 59 209 47 181 39 151 b 28 113 26 80 32 54 b 39 27 54 7 78 -7 b 102 -21 136 -28 179 -28 b 196 -28 212 -27 228 -25 b 239 -23 249 -21 258 -19 b 265 -17 271 -10 271 -4 b 271 3 265 7 258 5 b 247 2 238 0 229 -1 b 216 -3 202 -4 187 -4 b 156 -4 132 1 113 13 b 94 24 82 41 76 63 b 71 86 73 114 82 148 b 92 186 109 221 132 251 b 155 281 182 304 214 321 b 245 337 279 345 316 345 b 345 345 369 339 387 328 b 404 317 415 300 420 278 b 424 256 422 228 414 196 b 408 175 400 156 391 139 b 381 121 370 108 358 98 b 345 88 333 83 321 83 b 304 83 299 93 304 113 b 305 117 307 122 309 127 b 311 132 314 138 318 146 l 376 264 b 379 271 377 277 371 278 b 368 279 364 279 361 277 l 342 266 b 336 270 329 274 321 276 b 313 278 304 280 294 280 b 280 280 266 277 252 271 b 238 265 225 257 213 247 b 201 237 190 226 180 213 b 170 200 161 187 154 172 b 147 158 141 144 138 130 b 134 115 133 103 134 92 b 135 81 139 73 145 67 b 152 62 161 59 172 59 b 186 59 200 64 216 74 b 232 84 250 100 270 121 l 273 121 b 272 117 270 113 269 109 b 267 100 266 92 267 86 b 268 79 271 74 275 70 b 279 66 284 63 290 62 b 296 60 303 59 310 59 b 331 59 351 65 370 77 b 389 89 406 107 420 129 b 435 151 446 177 454 206 b 460 228 462 249 461 269 z m 276 151 b 268 140 259 129 248 119 b 237 109 227 101 219 96 b 210 90 202 88 195 88 b 186 88 180 91 178 99 b 176 106 177 117 181 132 b 184 143 189 155 194 167 b 200 179 206 191 213 202 b 220 212 227 221 234 229 b 241 236 248 242 255 246 b 262 251 269 254 275 256 b 280 258 286 259 293 259 b 303 259 310 257 314 252 b 317 247 317 239 314 228 b 313 224 312 219 310 215 b 308 210 306 205 303 199 l 298 189 b 291 174 284 162 276 151 z"},".":{"x_min":0,"x_max":133,"ha":133,"o":"m 74 64 b 60 64 46 53 42 38 l 40 31 b 36 17 45 5 59 5 b 73 5 87 17 91 31 l 93 38 b 97 53 89 64 74 64 z"},"p":{"x_min":0,"x_max":438,"ha":438,"o":"m 454 213 b 449 202 445 191 439 180 b 438 176 436 173 435 170 b 430 160 413 127 391 111 b 391 110 390 110 389 109 b 364 93 334 85 298 86 b 321 118 329 157 329 157 l 328 157 b 333 174 335 191 335 209 b 336 234 332 257 324 278 b 316 299 303 316 286 329 b 269 342 247 348 220 347 b 200 346 182 341 166 332 b 150 324 135 312 123 296 b 119 291 115 287 111 282 b 108 278 105 273 101 269 b 102 271 102 274 102 276 l 102 276 b 104 284 105 292 106 300 b 109 314 107 326 100 334 b 94 342 86 346 76 348 b 67 349 57 346 48 340 b 38 333 32 322 30 307 b 27 292 25 277 22 264 l 22 264 b 21 260 21 256 20 253 b 20 252 20 251 19 250 l -3 134 b -3 134 -27 8 -59 -106 b -63 -120 -68 -135 -73 -149 b -83 -178 -95 -206 -108 -234 b -121 -262 -137 -287 -153 -310 b -170 -333 -189 -352 -211 -367 b -211 -367 -211 -367 -212 -368 b -218 -372 -225 -376 -231 -379 b -248 -388 -275 -400 -308 -406 b -310 -407 -310 -410 -308 -410 b -299 -411 -290 -411 -281 -410 b -232 -406 -189 -390 -152 -361 b -115 -332 -83 -295 -56 -250 b -43 -229 -32 -207 -21 -184 b 26 -77 58 61 58 61 b 66 100 78 151 88 199 b 92 212 97 225 103 238 b 111 256 122 272 135 285 b 144 296 155 306 168 316 b 182 325 196 330 209 330 b 225 331 237 325 245 311 b 253 298 259 281 261 260 b 263 239 262 216 258 191 b 255 166 248 142 240 119 l 234 105 b 232 102 231 100 230 97 b 229 98 228 98 226 98 b 226 98 226 98 226 98 l 226 98 b 184 106 151 103 128 90 b 113 82 106 72 102 65 l 102 65 b 98 56 96 48 97 39 b 98 29 104 20 113 13 b 123 5 136 2 153 2 b 171 2 189 5 207 11 b 231 20 252 33 269 50 b 275 56 281 62 286 69 l 286 68 b 286 68 286 69 286 69 b 292 68 298 68 304 68 b 343 68 371 78 391 90 b 399 95 406 100 412 106 b 416 110 420 115 424 119 b 424 119 424 119 425 120 b 426 122 428 124 430 126 b 430 127 430 127 430 127 b 431 127 431 128 431 128 b 439 139 445 151 449 160 b 458 178 466 196 473 213 l 454 213 z m 190 38 b 174 26 160 21 147 21 b 142 21 138 21 134 23 b 134 23 134 23 134 23 b 107 35 117 55 119 59 b 119 60 119 60 120 60 b 120 60 120 60 120 60 b 122 64 128 70 137 75 b 152 83 178 89 223 81 b 223 81 223 81 223 81 b 213 61 202 47 190 38 z"},"X":{"x_min":0,"x_max":1007,"ha":1007,"o":"m 1200 785 b 1015 818 896 645 801 471 b 775 522 708 666 725 729 l 725 729 b 725 729 725 730 726 732 b 728 740 733 746 739 751 b 742 754 745 756 750 759 b 750 759 751 759 751 760 b 752 761 755 765 749 769 b 748 769 747 770 747 770 b 718 768 689 766 661 763 b 621 759 582 753 542 745 b 503 736 465 725 427 710 b 389 696 353 677 319 654 b 302 642 286 629 271 615 b 256 601 242 585 229 569 b 216 552 205 535 195 516 b 190 507 186 498 181 488 b 177 479 174 469 171 459 b 167 449 165 439 163 428 b 160 418 159 408 158 397 b 157 387 156 376 156 366 b 156 355 156 345 157 335 b 160 314 164 293 171 273 b 178 253 187 234 200 217 b 206 208 212 200 220 193 b 227 185 235 178 243 172 b 252 165 260 160 270 155 b 279 150 288 146 298 143 b 308 139 318 137 328 135 b 338 133 349 132 359 131 b 379 131 400 134 419 140 b 458 153 493 175 521 205 b 535 219 547 236 556 254 b 566 272 573 291 576 311 b 580 331 581 352 577 372 b 573 392 565 412 553 429 b 540 446 524 460 505 470 b 500 473 495 475 490 477 b 485 479 480 481 474 482 b 463 484 452 486 441 485 b 418 484 396 477 376 466 b 366 460 357 453 349 446 b 344 442 341 438 337 434 b 335 432 333 430 331 428 b 329 425 328 423 326 421 b 320 411 321 398 330 390 b 340 381 356 381 365 391 l 366 392 b 367 394 369 396 370 398 l 374 403 b 376 406 379 410 382 413 b 387 420 393 426 400 431 b 413 442 428 450 444 453 b 461 457 479 456 496 450 b 513 444 529 434 541 420 b 553 406 562 388 566 370 b 568 361 569 351 569 342 b 569 332 568 323 566 313 b 563 294 556 276 547 259 b 538 242 527 226 513 212 b 500 198 485 186 468 176 b 452 166 434 158 416 153 b 397 148 378 145 359 146 b 355 146 350 147 345 148 b 341 148 336 149 331 150 b 322 153 313 156 304 159 b 269 174 240 200 222 231 b 217 239 213 248 209 256 b 206 265 203 274 200 282 b 195 300 193 319 192 337 b 190 374 196 412 208 447 b 214 464 221 482 230 498 b 238 514 248 530 260 545 b 271 560 283 574 297 587 b 310 601 325 613 340 624 b 370 647 404 666 439 682 b 456 690 474 698 493 704 b 511 711 529 717 548 722 b 581 732 614 740 648 746 l 648 746 l 648 746 b 653 747 658 748 663 749 b 671 750 680 751 688 753 l 729 760 b 717 754 707 746 700 741 b 700 741 700 740 700 740 b 699 739 698 739 697 738 b 697 738 697 737 696 737 b 695 736 695 736 695 736 l 695 736 b 632 671 676 535 748 395 b 749 393 750 392 751 390 b 665 225 545 48 378 2 b 378 2 377 2 377 2 b 365 -2 350 -5 336 -7 b 336 -7 336 -7 336 -7 b 336 -7 336 -7 336 -7 b 314 -10 296 -10 296 -10 b 296 -10 296 -10 296 -10 b 286 -10 275 -9 265 -8 b 265 -8 265 -8 265 -8 b 263 -8 262 -8 260 -8 b 240 -5 222 0 209 4 b 206 5 204 6 204 6 b 72 52 -21 205 94 415 b 101 427 97 438 85 442 b 72 447 59 443 52 432 b -73 205 45 27 211 -14 b 211 -14 231 -19 251 -22 b 259 -23 267 -23 276 -23 b 277 -23 277 -23 278 -24 b 278 -24 342 -27 391 -7 b 557 45 674 215 757 376 b 827 237 901 81 852 -1 b 1000 100 879 331 814 447 l 808 458 b 897 619 1008 774 1190 742 b 1215 738 1224 781 1200 785 z"},"*":{"x_min":0,"x_max":186,"ha":186,"o":"m 111 293 l 132 302 b 144 306 151 319 148 329 l 108 305 b 104 303 100 305 102 309 l 116 350 b 105 350 93 340 91 329 l 88 309 b 87 305 82 303 80 305 l 66 317 b 59 323 45 320 36 310 l 70 293 b 73 291 71 286 67 285 l 46 276 b 35 271 28 259 31 249 l 71 273 b 75 275 78 272 77 269 l 62 227 b 74 227 85 237 87 249 l 91 269 b 91 272 96 275 99 273 l 113 261 b 120 255 134 257 142 267 l 109 285 b 106 286 107 291 111 293 z"},"Y":{"x_min":0,"x_max":888,"ha":888,"o":"m 970 796 b 967 796 965 795 962 795 b 878 778 814 628 768 466 b 700 290 612 108 535 108 b 425 107 569 592 634 719 b 644 737 653 750 670 753 b 672 754 674 756 674 758 b 674 762 672 764 668 764 b 667 764 666 764 665 764 b 638 768 610 772 583 775 b 543 779 503 782 463 781 b 423 781 383 778 343 772 b 303 765 264 755 226 739 b 207 731 188 721 171 711 b 153 700 136 688 120 674 b 104 661 90 646 76 630 b 69 622 63 614 57 605 b 51 597 45 588 40 579 b 35 570 30 560 26 551 b 22 541 18 531 15 521 b 12 511 9 501 7 491 b 4 481 3 470 2 460 b -1 439 -1 418 2 397 b 5 376 10 356 19 336 b 23 327 28 317 33 308 b 39 299 45 291 52 283 b 59 275 66 268 74 261 b 82 255 91 249 100 243 b 109 238 118 233 127 229 b 137 225 147 222 157 220 b 177 215 197 214 218 216 b 258 220 297 235 330 258 b 347 269 362 283 375 299 b 388 314 399 332 407 350 b 415 369 420 389 420 410 b 420 430 416 451 408 470 b 399 489 387 507 370 521 b 366 524 361 528 357 531 b 352 533 347 536 342 539 b 332 543 321 547 310 549 b 288 553 264 550 243 543 b 232 539 222 535 212 529 b 207 526 202 523 198 520 b 195 518 193 517 191 515 b 189 513 187 511 185 510 b 176 501 175 488 182 478 b 191 467 206 465 217 473 l 218 473 b 219 475 221 476 223 478 l 227 482 b 231 485 234 488 237 490 b 244 496 251 500 259 504 b 274 512 290 517 307 517 b 324 517 341 512 357 503 b 372 494 386 480 395 464 b 404 448 409 429 409 410 b 409 400 408 391 406 382 b 404 372 401 363 397 354 b 390 337 380 320 367 305 b 355 290 340 277 324 267 b 308 256 291 247 273 240 b 255 234 236 230 217 229 b 198 227 178 229 160 234 b 156 235 151 236 147 238 b 142 240 138 242 134 244 b 125 248 117 253 109 258 b 78 279 55 311 43 346 b 40 355 38 364 36 373 b 35 382 34 391 33 400 b 32 419 33 437 36 455 b 42 492 55 527 74 559 b 83 575 94 591 106 605 b 118 619 131 633 145 645 b 160 657 175 668 190 679 b 206 689 223 698 240 706 b 275 721 311 733 349 742 b 368 746 387 750 406 752 b 425 755 445 757 464 759 b 498 761 532 762 567 761 l 567 761 l 567 761 b 572 761 577 761 582 760 b 590 760 599 760 607 759 l 636 758 b 625 754 616 748 608 742 b 520 666 451 430 428 335 b 392 185 366 9 474 19 b 565 27 646 151 712 294 b 705 267 699 239 694 211 b 687 171 680 130 672 90 l 670 80 b 659 26 646 -24 625 -69 l 625 -69 b 625 -69 618 -84 604 -105 b 604 -105 605 -105 605 -105 b 595 -119 585 -132 573 -144 b 531 -186 478 -204 445 -211 b 437 -212 429 -214 421 -215 b 194 -245 148 13 212 179 b 217 191 212 201 200 204 b 186 207 173 201 169 189 b 101 17 178 -218 376 -231 l 376 -231 b 376 -231 376 -231 377 -231 b 377 -231 377 -231 378 -231 b 501 -239 590 -168 590 -168 l 590 -168 b 601 -160 612 -151 622 -142 l 629 -135 l 637 -128 b 691 -72 728 1 755 81 l 758 92 b 770 129 779 167 787 205 b 788 215 790 224 792 233 b 851 494 894 774 971 787 b 974 787 975 789 975 791 l 975 792 b 975 795 973 796 970 796 z"},"c":{"x_min":0,"x_max":307,"ha":307,"o":"m 324 213 b 320 204 315 194 311 184 b 306 173 292 145 273 118 b 260 99 243 79 223 62 b 203 46 186 36 170 30 b 146 21 128 22 114 28 b 105 32 98 37 92 43 b 69 71 70 121 71 135 b 72 148 74 160 77 174 b 82 201 90 227 101 250 b 112 273 125 292 141 308 b 154 321 170 329 186 330 l 186 330 b 186 330 233 339 208 269 b 208 268 208 266 209 265 l 209 265 b 209 265 215 259 225 272 b 226 273 227 274 227 274 b 227 275 227 275 227 275 l 227 275 b 231 280 234 288 234 300 b 234 315 230 334 209 343 b 208 344 208 344 207 344 b 206 345 206 345 205 345 b 168 358 119 335 119 335 l 119 335 b 111 332 102 327 94 322 b 69 305 48 284 32 258 b 17 233 6 205 2 175 b -3 144 -3 117 3 91 b 9 65 21 44 40 27 b 44 23 49 19 54 16 l 54 16 b 54 16 54 16 54 16 b 57 14 60 13 64 11 b 74 7 85 3 96 2 l 96 2 b 202 -18 273 84 273 84 b 289 105 302 126 309 141 l 309 141 l 314 150 b 325 172 334 193 343 213 l 324 213 z"},"!":{"x_min":0,"x_max":283,"ha":283,"o":"m 191 598 b 167 598 142 577 137 553 l 63 211 b 60 200 68 190 79 190 b 91 190 103 199 107 211 l 222 552 b 230 577 216 598 191 598 z m 60 111 b 36 111 12 92 5 69 l 2 55 b -5 31 9 12 33 12 b 57 12 81 31 87 55 l 91 69 b 97 92 83 111 60 111 z"},"/":{"x_min":0,"x_max":195,"ha":195,"o":"m 178 398 b 170 398 164 394 161 387 l 2 -22 b -2 -33 6 -46 18 -46 l 19 -46 b 26 -46 32 -41 35 -35 l 194 375 b 198 386 190 398 178 398 z"},"[":{"x_min":0,"x_max":283,"ha":283,"o":"m 245 407 l 170 407 b 158 407 145 397 141 385 l 32 -25 b 28 -37 36 -48 49 -48 l 123 -48 b 128 -48 133 -43 135 -38 b 136 -33 133 -29 128 -29 l 70 -29 l 182 389 l 240 389 b 245 389 250 393 252 398 b 253 403 250 407 245 407 z"},"6":{"x_min":0,"x_max":1067,"ha":1067,"o":"m 161 498 b 215 520 184 631 192 678 l 166 678 b 166 647 166 585 166 554 b 166 533 159 506 133 514 b 101 535 124 647 117 678 l 95 678 b 102 627 64 469 161 498 z m 271 721 l 224 721 l 224 787 l 261 787 l 261 805 l 224 805 l 224 865 l 269 865 l 269 885 l 200 885 l 200 703 l 271 703 z m 918 498 l 918 523 l 893 523 l 893 498 z m 652 557 l 601 678 l 585 678 l 585 498 l 604 498 l 604 620 l 657 498 l 675 498 l 675 678 l 652 678 z m 886 19 b 894 60 873 69 839 65 l 839 -26 b 872 -32 893 -16 886 19 z m 852 56 b 885 64 870 12 873 -4 b 870 -19 862 -19 852 -19 z m 853 -141 l 853 -50 l 842 -50 l 842 -141 z m 161 56 l 161 65 l 126 65 l 126 -26 l 140 -26 l 140 16 l 157 16 l 157 25 l 140 25 l 140 56 z m 536 56 l 536 65 l 502 65 l 502 -26 l 511 -26 l 511 16 l 530 16 l 530 25 l 511 25 l 511 56 z m 239 678 b 169 640 243 587 275 556 b 300 506 229 499 235 554 l 210 547 b 213 519 230 496 259 496 b 321 499 308 577 265 599 b 196 639 269 699 280 625 l 299 633 b 303 668 269 686 239 678 z m 968 -111 l 940 -50 l 933 -50 l 933 -141 l 940 -141 l 940 -77 l 968 -141 l 977 -141 l 977 -50 l 968 -50 z m 398 754 b 399 725 417 702 448 702 b 478 702 496 729 490 757 b 483 798 423 808 423 852 b 437 883 468 860 469 833 l 488 839 b 486 853 483 870 471 877 b 392 912 377 816 441 782 b 461 767 479 744 462 726 b 440 710 421 734 422 761 z m 604 738 b 606 775 611 823 602 859 b 587 895 519 896 511 854 b 505 818 505 778 510 740 b 513 690 597 688 604 738 z m 535 848 b 547 885 589 860 581 829 b 575 804 602 705 547 722 b 524 736 536 770 533 791 b 533 808 530 833 535 848 z m 553 654 b 542 688 473 688 463 648 b 462 600 436 497 511 496 b 556 494 562 539 558 575 b 558 598 564 630 553 654 z m 520 517 b 496 505 482 530 486 554 b 488 582 482 616 486 643 b 498 675 543 657 533 624 b 528 598 546 533 520 517 z m 652 824 l 703 703 l 719 703 l 719 885 l 697 885 l 697 763 l 648 885 l 632 885 l 632 703 l 652 703 z m 664 65 l 651 65 l 651 -26 l 686 -26 l 686 -19 l 664 -19 z m 323 498 l 393 498 l 393 514 l 347 514 l 347 581 l 383 581 l 383 599 l 347 599 l 347 658 l 393 658 l 393 678 l 323 678 z m 117 787 b 164 777 201 820 175 864 b 161 893 119 882 94 885 l 94 703 l 117 703 z m 117 865 b 140 870 163 860 159 833 b 162 807 137 804 117 805 z m 254 16 l 266 -26 l 281 -26 l 266 19 b 285 25 281 55 266 62 b 257 68 243 65 233 65 l 233 -26 l 244 -26 l 244 16 z m 244 56 b 275 62 272 20 244 25 z m 316 788 l 335 788 l 360 703 l 383 703 l 360 794 b 389 805 387 861 360 877 b 341 887 313 885 290 885 l 290 703 l 316 703 z m 316 865 b 369 877 369 794 316 805 z m 895 -50 b 867 -45 867 -69 867 -94 b 867 -112 865 -142 893 -142 b 920 -142 918 -115 918 -94 b 918 -76 921 -51 895 -50 z m 886 -130 b 876 -126 883 -96 883 -87 b 883 -75 880 -51 900 -60 b 910 -65 913 -148 886 -130 z m 929 721 l 884 721 l 884 885 l 858 885 l 858 703 l 929 703 z m 770 747 l 807 747 l 816 703 l 839 703 l 802 885 l 776 885 l 738 703 l 761 703 z m 790 848 l 804 766 l 774 766 z m 408 -77 b 393 -155 456 -163 456 -108 l 442 -108 b 447 -152 410 -130 420 -94 b 410 -58 447 -38 442 -80 l 456 -80 b 462 -41 405 -38 408 -77 z m 426 -26 l 462 -26 l 462 -19 l 440 -19 l 440 16 l 459 16 l 459 25 l 440 25 l 440 56 l 462 56 l 462 65 l 426 65 z m 482 -141 l 482 -50 l 470 -50 l 470 -141 z m 385 -52 b 375 -46 363 -50 350 -50 l 350 -141 l 364 -141 l 364 -96 l 374 -96 l 385 -141 l 397 -141 l 383 -94 b 399 -89 398 -60 385 -52 z m 364 -87 l 364 -59 b 388 -54 391 -92 364 -87 z m 413 -26 l 413 65 l 401 65 l 401 25 l 376 25 l 376 65 l 364 65 l 364 -26 l 376 -26 l 376 16 l 401 16 l 401 -26 z m 646 -117 l 632 -49 l 620 -49 b 646 -173 646 -172 672 -49 l 660 -49 z m 511 -50 l 491 -141 l 505 -141 l 510 -117 l 530 -117 l 532 -141 l 544 -141 l 524 -50 z m 511 -110 l 519 -66 l 527 -110 z m 566 -50 l 553 -50 l 553 -141 l 590 -141 l 590 -133 l 566 -133 z m 592 65 l 581 65 b 577 46 593 -14 567 -19 b 544 -13 559 46 555 65 l 544 65 b 549 39 527 -37 576 -26 b 603 -10 588 39 592 65 z m 811 -87 b 778 -68 816 -37 819 -76 b 846 -66 810 -35 793 -54 b 764 -77 814 -99 819 -120 b 818 -141 793 -128 796 -112 b 771 -112 792 -145 810 -142 b 843 -140 830 -98 811 -87 z m 641 -19 l 620 -19 l 620 65 l 606 65 l 606 -26 l 641 -26 z m 681 -141 l 718 -141 l 718 -133 l 695 -133 l 695 -96 l 714 -96 l 714 -87 l 695 -87 l 695 -59 l 718 -59 l 718 -50 l 681 -50 z m 802 678 l 779 678 b 786 652 809 587 816 562 b 818 546 816 515 816 498 l 842 498 b 834 560 862 621 881 678 l 856 678 l 829 591 z m 764 -52 b 753 -46 739 -50 728 -50 l 728 -141 l 742 -141 l 742 -96 l 750 -96 l 763 -141 l 774 -141 l 761 -95 b 776 -89 776 -60 764 -52 z m 742 -87 l 742 -59 b 766 -54 769 -92 742 -87 z m 117 -50 b 92 -45 92 -69 92 -94 b 92 -112 87 -142 117 -142 b 152 -147 155 -46 117 -50 z m 110 -130 b 98 -121 105 -88 103 -74 b 103 -63 110 -54 122 -60 b 133 -63 136 -150 110 -130 z m 702 678 l 702 498 l 771 498 l 771 514 l 726 514 l 726 678 z m 791 36 l 816 -26 l 825 -26 l 825 65 l 813 65 l 813 5 l 787 65 l 779 65 l 779 -26 l 791 -26 z m 58 -142 b 78 -142 80 -122 80 -108 l 68 -108 b 68 -155 37 -124 45 -94 b 37 -62 68 -35 68 -80 l 80 -80 b 87 -40 29 -38 32 -77 b 32 -101 25 -142 58 -142 z m 357 65 l 310 65 l 310 56 l 327 56 l 327 -26 l 341 -26 l 341 56 l 357 56 z m 200 -50 l 185 -122 l 168 -50 l 154 -50 l 154 -141 l 166 -141 l 166 -74 b 184 -165 187 -165 205 -74 l 205 -141 l 214 -141 l 213 -50 z m 196 67 b 157 76 157 -33 194 -27 b 229 -32 231 68 196 67 z m 207 16 b 207 2 207 -22 190 -18 b 172 -6 185 24 182 39 b 182 51 190 62 200 55 b 210 51 207 25 207 16 z m 304 -141 l 341 -141 l 341 -133 l 318 -133 l 318 -96 l 336 -96 l 336 -87 l 318 -87 l 318 -59 l 341 -59 l 341 -50 l 304 -50 z m 276 -50 l 259 -122 l 243 -50 l 230 -50 l 230 -141 l 239 -141 l 241 -74 l 254 -141 l 264 -141 l 280 -74 l 281 -141 l 290 -141 l 288 -50 z m 918 678 l 893 678 b 901 490 910 492 918 678 z m 728 -26 b 735 -5 727 -1 753 -3 b 753 -3 757 -26 757 -26 l 770 -26 l 751 65 l 736 65 l 718 -26 l 728 -26 z m 743 48 l 751 6 l 736 6 z m 129 356 b 121 308 205 288 201 327 b 159 300 131 362 163 388 b 175 396 185 392 201 387 b 208 422 122 407 129 356 z m 242 405 b 192 407 192 306 242 307 b 293 306 293 407 242 405 z m 257 334 b 231 286 213 372 234 389 b 263 406 262 350 257 334 z m 339 343 b 339 342 305 402 305 402 l 288 402 l 288 310 l 300 310 l 300 371 b 301 372 335 310 335 310 l 351 310 l 351 402 l 339 402 l 339 343 z m 360 390 l 388 390 l 388 310 l 406 310 l 406 390 l 434 390 l 434 402 l 360 402 z m 450 310 l 457 333 l 485 333 b 493 312 485 308 511 310 l 485 402 l 467 402 l 437 310 z m 472 380 l 482 345 l 461 345 z m 535 398 b 500 375 513 305 559 307 b 572 309 591 307 587 327 b 520 289 518 423 587 387 b 594 414 547 405 535 398 z m 637 310 l 637 390 l 665 390 l 665 402 l 591 402 l 591 390 l 619 390 l 619 310 z m 816 402 l 796 402 l 783 361 b 783 360 771 402 771 402 l 749 402 l 749 310 l 761 310 l 761 381 b 762 381 774 334 774 334 l 789 334 b 789 335 801 381 802 381 l 802 310 l 816 310 z m 889 390 l 889 402 l 832 402 l 832 310 l 893 310 l 893 322 l 850 322 l 850 352 l 883 352 l 883 364 l 850 364 l 850 390 z m 46 165 b 51 165 54 168 57 170 b 61 163 74 163 71 173 b 63 173 71 196 65 200 b 59 207 33 209 37 195 b 44 198 58 201 57 190 b 37 196 22 169 46 165 z m 46 181 b 47 183 54 183 57 183 b 62 171 37 169 46 181 z m 92 188 b 96 195 109 201 106 188 l 113 188 l 113 204 b 104 206 96 204 91 197 l 92 204 l 81 204 l 81 166 l 92 166 z m 121 166 l 156 166 l 156 174 l 134 174 b 137 178 160 197 156 204 l 122 204 l 122 197 l 142 197 b 139 192 116 174 121 166 z m 183 190 b 151 195 164 150 186 170 b 191 164 203 161 200 173 b 192 173 201 196 195 200 b 188 207 163 209 166 195 b 173 198 187 201 187 190 l 183 190 z m 187 177 b 172 164 166 187 187 183 z m 232 152 l 242 152 l 242 204 b 239 203 232 206 233 200 b 195 227 200 138 232 173 b 232 169 232 157 232 152 z m 228 176 b 215 168 213 197 225 197 b 235 198 234 180 228 176 z m 264 197 b 270 199 275 198 282 195 b 285 211 251 207 252 193 b 251 185 266 182 272 178 b 275 168 259 172 251 175 b 250 150 315 176 267 191 b 263 192 260 195 264 197 z m 309 167 b 316 164 330 163 327 175 b 310 166 312 185 312 196 l 326 196 l 326 203 l 312 203 l 312 213 l 302 213 l 302 203 l 294 203 l 294 196 l 302 196 b 303 188 298 170 309 167 z m 360 180 b 343 160 347 196 347 204 l 336 204 b 334 187 337 146 360 173 l 360 166 l 370 166 l 370 204 l 360 204 z m 415 166 l 415 221 l 404 221 b 404 218 404 203 405 200 b 368 226 373 138 405 173 l 404 166 z m 404 181 b 392 161 381 194 397 197 b 406 198 404 186 404 181 z m 425 197 l 439 197 l 439 166 l 449 166 l 449 204 l 425 204 z m 449 211 l 449 221 l 439 221 l 439 211 z m 502 185 b 504 211 461 211 463 185 b 461 159 504 159 502 185 z m 489 175 b 477 163 470 187 476 195 b 489 207 495 183 489 175 z m 543 173 l 533 173 l 533 219 l 512 217 l 512 211 l 522 211 l 522 173 l 512 173 l 512 166 l 543 166 z m 590 182 l 586 182 b 591 212 575 237 552 205 b 537 178 574 148 580 174 b 542 151 554 237 580 207 b 549 218 561 150 580 187 l 580 176 l 590 176 z m 575 186 b 565 171 564 205 576 203 b 585 204 577 189 575 186 z m 621 153 b 636 159 628 192 630 204 b 627 203 620 206 620 201 b 581 226 590 137 620 175 b 620 171 621 164 618 161 b 612 156 606 159 598 162 b 593 149 614 150 621 153 z m 620 182 b 609 163 596 195 612 197 b 620 198 620 188 620 182 z m 659 166 b 657 204 668 205 665 166 l 673 166 b 674 176 676 224 659 197 b 659 209 647 205 645 197 l 645 204 l 636 204 l 636 166 l 645 166 b 643 204 653 205 651 166 z m 699 190 b 668 195 680 150 702 170 b 707 164 720 161 717 173 b 709 173 717 196 711 200 b 705 207 679 209 683 195 b 690 198 704 201 703 190 l 699 190 z m 703 177 b 688 164 683 187 703 183 z m 750 211 l 750 221 l 740 221 l 740 211 z m 726 197 l 740 197 l 740 166 l 750 166 l 750 204 l 726 204 z m 790 166 l 790 221 l 766 221 l 766 214 l 780 214 l 780 166 z m 833 166 l 833 178 l 821 178 l 821 166 z m 875 198 b 879 198 883 197 887 196 b 889 215 848 204 852 185 b 848 166 889 155 887 174 b 868 163 851 195 875 198 z m 899 170 b 919 153 946 182 927 200 b 908 217 881 188 899 170 z m 920 175 b 907 163 900 187 907 195 b 919 207 926 183 920 175 z m 946 191 b 956 209 951 169 952 166 l 961 166 b 959 204 969 205 966 166 l 975 166 b 975 176 977 224 961 197 b 960 209 949 205 946 197 l 946 204 l 938 204 l 938 166 l 946 166 z m 0 908 l 0 -182 l 1009 -182 l 1009 908 z m 8 -174 l 8 900 l 1001 900 l 1001 -174 z"},"r":{"x_min":0,"x_max":337,"ha":337,"o":"m 373 213 l 353 213 b 349 202 344 191 339 180 b 308 113 277 65 249 40 b 232 26 219 21 210 21 b 202 21 197 26 194 32 b 182 51 188 88 188 88 l 188 88 b 189 105 192 123 196 143 b 200 165 205 187 210 208 b 216 228 221 247 226 264 b 231 280 235 292 238 298 b 242 310 243 319 240 326 b 238 334 234 339 228 343 b 220 348 212 350 204 348 b 195 346 187 343 179 340 b 161 333 141 329 117 326 b 102 325 89 325 76 327 b 78 344 80 372 65 391 b 65 392 65 392 64 392 b 64 393 63 393 63 394 b 63 394 62 395 62 395 l 62 395 b 62 395 62 395 61 396 b 60 397 58 399 55 400 b 49 404 40 409 29 407 b 29 407 14 407 5 392 b 5 391 4 390 3 389 b 3 389 3 389 3 389 l 3 389 b 1 384 0 379 0 373 b 1 361 5 351 11 343 b 16 338 21 332 27 328 b 32 325 39 320 50 317 b 51 316 52 316 54 316 b 51 305 48 295 47 295 b 39 271 25 233 7 192 l 27 192 b 52 249 68 300 71 311 l 72 311 b 75 310 78 310 81 310 b 88 309 97 308 105 308 b 125 308 144 310 162 314 l 156 301 b 152 289 147 274 142 255 b 136 235 131 214 126 192 b 121 170 117 147 115 124 b 113 101 114 80 118 62 b 121 51 125 41 130 32 b 134 27 138 21 143 17 b 155 6 171 0 192 -1 b 194 -1 197 -1 199 0 b 205 0 211 1 216 2 b 218 3 220 4 222 4 b 223 4 224 5 224 5 b 229 7 235 9 240 12 b 242 13 243 14 243 14 l 243 14 b 296 47 342 140 373 213 z"},"2":{"x_min":0,"x_max":1067,"ha":1067,"o":"m 161 498 b 215 520 184 631 192 678 l 166 678 b 166 647 166 585 166 554 b 166 533 159 506 133 514 b 101 535 124 647 117 678 l 95 678 b 102 627 64 469 161 498 z m 271 721 l 224 721 l 224 787 l 261 787 l 261 805 l 224 805 l 224 865 l 269 865 l 269 885 l 200 885 l 200 703 l 271 703 z m 918 498 l 918 523 l 893 523 l 893 498 z m 652 557 l 601 678 l 585 678 l 585 498 l 604 498 l 604 620 l 657 498 l 675 498 l 675 678 l 652 678 z m 886 19 b 894 60 873 69 839 65 l 839 -26 b 872 -32 893 -16 886 19 z m 852 56 b 885 64 870 12 873 -4 b 870 -19 862 -19 852 -19 z m 853 -141 l 853 -50 l 842 -50 l 842 -141 z m 161 56 l 161 65 l 126 65 l 126 -26 l 140 -26 l 140 16 l 157 16 l 157 25 l 140 25 l 140 56 z m 536 56 l 536 65 l 502 65 l 502 -26 l 511 -26 l 511 16 l 530 16 l 530 25 l 511 25 l 511 56 z m 239 678 b 169 640 243 587 275 556 b 300 506 229 499 235 554 l 210 547 b 213 519 230 496 259 496 b 321 499 308 577 265 599 b 196 639 269 699 280 625 l 299 633 b 303 668 269 686 239 678 z m 968 -111 l 940 -50 l 933 -50 l 933 -141 l 940 -141 l 940 -77 l 968 -141 l 977 -141 l 977 -50 l 968 -50 z m 398 754 b 399 725 417 702 448 702 b 478 702 496 729 490 757 b 483 798 423 808 423 852 b 437 883 468 860 469 833 l 488 839 b 486 853 483 870 471 877 b 392 912 377 816 441 782 b 461 767 479 744 462 726 b 440 710 421 734 422 761 z m 604 738 b 606 775 611 823 602 859 b 587 895 519 896 511 854 b 505 818 505 778 510 740 b 513 690 597 688 604 738 z m 535 848 b 547 885 589 860 581 829 b 575 804 602 705 547 722 b 524 736 536 770 533 791 b 533 808 530 833 535 848 z m 553 654 b 542 688 473 688 463 648 b 462 600 436 497 511 496 b 556 494 562 539 558 575 b 558 598 564 630 553 654 z m 520 517 b 496 505 482 530 486 554 b 488 582 482 616 486 643 b 498 675 543 657 533 624 b 528 598 546 533 520 517 z m 652 824 l 703 703 l 719 703 l 719 885 l 697 885 l 697 763 l 648 885 l 632 885 l 632 703 l 652 703 z m 664 65 l 651 65 l 651 -26 l 686 -26 l 686 -19 l 664 -19 z m 323 498 l 393 498 l 393 514 l 347 514 l 347 581 l 383 581 l 383 599 l 347 599 l 347 658 l 393 658 l 393 678 l 323 678 z m 117 787 b 164 777 201 820 175 864 b 161 893 119 882 94 885 l 94 703 l 117 703 z m 117 865 b 140 870 163 860 159 833 b 162 807 137 804 117 805 z m 254 16 l 266 -26 l 281 -26 l 266 19 b 285 25 281 55 266 62 b 257 68 243 65 233 65 l 233 -26 l 244 -26 l 244 16 z m 244 56 b 275 62 272 20 244 25 z m 316 788 l 335 788 l 360 703 l 383 703 l 360 794 b 389 805 387 861 360 877 b 341 887 313 885 290 885 l 290 703 l 316 703 z m 316 865 b 369 877 369 794 316 805 z m 895 -50 b 867 -45 867 -69 867 -94 b 867 -112 865 -142 893 -142 b 920 -142 918 -115 918 -94 b 918 -76 921 -51 895 -50 z m 886 -130 b 876 -126 883 -96 883 -87 b 883 -75 880 -51 900 -60 b 910 -65 913 -148 886 -130 z m 929 721 l 884 721 l 884 885 l 858 885 l 858 703 l 929 703 z m 770 747 l 807 747 l 816 703 l 839 703 l 802 885 l 776 885 l 738 703 l 761 703 z m 790 848 l 804 766 l 774 766 z m 408 -77 b 393 -155 456 -163 456 -108 l 442 -108 b 447 -152 410 -130 420 -94 b 410 -58 447 -38 442 -80 l 456 -80 b 462 -41 405 -38 408 -77 z m 426 -26 l 462 -26 l 462 -19 l 440 -19 l 440 16 l 459 16 l 459 25 l 440 25 l 440 56 l 462 56 l 462 65 l 426 65 z m 482 -141 l 482 -50 l 470 -50 l 470 -141 z m 385 -52 b 375 -46 363 -50 350 -50 l 350 -141 l 364 -141 l 364 -96 l 374 -96 l 385 -141 l 397 -141 l 383 -94 b 399 -89 398 -60 385 -52 z m 364 -87 l 364 -59 b 388 -54 391 -92 364 -87 z m 413 -26 l 413 65 l 401 65 l 401 25 l 376 25 l 376 65 l 364 65 l 364 -26 l 376 -26 l 376 16 l 401 16 l 401 -26 z m 646 -117 l 632 -49 l 620 -49 b 646 -173 646 -172 672 -49 l 660 -49 z m 511 -50 l 491 -141 l 505 -141 l 510 -117 l 530 -117 l 532 -141 l 544 -141 l 524 -50 z m 511 -110 l 519 -66 l 527 -110 z m 566 -50 l 553 -50 l 553 -141 l 590 -141 l 590 -133 l 566 -133 z m 592 65 l 581 65 b 577 46 593 -14 567 -19 b 544 -13 559 46 555 65 l 544 65 b 549 39 527 -37 576 -26 b 603 -10 588 39 592 65 z m 811 -87 b 778 -68 816 -37 819 -76 b 846 -66 810 -35 793 -54 b 764 -77 814 -99 819 -120 b 818 -141 793 -128 796 -112 b 771 -112 792 -145 810 -142 b 843 -140 830 -98 811 -87 z m 641 -19 l 620 -19 l 620 65 l 606 65 l 606 -26 l 641 -26 z m 681 -141 l 718 -141 l 718 -133 l 695 -133 l 695 -96 l 714 -96 l 714 -87 l 695 -87 l 695 -59 l 718 -59 l 718 -50 l 681 -50 z m 802 678 l 779 678 b 786 652 809 587 816 562 b 818 546 816 515 816 498 l 842 498 b 834 560 862 621 881 678 l 856 678 l 829 591 z m 764 -52 b 753 -46 739 -50 728 -50 l 728 -141 l 742 -141 l 742 -96 l 750 -96 l 763 -141 l 774 -141 l 761 -95 b 776 -89 776 -60 764 -52 z m 742 -87 l 742 -59 b 766 -54 769 -92 742 -87 z m 117 -50 b 92 -45 92 -69 92 -94 b 92 -112 87 -142 117 -142 b 152 -147 155 -46 117 -50 z m 110 -130 b 98 -121 105 -88 103 -74 b 103 -63 110 -54 122 -60 b 133 -63 136 -150 110 -130 z m 702 678 l 702 498 l 771 498 l 771 514 l 726 514 l 726 678 z m 791 36 l 816 -26 l 825 -26 l 825 65 l 813 65 l 813 5 l 787 65 l 779 65 l 779 -26 l 791 -26 z m 58 -142 b 78 -142 80 -122 80 -108 l 68 -108 b 68 -155 37 -124 45 -94 b 37 -62 68 -35 68 -80 l 80 -80 b 87 -40 29 -38 32 -77 b 32 -101 25 -142 58 -142 z m 357 65 l 310 65 l 310 56 l 327 56 l 327 -26 l 341 -26 l 341 56 l 357 56 z m 200 -50 l 185 -122 l 169 -50 l 154 -50 l 154 -141 l 166 -141 l 166 -74 b 184 -165 187 -165 205 -74 l 205 -141 l 214 -141 l 213 -50 z m 196 67 b 157 76 157 -33 194 -27 b 229 -32 231 68 196 67 z m 207 16 b 207 2 207 -22 190 -18 b 172 -6 185 24 182 39 b 182 51 190 62 200 55 b 210 51 207 25 207 16 z m 304 -141 l 341 -141 l 341 -133 l 318 -133 l 318 -96 l 336 -96 l 336 -87 l 318 -87 l 318 -59 l 341 -59 l 341 -50 l 304 -50 z m 276 -50 l 259 -122 l 243 -50 l 230 -50 l 230 -141 l 239 -141 l 241 -74 l 254 -141 l 264 -141 l 280 -74 l 281 -141 l 290 -141 l 288 -50 z m 918 678 l 893 678 b 901 490 910 492 918 678 z m 728 -26 b 735 -5 727 -1 753 -3 b 753 -3 757 -26 757 -26 l 770 -26 l 751 65 l 736 65 l 718 -26 l 728 -26 z m 743 48 l 751 6 l 736 6 z m 129 356 b 121 308 205 288 201 327 b 159 300 131 362 163 388 b 175 396 185 392 201 387 b 208 422 122 407 129 356 z m 242 405 b 192 407 192 306 242 307 b 293 306 293 407 242 405 z m 257 334 b 231 286 213 372 234 389 b 263 406 262 350 257 334 z m 339 343 b 339 342 305 402 305 402 l 288 402 l 288 310 l 300 310 l 300 371 b 301 372 335 310 335 310 l 351 310 l 351 402 l 339 402 l 339 343 z m 360 390 l 388 390 l 388 310 l 406 310 l 406 390 l 434 390 l 434 402 l 360 402 z m 450 310 l 457 333 l 485 333 b 493 312 485 308 511 310 l 485 402 l 467 402 l 437 310 z m 472 380 l 482 345 l 461 345 z m 535 398 b 500 375 513 305 559 307 b 572 309 591 307 587 327 b 520 289 518 423 587 387 b 594 414 547 405 535 398 z m 637 310 l 637 390 l 665 390 l 665 402 l 591 402 l 591 390 l 619 390 l 619 310 z m 816 402 l 796 402 l 783 361 b 783 360 771 402 771 402 l 749 402 l 749 310 l 761 310 l 761 381 b 762 381 774 334 774 334 l 789 334 b 789 335 801 381 802 381 l 802 310 l 816 310 z m 889 390 l 889 402 l 832 402 l 832 310 l 893 310 l 893 322 l 850 322 l 850 352 l 883 352 l 883 364 l 850 364 l 850 390 z m 46 165 b 51 165 54 168 57 170 b 61 163 74 163 71 173 b 63 173 71 196 65 200 b 59 207 33 209 37 195 b 44 198 58 201 57 190 b 37 196 22 169 46 165 z m 46 181 b 47 183 54 183 57 183 b 62 171 37 169 46 181 z m 92 188 b 96 195 109 201 106 188 l 113 188 l 113 204 b 104 206 96 204 91 197 l 92 204 l 81 204 l 81 166 l 92 166 z m 121 166 l 156 166 l 156 174 l 134 174 b 137 178 160 197 156 204 l 122 204 l 122 197 l 142 197 b 139 192 116 174 121 166 z m 183 190 b 151 195 164 150 186 170 b 191 164 203 161 200 173 b 192 173 201 196 195 200 b 188 207 163 209 166 195 b 173 198 187 201 187 190 l 183 190 z m 187 177 b 172 164 166 187 187 183 z m 232 152 l 242 152 l 242 204 b 239 203 232 206 233 200 b 195 227 200 138 232 173 b 232 169 232 157 232 152 z m 228 176 b 215 168 213 197 225 197 b 235 198 234 180 228 176 z m 264 197 b 270 199 275 198 282 195 b 285 211 251 207 252 193 b 251 185 266 182 272 178 b 275 168 259 172 251 175 b 250 150 315 176 267 191 b 263 192 260 195 264 197 z m 309 167 b 316 164 330 163 327 175 b 310 166 312 185 312 196 l 326 196 l 326 203 l 312 203 l 312 213 l 302 213 l 302 203 l 294 203 l 294 196 l 302 196 b 303 188 298 170 309 167 z m 360 180 b 343 160 347 196 347 204 l 336 204 b 334 187 337 146 360 173 l 360 166 l 370 166 l 370 204 l 360 204 z m 415 166 l 415 221 l 404 221 b 404 218 404 203 405 200 b 368 226 373 138 405 173 l 404 166 z m 404 181 b 392 161 381 194 397 197 b 406 198 404 186 404 181 z m 425 197 l 439 197 l 439 166 l 449 166 l 449 204 l 425 204 z m 449 211 l 449 221 l 439 221 l 439 211 z m 502 185 b 504 211 461 211 463 185 b 461 159 504 159 502 185 z m 489 175 b 477 163 470 187 476 195 b 489 207 495 183 489 175 z m 543 173 l 533 173 l 533 219 l 512 217 l 512 211 l 522 211 l 522 173 l 512 173 l 512 166 l 543 166 z m 590 182 l 586 182 b 591 212 575 237 552 205 b 537 178 574 148 580 174 b 542 151 554 237 580 207 b 549 218 561 150 580 187 l 580 176 l 590 176 z m 575 186 b 565 171 564 205 576 203 b 585 204 577 189 575 186 z m 621 153 b 636 159 628 192 630 204 b 627 203 620 206 620 201 b 581 226 590 137 620 175 b 620 171 621 164 618 161 b 612 156 606 159 598 162 b 593 149 614 150 621 153 z m 620 182 b 609 163 596 195 612 197 b 620 198 620 188 620 182 z m 659 166 b 657 204 668 205 665 166 l 673 166 b 674 176 676 224 659 197 b 659 209 647 205 645 197 l 645 204 l 636 204 l 636 166 l 645 166 b 643 204 653 205 651 166 z m 699 190 b 668 195 680 150 702 170 b 707 164 720 161 717 173 b 709 173 717 196 711 200 b 705 207 679 209 683 195 b 690 198 704 201 703 190 l 699 190 z m 703 177 b 688 164 683 187 703 183 z m 750 211 l 750 221 l 740 221 l 740 211 z m 726 197 l 740 197 l 740 166 l 750 166 l 750 204 l 726 204 z m 790 166 l 790 221 l 766 221 l 766 214 l 780 214 l 780 166 z m 833 166 l 833 178 l 821 178 l 821 166 z m 875 198 b 879 198 883 197 887 196 b 889 215 848 204 852 185 b 848 166 889 155 887 174 b 868 163 851 195 875 198 z m 899 170 b 919 153 946 182 927 200 b 908 217 881 188 899 170 z m 920 175 b 907 163 900 187 907 195 b 919 207 926 183 920 175 z m 946 191 b 956 209 951 169 952 166 l 961 166 b 959 204 969 205 966 166 l 975 166 b 975 176 977 224 961 197 b 960 209 949 205 946 197 l 946 204 l 938 204 l 938 166 l 946 166 z m 0 908 l 0 -182 l 1009 -182 l 1009 908 z m 8 -174 l 8 900 l 1001 900 l 1001 -174 z"},"{":{"x_min":0,"x_max":252,"ha":252,"o":"m 229 407 b 197 405 171 396 151 382 b 128 365 112 341 103 308 b 100 294 98 279 97 263 b 96 246 95 234 93 229 b 90 218 84 209 75 202 b 68 196 58 193 47 192 b 43 191 38 187 36 183 b 33 177 36 171 41 170 b 52 169 59 166 64 160 b 69 153 71 144 68 133 b 66 128 61 116 53 99 b 45 83 39 67 35 54 b 26 20 29 -5 43 -22 b 55 -36 77 -45 107 -47 b 113 -47 118 -43 120 -38 b 121 -33 118 -29 114 -29 b 98 -27 86 -21 78 -11 b 68 1 67 21 75 50 b 78 61 83 75 91 91 b 98 108 103 119 105 126 b 108 140 107 151 102 160 b 96 168 88 175 79 179 l 80 183 b 92 187 103 194 113 202 b 124 211 131 222 134 236 b 136 243 138 254 139 271 b 140 287 142 301 145 312 b 152 339 164 359 180 371 b 193 381 209 386 226 388 b 231 389 235 393 236 398 b 238 403 234 407 229 407 z"},"9":{"x_min":0,"x_max":305,"ha":305,"o":"m 238 308 b 226 331 204 343 170 343 b 151 343 134 340 118 334 b 102 329 88 321 76 311 b 64 302 54 290 46 277 b 38 264 31 251 28 236 b 22 217 21 200 24 186 b 26 171 33 160 44 152 b 54 144 69 140 87 140 b 102 140 117 143 131 147 b 145 152 161 159 177 168 l 179 167 b 167 136 153 110 138 91 b 123 71 106 56 86 46 b 79 43 72 40 64 37 b 63 37 63 37 63 37 b 58 36 37 30 22 34 b 14 36 3 29 1 20 b -2 12 3 5 11 5 b 23 5 42 6 66 14 b 84 18 101 26 117 35 b 145 52 169 74 190 104 b 211 133 227 168 237 208 b 249 251 249 285 238 308 z m 195 219 b 193 211 191 206 189 203 b 188 199 186 197 185 195 b 183 193 181 191 179 190 b 174 186 169 183 163 180 b 157 176 151 174 145 172 b 140 170 134 168 128 167 b 122 166 116 166 110 166 b 92 166 80 172 74 185 b 68 199 68 217 74 241 b 77 253 81 263 86 273 b 91 283 98 292 105 299 b 112 306 120 312 130 316 b 139 320 150 323 162 323 b 175 323 185 319 192 311 b 199 303 203 291 203 275 b 203 260 201 241 195 219 z"}," ":{"x_min":0,"x_max":235,"ha":235,"o":""},"I":{"x_min":0,"x_max":687,"ha":687,"o":"m 882 789 l 882 790 b 882 790 882 790 882 790 b 881 790 880 790 879 790 b 878 790 876 790 875 790 l 876 790 b 876 790 675 801 503 725 b 468 710 435 691 405 668 b 403 667 400 665 398 663 b 398 663 398 663 398 663 l 398 663 b 366 638 338 609 316 575 b 310 576 303 576 297 575 b -34 559 -105 95 169 11 l 169 11 b 169 11 220 -8 298 0 l 298 0 b 371 8 430 38 479 83 l 480 84 l 488 92 b 503 107 518 124 531 142 b 564 183 591 230 612 281 b 612 281 612 281 612 281 l 617 293 b 631 329 643 366 652 404 b 671 474 689 544 711 603 b 722 635 735 664 750 688 b 750 688 750 688 751 689 b 775 731 805 752 805 752 l 805 752 b 814 758 823 763 833 768 b 847 774 863 778 880 780 l 881 780 b 883 781 884 782 885 784 b 885 786 884 788 882 789 z m 311 433 b 311 445 313 456 315 468 b 315 471 316 474 316 477 b 317 480 318 482 318 485 b 319 488 320 491 321 494 b 322 497 323 500 323 502 b 323 502 330 526 349 560 b 355 558 361 557 367 555 b 370 554 373 553 375 552 b 375 551 375 551 376 551 b 376 551 376 551 377 551 b 377 551 377 551 377 551 b 377 551 377 551 378 550 b 459 513 479 409 452 321 b 452 321 452 321 451 321 b 440 317 428 316 415 316 b 403 316 391 319 380 323 b 378 323 377 324 375 324 b 374 325 372 325 371 326 b 368 327 366 328 363 330 b 358 333 353 336 348 340 b 339 348 332 357 326 367 b 320 377 316 387 314 399 b 312 410 311 421 311 433 z m 748 746 l 729 732 b 646 664 597 545 564 422 b 554 384 544 345 533 305 l 531 296 l 530 294 b 520 260 510 227 497 196 l 497 196 b 497 196 464 98 393 51 l 393 51 b 363 30 326 17 282 15 b 278 15 274 14 270 14 b 267 14 263 14 260 14 l 260 14 b 219 14 187 25 187 25 l 188 25 b 187 25 186 25 184 26 b 184 26 184 26 184 26 l 184 26 b -67 103 39 554 296 565 b 301 565 306 565 311 565 b 308 561 306 557 304 553 b 300 547 297 540 294 534 b 292 528 289 521 287 514 b 286 511 285 508 284 504 b 283 501 282 498 281 494 b 280 491 280 488 279 484 b 278 481 278 477 277 474 b 276 467 276 460 276 453 b 275 446 275 439 276 432 b 277 418 280 404 285 390 b 289 377 297 364 305 352 b 314 341 325 332 337 325 b 343 321 350 318 356 315 b 359 314 362 313 366 312 b 369 311 372 310 375 309 b 388 305 402 303 415 303 b 426 303 437 305 447 308 b 422 240 369 185 294 181 b 267 180 246 185 228 195 l 228 195 b 228 195 228 195 228 195 b 227 195 227 196 226 196 b 225 197 225 197 225 197 b 224 197 223 198 222 199 b 222 199 222 199 222 199 b 215 203 209 209 203 216 b 203 216 203 216 203 216 b 190 232 185 248 185 248 b 172 286 177 332 197 375 b 203 386 200 398 189 403 l 189 404 b 184 406 180 406 176 406 b 169 406 162 401 158 395 b 120 325 130 244 179 198 b 179 197 179 197 179 197 b 184 192 192 186 201 180 b 201 180 201 181 201 181 b 225 166 255 157 291 159 b 383 163 444 234 467 315 b 475 319 483 324 490 330 b 501 338 510 347 519 358 b 527 368 534 379 540 391 b 546 403 551 415 555 428 b 556 434 558 441 559 447 b 560 454 560 460 560 467 b 561 480 560 493 558 507 b 555 520 551 533 544 546 b 537 558 527 569 516 578 b 510 583 504 587 497 590 b 490 593 483 596 476 598 b 469 600 462 602 454 603 b 450 603 446 603 443 603 b 439 603 435 603 431 602 b 422 600 415 591 415 581 b 415 569 425 560 437 560 l 438 560 b 440 560 443 561 445 561 b 448 562 451 562 453 562 b 458 563 464 563 469 563 b 480 562 491 560 502 555 b 512 551 522 544 529 535 b 537 527 543 516 547 504 b 550 492 552 480 551 467 b 551 461 550 455 550 448 b 549 442 547 436 546 430 b 539 406 527 383 511 364 b 500 350 486 338 471 330 b 492 422 464 525 379 562 l 379 562 b 379 562 370 567 356 570 b 376 603 409 642 458 677 b 480 693 608 774 825 781 b 797 774 772 762 748 746 z"},"H":{"x_min":0,"x_max":1008,"ha":1008,"o":"m 1152 789 b 962 779 909 600 868 416 l 692 410 b 709 475 726 538 747 594 b 759 627 773 657 789 683 b 789 683 789 683 789 683 b 814 728 846 750 846 750 l 846 750 b 855 756 865 762 875 767 b 890 773 907 778 925 779 l 925 780 b 927 780 929 782 930 784 b 930 786 929 788 927 789 l 927 790 b 927 790 927 790 927 790 b 926 790 925 790 924 790 b 922 790 921 790 919 790 l 920 790 b 920 790 710 801 529 722 b 492 706 457 686 426 662 b 423 660 421 658 418 656 b 418 656 418 656 418 656 l 418 656 b 385 630 356 600 333 564 b 326 565 319 565 312 564 b -36 547 -110 60 177 -28 l 177 -28 b 177 -28 231 -49 313 -40 l 313 -40 b 389 -32 452 0 503 47 l 504 48 l 512 56 b 529 72 544 90 558 109 b 593 152 620 202 643 255 b 643 255 643 255 643 255 l 648 268 b 663 305 675 345 686 384 b 687 389 688 394 689 399 l 866 405 b 846 314 828 221 799 148 b 766 69 727 15 666 10 b 663 10 661 7 661 4 b 661 1 663 -1 666 -1 b 869 11 924 247 956 409 l 991 410 b 994 410 997 413 997 415 b 997 419 994 421 991 421 l 958 420 b 992 599 1018 769 1153 780 b 1156 780 1158 782 1158 784 b 1158 787 1155 790 1152 789 z m 481 671 b 505 688 638 774 867 781 b 837 773 811 761 786 744 l 766 729 b 679 658 629 534 593 406 l 585 406 l 582 405 b 582 407 582 408 583 409 b 585 416 586 423 587 430 b 588 437 589 443 589 450 b 589 464 589 478 586 492 b 584 506 579 520 572 533 b 564 546 554 558 542 567 b 536 572 529 576 522 580 b 515 583 508 586 500 588 b 493 591 485 592 477 593 b 473 593 469 594 465 594 b 461 594 457 594 453 593 b 443 590 436 581 436 571 b 436 558 446 548 459 548 l 460 548 b 463 548 465 549 468 550 b 471 550 473 551 476 551 b 482 551 487 551 493 551 b 505 550 516 548 527 543 b 538 538 548 532 556 522 b 564 513 571 502 574 489 b 578 477 580 464 579 451 b 579 444 578 438 578 431 b 577 425 575 418 573 412 b 573 410 572 407 571 405 l 552 404 b 549 404 547 402 547 399 b 547 396 550 393 552 394 l 567 394 b 560 375 550 358 537 342 b 525 328 511 315 495 306 b 516 404 487 512 398 550 l 398 550 b 398 550 388 555 374 559 b 396 593 429 635 481 671 z m 327 415 b 327 427 328 439 331 452 b 331 455 332 458 333 461 b 333 464 334 467 335 470 b 335 473 336 476 337 479 b 338 482 339 485 340 488 b 340 488 347 513 367 548 b 373 547 380 545 386 543 b 389 542 392 541 394 539 b 394 539 395 539 395 539 b 395 539 395 539 396 539 b 396 539 396 539 396 538 b 396 538 397 538 397 538 b 483 499 503 390 475 297 b 475 297 475 297 474 297 b 462 293 449 292 437 292 b 424 292 411 295 399 299 b 397 299 396 300 394 300 b 393 301 391 301 390 302 b 387 303 384 305 381 307 b 376 310 371 313 366 317 b 356 325 348 335 342 345 b 336 356 332 367 330 379 b 328 391 327 403 327 415 z m 558 271 l 557 268 b 547 233 536 199 522 166 l 522 166 b 522 166 487 63 413 13 l 413 13 b 381 -9 343 -22 296 -25 b 292 -25 288 -25 284 -25 b 280 -25 276 -25 273 -25 l 273 -25 b 230 -26 197 -14 197 -14 l 197 -14 b 196 -14 195 -13 194 -13 b 193 -13 193 -13 193 -13 l 193 -13 b -70 69 41 542 311 553 b 316 554 321 554 326 554 b 324 549 321 545 319 541 b 315 534 312 528 309 521 b 306 514 304 507 301 500 b 300 497 299 493 298 490 b 297 486 296 483 296 479 b 295 476 294 472 293 469 b 293 465 292 461 291 458 b 290 451 290 443 289 436 b 289 428 289 421 290 414 b 291 399 294 384 299 370 b 304 355 312 342 321 330 b 330 318 342 308 354 301 b 361 297 367 294 374 291 b 377 290 381 289 384 288 b 388 286 391 285 394 284 b 408 280 422 278 436 278 b 448 278 459 280 470 283 b 444 212 387 154 308 150 b 281 149 258 154 240 165 l 240 165 b 240 165 240 165 240 165 b 239 165 238 166 237 166 b 237 166 237 167 236 167 b 235 167 235 168 234 168 b 234 168 234 168 234 168 b 226 174 219 180 214 187 b 214 187 214 187 214 187 b 200 204 195 221 195 221 b 181 260 186 309 207 354 b 214 366 210 378 199 383 l 198 384 b 194 386 189 387 185 387 b 178 386 170 382 166 375 b 126 301 137 216 188 167 b 188 167 188 167 188 167 b 194 162 201 155 211 149 b 211 149 211 150 211 150 b 237 134 268 125 305 127 b 403 132 467 205 491 291 b 500 295 508 300 515 306 b 527 315 536 325 545 336 b 554 346 561 358 568 371 b 571 378 575 386 578 395 l 583 395 l 590 395 b 581 358 571 319 560 280 z"},"4":{"x_min":0,"x_max":1068,"ha":1068,"o":"m 161 498 b 215 520 184 631 192 678 l 166 678 b 166 647 166 585 166 554 b 166 533 159 506 133 514 b 101 535 124 647 117 678 l 95 678 b 102 627 64 469 161 498 z m 271 721 l 224 721 l 224 787 l 261 787 l 261 805 l 224 805 l 224 865 l 269 865 l 269 885 l 200 885 l 200 703 l 271 703 z m 918 498 l 918 523 l 893 523 l 893 498 z m 652 557 l 601 678 l 585 678 l 585 498 l 604 498 l 604 620 l 657 498 l 675 498 l 675 678 l 652 678 z m 886 19 b 894 60 873 69 839 65 l 839 -26 b 872 -32 893 -16 886 19 z m 852 56 b 885 64 870 12 873 -4 b 870 -19 862 -19 852 -19 z m 853 -141 l 853 -50 l 842 -50 l 842 -141 z m 161 56 l 161 65 l 126 65 l 126 -26 l 140 -26 l 140 16 l 157 16 l 157 25 l 140 25 l 140 56 z m 536 56 l 536 65 l 502 65 l 502 -26 l 511 -26 l 511 16 l 530 16 l 530 25 l 511 25 l 511 56 z m 239 678 b 169 640 243 587 275 556 b 300 506 229 499 235 554 l 210 547 b 213 519 230 496 259 496 b 321 499 308 577 265 599 b 196 639 269 699 280 625 l 299 633 b 303 668 269 686 239 678 z m 968 -111 l 940 -50 l 933 -50 l 933 -141 l 940 -141 l 940 -77 l 968 -141 l 977 -141 l 977 -50 l 968 -50 z m 398 754 b 399 725 417 702 448 702 b 478 702 496 729 490 757 b 483 798 423 808 423 852 b 437 883 468 860 469 833 l 488 839 b 486 853 483 870 471 877 b 392 912 377 816 441 782 b 461 767 479 744 462 726 b 440 710 421 734 422 761 z m 604 738 b 606 775 611 823 602 859 b 587 895 519 896 511 854 b 505 818 505 778 510 740 b 513 690 597 688 604 738 z m 535 848 b 547 885 589 860 581 829 b 575 804 602 705 547 722 b 524 736 536 770 533 791 b 533 808 530 833 535 848 z m 553 654 b 542 688 473 688 463 648 b 462 600 436 497 511 496 b 556 494 562 539 558 575 b 558 598 564 630 553 654 z m 520 517 b 496 505 482 530 486 554 b 488 582 482 616 486 643 b 498 675 543 657 533 624 b 528 598 546 533 520 517 z m 652 824 l 703 703 l 719 703 l 719 885 l 697 885 l 697 763 l 648 885 l 632 885 l 632 703 l 652 703 z m 664 65 l 651 65 l 651 -26 l 686 -26 l 686 -19 l 664 -19 z m 323 498 l 393 498 l 393 514 l 347 514 l 347 581 l 383 581 l 383 599 l 347 599 l 347 658 l 393 658 l 393 678 l 323 678 z m 117 787 b 164 777 201 820 175 864 b 161 893 119 882 94 885 l 94 703 l 117 703 z m 117 865 b 140 870 163 860 159 833 b 162 807 137 804 117 805 z m 254 16 l 266 -26 l 281 -26 l 266 19 b 285 25 281 55 266 62 b 257 68 243 65 233 65 l 233 -26 l 244 -26 l 244 16 z m 244 56 b 275 62 272 20 244 25 z m 316 788 l 335 788 l 360 703 l 383 703 l 360 794 b 389 805 387 861 360 877 b 341 887 313 885 290 885 l 290 703 l 316 703 z m 316 865 b 369 877 369 794 316 805 z m 895 -50 b 867 -45 867 -69 867 -94 b 867 -112 865 -142 893 -142 b 920 -142 918 -115 918 -94 b 918 -76 921 -51 895 -50 z m 886 -130 b 876 -126 883 -96 883 -87 b 883 -75 880 -51 900 -60 b 910 -65 913 -148 886 -130 z m 929 721 l 884 721 l 884 885 l 858 885 l 858 703 l 929 703 z m 770 747 l 807 747 l 816 703 l 839 703 l 802 885 l 776 885 l 738 703 l 761 703 z m 790 848 l 804 766 l 774 766 z m 408 -77 b 393 -155 456 -163 456 -108 l 442 -108 b 447 -152 410 -130 420 -94 b 410 -58 447 -38 442 -80 l 456 -80 b 462 -41 405 -38 408 -77 z m 426 -26 l 462 -26 l 462 -19 l 440 -19 l 440 16 l 459 16 l 459 25 l 440 25 l 440 56 l 462 56 l 462 65 l 426 65 z m 482 -141 l 482 -50 l 470 -50 l 470 -141 z m 385 -52 b 375 -46 363 -50 350 -50 l 350 -141 l 364 -141 l 364 -96 l 374 -96 l 385 -141 l 397 -141 l 383 -94 b 399 -89 398 -60 385 -52 z m 364 -87 l 364 -59 b 388 -54 391 -92 364 -87 z m 413 -26 l 413 65 l 401 65 l 401 25 l 376 25 l 376 65 l 364 65 l 364 -26 l 376 -26 l 376 16 l 401 16 l 401 -26 z m 646 -117 l 632 -49 l 620 -49 b 646 -173 646 -172 672 -49 l 660 -49 z m 511 -50 l 491 -141 l 505 -141 l 510 -117 l 530 -117 l 532 -141 l 544 -141 l 524 -50 z m 511 -110 l 519 -66 l 527 -110 z m 566 -50 l 553 -50 l 553 -141 l 590 -141 l 590 -133 l 566 -133 z m 592 65 l 581 65 b 577 46 593 -14 567 -19 b 544 -13 559 46 555 65 l 544 65 b 549 39 527 -37 576 -26 b 603 -10 588 39 592 65 z m 811 -87 b 778 -68 816 -37 819 -76 b 846 -66 810 -35 793 -54 b 764 -77 814 -99 819 -120 b 818 -141 793 -128 796 -112 b 771 -112 792 -145 810 -142 b 843 -140 830 -98 811 -87 z m 641 -19 l 620 -19 l 620 65 l 606 65 l 606 -26 l 641 -26 z m 681 -141 l 718 -141 l 718 -133 l 695 -133 l 695 -96 l 714 -96 l 714 -87 l 695 -87 l 695 -59 l 718 -59 l 718 -50 l 681 -50 z m 802 678 l 779 678 b 786 652 809 587 816 562 b 818 546 816 515 816 498 l 842 498 b 834 560 862 621 881 678 l 856 678 l 829 591 z m 764 -52 b 753 -46 739 -50 728 -50 l 728 -141 l 742 -141 l 742 -96 l 750 -96 l 763 -141 l 774 -141 l 761 -95 b 776 -89 776 -60 764 -52 z m 742 -87 l 742 -59 b 766 -54 769 -92 742 -87 z m 117 -50 b 92 -45 92 -69 92 -94 b 92 -112 87 -142 117 -142 b 152 -147 155 -46 117 -50 z m 110 -130 b 98 -121 105 -88 103 -74 b 103 -63 110 -54 122 -60 b 133 -63 136 -150 110 -130 z m 702 678 l 702 498 l 771 498 l 771 514 l 726 514 l 726 678 z m 791 36 l 816 -26 l 825 -26 l 825 65 l 813 65 l 813 5 l 787 65 l 779 65 l 779 -26 l 791 -26 z m 58 -142 b 78 -142 80 -122 80 -108 l 68 -108 b 68 -155 37 -124 45 -94 b 37 -62 68 -35 68 -80 l 80 -80 b 87 -40 29 -38 32 -77 b 32 -101 25 -142 58 -142 z m 357 65 l 310 65 l 310 56 l 327 56 l 327 -26 l 341 -26 l 341 56 l 357 56 z m 200 -50 l 185 -122 l 169 -50 l 154 -50 l 154 -141 l 166 -141 l 166 -74 b 184 -165 187 -165 205 -74 l 205 -141 l 214 -141 l 213 -50 z m 196 67 b 157 76 157 -33 194 -27 b 229 -32 231 68 196 67 z m 207 16 b 207 2 207 -22 190 -18 b 172 -6 185 24 182 39 b 182 51 190 62 200 55 b 210 51 207 25 207 16 z m 304 -141 l 341 -141 l 341 -133 l 318 -133 l 318 -96 l 336 -96 l 336 -87 l 318 -87 l 318 -59 l 341 -59 l 341 -50 l 304 -50 z m 276 -50 l 259 -122 l 243 -50 l 230 -50 l 230 -141 l 239 -141 l 241 -74 l 254 -141 l 264 -141 l 280 -74 l 281 -141 l 290 -141 l 288 -50 z m 918 678 l 893 678 b 901 490 910 492 918 678 z m 728 -26 b 735 -5 727 -1 753 -3 b 753 -3 757 -26 757 -26 l 770 -26 l 751 65 l 736 65 l 718 -26 l 728 -26 z m 743 48 l 751 6 l 736 6 z m 129 356 b 121 308 205 288 201 327 b 159 300 131 362 163 388 b 175 396 185 392 201 387 b 208 422 122 407 129 356 z m 242 405 b 192 407 192 306 242 307 b 293 306 293 407 242 405 z m 257 334 b 231 286 213 372 234 389 b 263 406 262 350 257 334 z m 339 343 b 339 342 305 402 305 402 l 288 402 l 288 310 l 300 310 l 300 371 b 301 372 335 310 335 310 l 351 310 l 351 402 l 339 402 l 339 343 z m 360 390 l 388 390 l 388 310 l 406 310 l 406 390 l 434 390 l 434 402 l 360 402 z m 450 310 l 457 333 l 485 333 b 493 312 485 308 511 310 l 485 402 l 467 402 l 437 310 z m 472 380 l 482 345 l 461 345 z m 535 398 b 500 375 513 305 559 307 b 572 309 591 307 587 327 b 520 289 518 423 587 387 b 594 414 547 405 535 398 z m 638 310 l 638 390 l 665 390 l 665 402 l 591 402 l 591 390 l 619 390 l 619 310 z m 816 402 l 796 402 l 783 361 b 783 360 771 402 771 402 l 749 402 l 749 310 l 761 310 l 761 381 b 762 381 774 334 774 334 l 789 334 b 789 335 801 381 802 381 l 802 310 l 816 310 z m 889 390 l 889 402 l 832 402 l 832 310 l 893 310 l 893 322 l 850 322 l 850 352 l 883 352 l 883 364 l 850 364 l 850 390 z m 46 165 b 51 165 54 168 57 170 b 61 163 74 163 71 173 b 63 173 71 196 65 200 b 59 207 33 209 37 195 b 44 198 58 201 57 190 b 37 196 22 169 46 165 z m 46 181 b 47 183 54 183 57 183 b 62 171 37 169 46 181 z m 92 188 b 96 195 109 201 106 188 l 113 188 l 113 204 b 104 206 96 204 91 197 l 92 204 l 81 204 l 81 166 l 92 166 z m 121 166 l 156 166 l 156 174 l 134 174 b 137 178 160 197 156 204 l 122 204 l 122 197 l 142 197 b 139 192 116 174 121 166 z m 183 190 b 151 195 164 150 186 170 b 191 164 203 161 200 173 b 192 173 201 196 195 200 b 188 207 163 209 166 195 b 173 198 188 201 187 190 l 183 190 z m 187 177 b 172 164 166 187 187 183 z m 232 152 l 242 152 l 242 204 b 239 203 232 206 233 200 b 195 227 200 138 232 173 b 232 169 232 157 232 152 z m 228 176 b 215 168 213 197 225 197 b 235 198 234 180 228 176 z m 264 197 b 270 199 275 198 282 195 b 285 211 251 207 252 193 b 251 185 266 182 272 178 b 275 168 259 172 251 175 b 250 150 315 176 267 191 b 263 192 260 195 264 197 z m 309 167 b 316 164 330 163 327 175 b 310 166 312 185 312 196 l 326 196 l 326 203 l 312 203 l 312 213 l 302 213 l 302 203 l 294 203 l 294 196 l 302 196 b 303 188 298 170 309 167 z m 360 180 b 343 160 347 196 347 204 l 336 204 b 334 187 337 146 360 173 l 360 166 l 370 166 l 370 204 l 360 204 z m 415 166 l 415 221 l 404 221 b 404 218 404 203 405 200 b 368 226 373 138 405 173 l 404 166 z m 404 181 b 392 161 381 194 397 197 b 406 198 404 186 404 181 z m 425 197 l 439 197 l 439 166 l 449 166 l 449 204 l 425 204 z m 449 211 l 449 221 l 439 221 l 439 211 z m 502 185 b 504 211 461 211 463 185 b 461 159 504 159 502 185 z m 489 175 b 477 163 470 187 476 195 b 489 207 495 183 489 175 z m 543 173 l 533 173 l 533 219 l 512 217 l 512 211 l 522 211 l 522 173 l 512 173 l 512 166 l 543 166 z m 590 182 l 586 182 b 591 212 575 237 552 205 b 537 178 574 148 580 174 b 542 151 554 237 580 207 b 549 218 561 150 580 187 l 580 176 l 590 176 z m 575 186 b 565 171 564 205 576 203 b 585 204 577 189 575 186 z m 621 153 b 636 159 628 192 630 204 b 627 203 620 206 620 201 b 581 226 590 137 620 175 b 620 171 621 164 618 161 b 612 156 606 159 598 162 b 593 149 614 150 621 153 z m 620 182 b 609 163 596 195 612 197 b 620 198 620 188 620 182 z m 659 166 b 657 204 668 205 665 166 l 673 166 b 674 176 676 224 659 197 b 659 209 647 205 645 197 l 645 204 l 636 204 l 636 166 l 645 166 b 643 204 653 205 651 166 z m 699 190 b 668 195 680 150 702 170 b 707 164 720 161 717 173 b 709 173 717 196 711 200 b 705 207 679 209 683 195 b 690 198 704 201 703 190 l 699 190 z m 703 177 b 688 164 683 187 703 183 z m 750 211 l 750 221 l 740 221 l 740 211 z m 726 197 l 740 197 l 740 166 l 750 166 l 750 204 l 726 204 z m 790 166 l 790 221 l 766 221 l 766 214 l 780 214 l 780 166 z m 833 166 l 833 178 l 821 178 l 821 166 z m 875 198 b 879 198 883 197 887 196 b 889 215 848 204 852 185 b 848 166 889 155 887 174 b 868 163 851 195 875 198 z m 899 170 b 919 153 946 182 927 200 b 908 217 881 188 899 170 z m 920 175 b 907 163 900 187 907 195 b 919 207 926 183 920 175 z m 946 191 b 956 209 951 169 952 166 l 961 166 b 959 204 969 205 966 166 l 975 166 b 975 176 977 224 961 197 b 960 209 949 205 946 197 l 946 204 l 938 204 l 938 166 l 946 166 z m 0 908 l 0 -182 l 1009 -182 l 1009 908 z m 8 -174 l 8 900 l 1001 900 l 1001 -174 z"},"~":{"x_min":0,"x_max":357,"ha":357,"o":"m 322 203 l 321 204 b 317 208 310 206 305 201 b 295 191 285 183 277 177 b 266 170 254 166 240 166 b 226 166 209 175 187 191 b 165 208 144 217 125 217 b 107 217 89 210 73 198 b 59 187 46 175 35 160 b 31 155 31 149 35 146 b 40 143 47 145 51 150 b 59 159 67 167 75 172 b 86 180 97 183 109 183 b 123 183 140 175 162 158 b 184 142 205 133 225 133 b 246 133 266 140 285 155 b 300 166 312 177 322 189 b 326 194 326 200 322 203 z"},"D":{"x_min":0,"x_max":1049,"ha":1049,"o":"m 828 734 l 835 741 b 847 751 861 760 875 767 b 890 773 907 778 925 779 l 925 780 b 927 780 929 782 930 784 b 930 786 929 788 927 789 l 927 790 b 927 790 927 790 927 790 b 926 790 925 790 924 790 b 870 786 826 770 786 744 b 786 744 785 745 784 745 b 773 747 762 749 750 750 b 727 753 704 754 681 754 b 658 753 635 751 613 747 b 601 745 590 742 579 739 b 568 736 557 732 546 728 b 503 712 462 690 426 662 b 390 635 357 602 333 564 b 326 565 319 565 312 564 b -36 547 -110 60 177 -28 l 177 -28 b 177 -28 231 -49 313 -40 l 313 -40 b 389 -32 452 0 503 47 l 504 48 b 506 46 507 45 509 43 b 517 37 531 27 551 19 b 571 10 592 5 613 1 b 614 1 614 1 615 1 b 617 1 618 1 620 0 b 621 0 623 0 624 0 b 640 -2 655 -2 671 -1 b 823 8 958 146 998 333 b 1035 506 987 683 828 734 z m 327 415 b 327 427 328 439 331 452 b 331 455 332 458 333 461 b 333 464 334 467 335 470 b 335 473 336 476 337 479 b 338 482 339 485 340 488 b 340 488 347 513 367 548 b 373 547 380 545 386 543 b 389 542 392 541 394 539 b 394 539 395 539 395 539 b 395 539 395 539 396 539 b 396 539 396 539 396 538 b 396 538 397 538 397 538 b 483 499 503 390 475 298 b 475 297 475 297 474 297 b 462 293 449 292 437 292 b 424 292 411 295 399 299 b 397 299 396 300 394 300 b 393 301 391 302 390 302 b 387 304 384 305 381 307 b 376 310 371 313 366 317 b 356 325 348 335 342 345 b 336 356 332 367 330 379 b 328 391 327 403 327 415 z m 475 76 b 434 18 378 -21 296 -25 b 292 -25 288 -25 284 -25 b 280 -25 276 -25 273 -25 l 273 -25 b 230 -26 197 -14 197 -14 l 197 -14 b 196 -14 195 -13 194 -13 b 193 -13 193 -13 193 -13 l 193 -13 b -70 69 41 542 311 553 b 316 554 321 554 326 554 b 324 549 321 545 319 541 b 315 534 312 528 309 521 b 306 514 304 507 301 500 b 300 497 299 493 298 490 b 297 486 296 483 296 479 b 295 476 294 472 293 469 b 293 465 292 461 291 458 b 290 451 290 443 290 436 b 289 428 289 421 290 414 b 291 399 294 384 299 370 b 304 355 312 342 321 330 b 330 318 342 308 354 301 b 361 297 367 294 374 291 b 377 290 381 289 384 288 b 388 286 391 285 394 284 b 408 280 422 278 436 278 b 448 278 459 280 470 283 b 444 212 387 154 308 150 b 281 149 258 154 240 165 l 240 165 b 240 165 240 165 240 165 b 239 165 238 166 237 166 b 237 166 237 167 236 167 b 235 167 235 168 234 168 b 234 168 234 168 234 168 b 226 174 219 180 214 187 b 214 187 214 187 214 187 b 200 204 195 221 195 221 b 181 260 186 309 207 354 b 214 366 210 378 199 383 l 198 384 b 194 386 189 387 185 387 b 178 386 170 382 166 375 b 126 301 137 216 188 167 b 188 167 188 167 188 167 b 194 162 201 155 211 149 b 211 149 211 150 211 150 b 237 134 268 125 305 127 b 403 132 467 205 491 291 b 500 295 508 300 515 306 b 527 315 536 325 545 336 b 554 346 561 358 568 371 b 574 383 579 396 583 409 b 585 416 586 423 587 430 b 588 437 589 443 589 450 b 589 464 589 478 586 492 b 584 506 579 520 572 533 b 564 546 554 558 542 567 b 536 572 529 576 522 580 b 515 583 508 586 500 588 b 493 591 485 592 477 593 b 473 593 469 594 465 594 b 461 594 457 594 453 593 b 443 590 436 581 436 571 b 436 558 446 548 459 548 l 460 548 b 463 548 465 549 468 550 b 471 550 473 551 476 551 b 482 551 487 551 493 551 b 505 550 516 548 527 543 b 538 538 548 532 556 522 b 564 513 571 502 574 489 b 578 477 580 464 579 451 b 579 444 578 438 578 431 b 577 425 575 418 573 412 b 566 386 554 362 537 342 b 525 328 511 315 495 306 b 516 404 487 512 398 550 l 398 550 b 398 550 388 555 374 559 b 400 600 443 651 512 692 l 512 692 b 537 707 565 720 595 727 b 595 727 596 727 596 728 b 643 741 701 745 766 729 b 678 657 628 532 593 403 b 582 364 572 322 560 280 b 549 278 537 275 527 269 b 514 263 503 254 493 244 b 484 233 476 221 471 208 b 465 195 462 182 460 168 b 459 154 459 140 462 126 b 464 112 469 98 475 86 b 476 85 477 84 477 82 b 477 82 477 82 477 82 b 477 82 478 81 478 81 z m 495 109 b 492 103 488 97 483 91 b 471 114 465 141 468 167 b 470 193 481 219 499 239 b 503 243 508 248 513 252 b 519 256 524 259 530 262 b 539 266 548 269 558 271 l 557 268 b 541 212 522 156 495 109 z m 919 335 b 873 163 772 28 641 20 b 640 20 639 20 637 20 b 565 19 523 48 512 56 b 529 72 544 90 558 109 b 593 152 621 202 643 255 b 643 255 643 255 643 255 b 654 248 663 239 669 229 b 676 218 679 206 680 194 b 682 182 680 169 676 158 b 672 146 666 136 658 128 b 654 124 650 121 645 118 b 640 115 636 113 631 112 b 626 111 620 110 615 110 b 610 110 605 111 599 111 l 599 112 b 589 112 580 106 578 96 b 576 85 582 75 593 72 b 601 71 610 71 618 72 b 626 73 635 75 643 78 b 658 85 672 96 681 109 b 691 122 697 136 700 151 b 703 166 703 182 700 197 b 699 204 697 211 694 218 b 691 225 687 232 683 238 b 679 244 674 249 668 254 b 662 259 656 263 650 267 b 649 267 649 268 648 268 b 663 305 675 345 686 384 b 705 458 724 531 747 594 b 765 642 786 685 812 717 b 940 663 961 496 919 335 z"},"^":{"x_min":0,"x_max":238,"ha":238,"o":"m 68 176 l 118 301 l 170 176 b 173 169 180 164 187 164 b 201 164 210 178 204 191 l 135 348 l 102 348 l 33 191 b 27 178 36 164 50 164 b 58 164 65 169 68 176 z"},"0":{"x_min":0,"x_max":1068,"ha":1068,"o":"m 161 498 b 215 520 184 631 192 678 l 166 678 b 166 647 166 585 166 554 b 166 533 159 506 133 514 b 101 535 124 647 117 678 l 95 678 b 102 627 64 469 161 498 z m 271 721 l 224 721 l 224 787 l 261 787 l 261 805 l 224 805 l 224 865 l 269 865 l 269 885 l 200 885 l 200 703 l 271 703 z m 918 498 l 918 523 l 893 523 l 893 498 z m 652 557 l 601 678 l 585 678 l 585 498 l 604 498 l 604 620 l 657 498 l 675 498 l 675 678 l 652 678 z m 886 19 b 894 60 873 69 839 65 l 839 -26 b 872 -32 893 -16 886 19 z m 852 56 b 885 64 870 12 873 -4 b 870 -19 862 -19 852 -19 z m 853 -141 l 853 -50 l 842 -50 l 842 -141 z m 161 56 l 161 65 l 126 65 l 126 -26 l 140 -26 l 140 16 l 157 16 l 157 25 l 140 25 l 140 56 z m 536 56 l 536 65 l 502 65 l 502 -26 l 511 -26 l 511 16 l 530 16 l 530 25 l 511 25 l 511 56 z m 239 678 b 169 640 243 587 275 556 b 300 506 229 499 235 554 l 210 547 b 213 519 230 496 259 496 b 321 499 308 577 265 599 b 196 639 269 699 280 625 l 299 633 b 303 668 269 686 239 678 z m 968 -111 l 940 -50 l 933 -50 l 933 -141 l 940 -141 l 940 -77 l 968 -141 l 977 -141 l 977 -50 l 968 -50 z m 398 754 b 399 725 417 702 448 702 b 478 702 496 729 490 757 b 483 798 423 808 423 852 b 437 883 468 860 469 833 l 488 839 b 486 853 483 870 471 877 b 392 912 377 816 441 782 b 461 767 479 744 462 726 b 440 710 421 734 422 761 z m 604 738 b 606 775 611 823 602 859 b 587 895 519 896 511 854 b 505 818 505 778 510 740 b 513 690 597 688 604 738 z m 535 848 b 547 885 589 860 581 829 b 575 804 602 705 547 722 b 524 736 536 770 533 791 b 533 808 530 833 535 848 z m 553 654 b 542 688 473 688 463 648 b 462 600 436 497 511 496 b 556 494 562 539 558 575 b 558 598 564 630 553 654 z m 520 517 b 496 505 482 530 486 554 b 488 582 482 616 486 643 b 498 675 543 657 533 624 b 528 598 546 533 520 517 z m 652 824 l 703 703 l 719 703 l 719 885 l 697 885 l 697 763 l 648 885 l 632 885 l 632 703 l 652 703 z m 664 65 l 651 65 l 651 -26 l 686 -26 l 686 -19 l 664 -19 z m 323 498 l 393 498 l 393 514 l 347 514 l 347 581 l 383 581 l 383 599 l 347 599 l 347 658 l 393 658 l 393 678 l 323 678 z m 117 787 b 164 777 201 820 175 864 b 161 893 119 882 94 885 l 94 703 l 117 703 z m 117 865 b 140 870 163 860 159 833 b 162 807 137 804 117 805 z m 254 16 l 266 -26 l 281 -26 l 266 19 b 285 25 281 55 266 62 b 257 68 243 65 233 65 l 233 -26 l 244 -26 l 244 16 z m 244 56 b 275 62 272 20 244 25 z m 316 788 l 335 788 l 360 703 l 383 703 l 360 794 b 389 805 387 861 360 877 b 341 887 313 885 290 885 l 290 703 l 316 703 z m 316 865 b 369 877 369 794 316 805 z m 895 -50 b 867 -45 867 -69 867 -94 b 867 -112 865 -142 893 -142 b 920 -142 918 -115 918 -94 b 918 -76 921 -51 895 -50 z m 886 -130 b 876 -126 883 -96 883 -87 b 883 -75 880 -51 900 -60 b 910 -65 913 -148 886 -130 z m 929 721 l 884 721 l 884 885 l 858 885 l 858 703 l 929 703 z m 770 747 l 807 747 l 816 703 l 839 703 l 802 885 l 776 885 l 738 703 l 761 703 z m 790 848 l 804 766 l 774 766 z m 408 -77 b 393 -155 456 -163 456 -108 l 442 -108 b 447 -152 410 -130 420 -94 b 410 -58 447 -38 442 -80 l 456 -80 b 462 -41 405 -38 408 -77 z m 426 -26 l 462 -26 l 462 -19 l 440 -19 l 440 16 l 459 16 l 459 25 l 440 25 l 440 56 l 462 56 l 462 65 l 426 65 z m 482 -141 l 482 -50 l 470 -50 l 470 -141 z m 385 -52 b 375 -46 363 -50 350 -50 l 350 -141 l 364 -141 l 364 -96 l 374 -96 l 385 -141 l 397 -141 l 383 -94 b 399 -89 398 -60 385 -52 z m 364 -87 l 364 -59 b 388 -54 391 -92 364 -87 z m 413 -26 l 413 65 l 401 65 l 401 25 l 376 25 l 376 65 l 364 65 l 364 -26 l 376 -26 l 376 16 l 401 16 l 401 -26 z m 646 -117 l 632 -49 l 620 -49 b 646 -173 646 -172 672 -49 l 660 -49 z m 511 -50 l 491 -141 l 505 -141 l 510 -117 l 530 -117 l 532 -141 l 544 -141 l 524 -50 z m 511 -110 l 519 -66 l 527 -110 z m 566 -50 l 553 -50 l 553 -141 l 590 -141 l 590 -133 l 566 -133 z m 592 65 l 581 65 b 577 46 593 -14 567 -19 b 544 -13 559 46 555 65 l 544 65 b 549 39 527 -37 576 -26 b 603 -10 588 39 592 65 z m 811 -87 b 778 -68 816 -37 819 -76 b 846 -66 810 -35 793 -54 b 764 -77 814 -99 819 -120 b 818 -141 793 -128 796 -112 b 771 -112 792 -145 810 -142 b 843 -140 830 -98 811 -87 z m 641 -19 l 620 -19 l 620 65 l 606 65 l 606 -26 l 641 -26 z m 681 -141 l 718 -141 l 718 -133 l 695 -133 l 695 -96 l 714 -96 l 714 -87 l 695 -87 l 695 -59 l 718 -59 l 718 -50 l 681 -50 z m 802 678 l 779 678 b 786 652 809 587 816 562 b 818 546 816 515 816 498 l 842 498 b 834 560 862 621 881 678 l 856 678 l 829 591 z m 764 -52 b 753 -46 739 -50 728 -50 l 728 -141 l 742 -141 l 742 -96 l 750 -96 l 763 -141 l 774 -141 l 761 -95 b 776 -89 776 -60 764 -52 z m 742 -87 l 742 -59 b 766 -54 769 -92 742 -87 z m 117 -50 b 92 -45 92 -69 92 -94 b 92 -112 87 -142 117 -142 b 152 -147 155 -46 117 -50 z m 110 -130 b 98 -121 105 -88 103 -74 b 103 -63 110 -54 122 -60 b 133 -63 136 -150 110 -130 z m 702 678 l 702 498 l 771 498 l 771 514 l 726 514 l 726 678 z m 791 36 l 816 -26 l 825 -26 l 825 65 l 813 65 l 813 5 l 787 65 l 779 65 l 779 -26 l 791 -26 z m 58 -142 b 78 -142 80 -122 80 -108 l 68 -108 b 68 -155 37 -124 45 -94 b 37 -62 68 -35 68 -80 l 80 -80 b 87 -40 29 -38 32 -77 b 32 -101 25 -142 58 -142 z m 357 65 l 310 65 l 310 56 l 327 56 l 327 -26 l 341 -26 l 341 56 l 357 56 z m 200 -50 l 185 -122 l 169 -50 l 154 -50 l 154 -141 l 166 -141 l 166 -74 b 184 -165 187 -165 205 -74 l 205 -141 l 214 -141 l 213 -50 z m 196 67 b 157 76 157 -33 194 -27 b 229 -32 231 68 196 67 z m 207 16 b 207 2 207 -22 190 -18 b 172 -6 185 24 182 39 b 182 51 190 62 200 55 b 210 51 207 25 207 16 z m 304 -141 l 341 -141 l 341 -133 l 318 -133 l 318 -96 l 336 -96 l 336 -87 l 318 -87 l 318 -59 l 341 -59 l 341 -50 l 304 -50 z m 276 -50 l 259 -122 l 243 -50 l 230 -50 l 230 -141 l 239 -141 l 241 -74 l 254 -141 l 264 -141 l 280 -74 l 281 -141 l 290 -141 l 288 -50 z m 918 678 l 893 678 b 901 490 910 492 918 678 z m 728 -26 b 735 -5 727 -1 753 -3 b 753 -3 757 -26 757 -26 l 770 -26 l 751 65 l 736 65 l 718 -26 l 728 -26 z m 743 48 l 751 6 l 736 6 z m 129 356 b 121 308 205 288 201 327 b 159 300 131 362 163 388 b 175 396 185 392 201 387 b 208 422 122 407 129 356 z m 242 405 b 192 407 192 306 242 307 b 293 306 293 407 242 405 z m 257 334 b 231 286 213 372 234 389 b 263 406 262 350 257 334 z m 339 343 b 339 342 305 402 305 402 l 288 402 l 288 310 l 300 310 l 300 371 b 301 372 335 310 335 310 l 351 310 l 351 402 l 339 402 l 339 343 z m 360 390 l 388 390 l 388 310 l 406 310 l 406 390 l 434 390 l 434 402 l 360 402 z m 450 310 l 457 333 l 485 333 b 493 312 485 308 511 310 l 485 402 l 467 402 l 437 310 z m 472 380 l 482 345 l 461 345 z m 535 398 b 500 375 513 305 559 307 b 572 309 591 307 587 327 b 520 289 518 423 587 387 b 594 414 547 405 535 398 z m 637 310 l 637 390 l 665 390 l 665 402 l 591 402 l 591 390 l 619 390 l 619 310 z m 816 402 l 796 402 l 783 361 b 783 360 771 402 771 402 l 749 402 l 749 310 l 761 310 l 761 381 b 762 381 774 334 774 334 l 789 334 b 789 335 801 381 802 381 l 802 310 l 816 310 z m 889 390 l 889 402 l 832 402 l 832 310 l 893 310 l 893 322 l 850 322 l 850 352 l 883 352 l 883 364 l 850 364 l 850 390 z m 46 165 b 51 165 54 168 57 170 b 61 163 74 163 71 173 b 63 173 71 196 65 200 b 59 207 33 209 37 195 b 44 198 58 201 57 190 b 37 196 22 169 46 165 z m 46 181 b 47 183 54 183 57 183 b 62 171 37 169 46 181 z m 92 188 b 96 195 109 201 106 188 l 113 188 l 113 204 b 104 206 96 204 91 197 l 92 204 l 81 204 l 81 166 l 92 166 z m 121 166 l 156 166 l 156 174 l 134 174 b 137 178 160 197 156 204 l 122 204 l 122 197 l 142 197 b 139 192 116 174 121 166 z m 183 190 b 151 195 164 150 186 170 b 191 164 203 161 200 173 b 192 173 201 196 195 200 b 188 207 163 209 166 195 b 173 198 187 201 187 190 l 183 190 z m 187 177 b 172 164 166 187 187 183 z m 232 152 l 242 152 l 242 204 b 239 203 232 206 233 200 b 195 227 200 138 232 173 b 232 169 232 157 232 152 z m 228 176 b 215 168 213 197 225 197 b 235 198 234 180 228 176 z m 264 197 b 270 199 275 198 282 195 b 285 211 251 207 252 193 b 251 185 266 182 272 178 b 275 168 259 172 251 175 b 250 150 315 176 267 191 b 263 192 260 195 264 197 z m 309 167 b 316 164 330 163 327 175 b 310 166 312 185 312 196 l 326 196 l 326 203 l 312 203 l 312 213 l 302 213 l 302 203 l 294 203 l 294 196 l 302 196 b 303 188 298 170 309 167 z m 360 180 b 343 160 347 196 347 204 l 336 204 b 334 187 337 146 360 173 l 360 166 l 370 166 l 370 204 l 360 204 z m 415 166 l 415 221 l 404 221 b 404 218 404 203 405 200 b 368 226 373 138 405 173 l 404 166 z m 404 181 b 392 161 381 194 397 197 b 406 198 404 186 404 181 z m 425 197 l 439 197 l 439 166 l 449 166 l 449 204 l 425 204 z m 449 211 l 449 221 l 439 221 l 439 211 z m 502 185 b 504 211 461 211 463 185 b 461 159 504 159 502 185 z m 489 175 b 477 163 470 187 476 195 b 489 207 495 183 489 175 z m 543 173 l 533 173 l 533 219 l 512 217 l 512 211 l 522 211 l 522 173 l 512 173 l 512 166 l 543 166 z m 590 182 l 586 182 b 591 212 575 237 552 205 b 537 178 574 148 580 174 b 542 151 554 237 580 207 b 549 218 561 150 580 187 l 580 176 l 590 176 z m 575 186 b 565 171 564 205 576 203 b 585 204 577 189 575 186 z m 621 153 b 636 159 628 192 630 204 b 627 203 620 206 620 201 b 581 226 590 137 620 175 b 620 171 621 164 618 161 b 612 156 606 159 598 162 b 593 149 614 150 621 153 z m 620 182 b 609 163 596 195 612 197 b 620 198 620 188 620 182 z m 659 166 b 657 204 668 205 665 166 l 673 166 b 674 176 676 224 659 197 b 659 209 647 205 645 197 l 645 204 l 636 204 l 636 166 l 645 166 b 643 204 653 205 651 166 z m 699 190 b 668 195 680 150 702 170 b 707 164 720 161 717 173 b 709 173 717 196 711 200 b 705 207 679 209 683 195 b 690 198 704 201 703 190 l 699 190 z m 703 177 b 688 164 683 187 703 183 z m 750 211 l 750 221 l 740 221 l 740 211 z m 726 197 l 740 197 l 740 166 l 750 166 l 750 204 l 726 204 z m 790 166 l 790 221 l 766 221 l 766 214 l 780 214 l 780 166 z m 833 166 l 833 178 l 821 178 l 821 166 z m 875 198 b 879 198 883 197 887 196 b 889 215 848 204 852 185 b 848 166 889 155 887 174 b 868 163 851 195 875 198 z m 899 170 b 919 153 946 182 927 200 b 908 217 881 188 899 170 z m 920 175 b 907 163 900 187 907 195 b 919 207 926 183 920 175 z m 946 191 b 956 209 951 169 952 166 l 961 166 b 959 204 969 205 966 166 l 975 166 b 975 176 977 224 961 197 b 960 209 949 205 946 197 l 946 204 l 938 204 l 938 166 l 946 166 z m 0 908 l 0 -182 l 1009 -182 l 1009 908 z m 8 -174 l 8 900 l 1001 900 l 1001 -174 z"},"F":{"x_min":0,"x_max":948,"ha":948,"o":"m 1001 721 b 946 721 885 728 829 735 b 839 745 846 750 846 750 l 846 750 b 855 756 865 762 875 767 b 890 773 907 778 925 779 l 925 780 b 927 780 929 782 930 784 b 930 786 929 788 927 789 l 927 790 b 927 790 927 790 927 790 b 926 790 925 790 924 790 b 870 786 826 770 786 744 b 786 744 785 745 784 745 b 773 747 762 749 750 750 b 727 753 704 754 681 754 b 658 753 635 751 613 747 b 601 745 590 742 579 739 b 568 736 557 732 546 728 b 503 712 462 690 426 662 b 390 635 357 602 333 564 b 326 565 319 565 312 564 b -36 547 -110 60 177 -28 l 177 -28 b 177 -28 231 -49 313 -40 l 313 -40 b 334 -38 355 -34 374 -28 l 374 -28 b 536 15 619 203 619 203 l 619 203 b 627 220 635 237 643 255 b 643 255 643 255 643 255 l 648 268 b 661 301 672 335 682 369 l 879 368 b 882 368 884 370 884 373 b 884 376 882 379 879 379 l 684 380 b 685 381 685 383 686 384 b 705 458 724 531 747 594 b 759 627 773 657 789 683 b 789 683 789 683 789 683 b 796 697 805 708 812 718 b 906 694 1000 656 1076 661 b 1115 664 1150 700 1162 763 b 1131 730 1071 720 1001 721 z m 327 415 b 327 427 328 439 331 452 b 331 455 332 458 333 461 b 333 464 334 467 335 470 b 335 473 336 476 337 479 b 338 482 339 485 340 488 b 340 488 347 513 367 548 b 373 547 380 545 386 543 b 389 542 392 541 394 539 b 394 539 395 539 395 539 b 395 539 395 539 396 539 b 396 539 396 539 396 538 b 396 538 397 538 397 538 b 483 499 503 390 475 297 b 475 297 475 297 474 297 b 462 293 449 292 437 292 b 424 292 411 295 399 299 b 397 299 396 300 394 300 b 393 301 391 301 390 302 b 387 303 384 305 381 307 b 376 310 371 313 366 317 b 356 325 348 335 342 345 b 336 356 332 367 330 379 b 328 391 327 403 327 415 z m 296 -25 b 292 -25 288 -25 284 -25 b 280 -25 276 -25 273 -25 l 273 -25 b 230 -26 197 -14 197 -14 l 197 -14 b 196 -14 195 -13 194 -13 b 193 -13 193 -13 193 -13 l 193 -13 b -70 69 41 542 311 553 b 316 554 321 554 326 554 b 324 549 321 545 319 541 b 315 534 312 528 309 521 b 306 514 304 507 301 500 b 300 497 299 493 298 490 b 297 486 296 483 296 479 b 295 476 294 472 293 469 b 293 465 292 461 291 458 b 290 451 290 443 290 436 b 289 428 289 421 290 414 b 291 399 294 384 299 370 b 304 355 312 342 321 330 b 330 318 342 308 354 301 b 361 297 367 294 374 291 b 377 290 381 289 384 288 b 388 286 391 285 394 284 b 408 280 422 278 436 278 b 448 278 459 280 470 283 b 444 212 387 154 308 150 b 281 149 258 154 240 165 l 240 165 b 240 165 240 165 240 165 b 239 165 238 166 237 166 b 237 166 237 167 236 167 b 235 167 235 168 234 168 b 234 168 234 168 234 168 b 226 174 219 180 214 187 b 214 187 214 187 214 187 b 200 204 195 221 195 221 b 181 260 186 309 207 354 b 214 366 210 378 199 383 l 198 384 b 194 386 189 387 185 387 b 178 386 170 382 166 375 b 126 301 137 216 188 167 b 188 167 188 167 188 167 b 194 162 201 155 211 149 b 211 149 211 150 211 150 b 237 134 268 125 305 127 b 403 132 467 205 491 291 b 500 295 508 300 515 306 b 527 315 536 325 545 336 b 554 346 561 358 567 370 l 584 370 b 576 340 569 310 560 280 l 558 271 l 557 268 b 547 233 536 199 522 166 l 522 166 b 522 166 487 63 413 13 l 413 13 b 381 -9 343 -22 296 -25 z m 762 726 b 762 726 762 726 761 726 l 762 725 b 677 653 627 530 593 403 b 591 395 589 388 587 380 l 572 380 b 576 390 580 399 583 409 b 585 416 586 423 587 430 b 588 437 589 443 589 450 b 589 464 589 478 586 492 b 584 506 579 520 572 533 b 564 546 554 558 542 567 b 536 572 529 576 522 580 b 515 583 508 586 500 588 b 493 591 485 592 477 593 b 473 593 469 594 465 594 b 461 594 457 594 453 593 b 443 590 436 581 436 571 b 436 558 446 548 459 548 l 460 548 b 463 548 465 549 468 550 b 471 550 473 551 476 551 b 482 551 487 551 493 551 b 505 550 516 548 527 543 b 538 538 548 532 556 522 b 564 513 571 502 574 489 b 578 477 580 464 579 451 b 579 444 578 437 578 431 b 577 425 575 418 573 412 b 570 401 566 390 561 380 l 523 381 b 522 381 520 380 519 379 b 516 375 519 370 523 370 l 556 370 b 551 360 544 351 537 342 b 525 328 511 315 495 306 b 516 404 488 512 398 550 l 398 550 b 398 550 388 555 374 559 b 400 600 443 651 512 692 l 512 692 b 537 707 565 720 595 727 b 595 727 596 727 596 728 b 643 741 701 745 767 729 b 765 728 764 727 762 726 z"},"`":{"x_min":0,"x_max":149,"ha":149,"o":"m 111 303 l 91 344 l 36 344 l 84 286 b 87 282 92 280 96 280 b 108 280 116 292 111 303 z"},"k":{"x_min":0,"x_max":392,"ha":392,"o":"m 427 213 l 408 213 b 404 202 399 191 394 180 b 363 113 332 65 304 40 b 252 -3 244 38 243 53 b 243 59 243 66 244 74 b 249 98 254 121 254 137 b 254 142 254 155 249 168 b 249 168 246 195 193 204 b 222 212 256 224 277 238 b 309 262 319 285 319 303 b 319 305 321 318 306 332 b 301 337 296 340 290 342 l 290 342 b 290 342 289 342 289 343 b 289 343 289 343 289 343 b 260 354 234 348 210 336 b 194 327 179 315 166 302 b 154 288 141 272 128 255 b 126 252 125 250 125 250 l 125 250 b 123 246 120 242 117 238 b 101 216 87 192 74 171 b 75 172 75 173 75 174 l 91 257 b 97 282 103 308 109 333 l 112 348 b 117 368 122 392 130 419 b 137 447 145 474 155 503 b 165 531 176 559 190 587 b 203 615 218 640 235 663 b 252 686 271 705 292 720 b 292 720 293 720 294 721 b 300 725 306 729 313 732 b 330 741 357 753 390 760 b 392 760 392 763 389 764 b 381 764 372 764 363 763 b 314 760 271 743 234 715 b 197 686 165 649 138 603 b 125 583 114 561 103 538 b 56 430 24 292 24 292 b 7 218 -18 101 -26 45 b -26 35 -24 27 -19 21 b -12 13 -5 8 5 7 b 14 6 24 8 33 15 b 43 21 49 32 51 47 l 58 81 b 72 127 95 170 116 202 l 120 202 b 135 201 190 194 189 138 b 189 129 188 118 184 106 b 162 31 193 5 227 1 b 235 -1 244 -1 254 0 b 263 0 270 2 277 4 b 278 4 278 5 279 5 b 284 7 289 9 294 12 b 297 13 298 14 298 14 l 298 14 b 351 47 397 140 427 213 z m 130 213 b 128 213 127 213 125 213 b 133 227 141 239 149 250 b 156 259 161 265 162 266 b 182 290 204 305 226 305 b 228 305 228 305 229 305 b 245 304 257 294 258 281 b 258 280 258 280 258 280 b 258 237 169 213 130 213 z"},"u":{"x_min":0,"x_max":404,"ha":404,"o":"m 440 213 l 421 213 b 416 202 411 191 406 180 b 375 113 345 65 316 40 b 299 26 287 21 278 21 b 277 21 277 21 277 21 b 276 21 276 21 276 21 b 275 21 275 21 274 21 b 274 21 274 21 274 21 b 253 26 255 73 261 111 b 263 120 264 129 267 138 b 271 159 277 180 282 200 b 287 220 292 238 297 254 b 302 270 305 282 308 289 b 313 307 314 321 308 331 b 303 341 296 347 286 349 b 276 350 266 348 256 341 b 245 334 238 323 233 308 b 219 266 206 227 193 189 b 181 152 163 114 138 76 b 128 60 117 47 106 36 b 95 25 85 19 75 19 b 67 19 62 25 61 37 b 59 49 59 63 61 80 b 63 98 67 117 71 139 b 76 160 80 181 86 200 b 91 220 96 238 101 254 b 106 270 109 282 112 289 b 117 307 117 321 112 331 b 107 341 100 347 90 349 b 81 350 71 348 60 341 b 49 334 41 323 37 308 b 33 297 28 282 22 262 b 16 242 10 221 4 198 b -1 175 -5 151 -8 127 b -10 103 -10 81 -7 62 b -4 43 3 28 15 16 b 26 5 43 0 66 1 b 87 2 104 9 117 23 b 130 37 142 52 153 68 b 159 77 165 88 171 99 b 177 111 182 122 188 133 b 186 116 185 100 186 84 b 186 68 189 54 194 42 b 199 30 206 21 216 13 b 217 12 219 11 220 10 b 236 0 258 -4 289 4 b 290 4 291 5 292 5 b 297 7 302 9 307 12 b 310 13 311 14 311 14 l 311 14 b 363 47 410 140 440 213 z"},"]":{"x_min":0,"x_max":282,"ha":282,"o":"m 237 407 l 159 407 b 154 407 149 403 147 398 b 146 393 149 389 154 389 l 212 389 l 100 -29 l 42 -29 b 37 -29 32 -33 30 -38 b 29 -43 32 -48 37 -48 l 115 -48 b 126 -48 137 -39 139 -28 l 251 388 b 254 399 248 407 237 407 z"},"U":{"x_min":0,"x_max":927,"ha":927,"o":"m 947 772 l 947 772 b 880 746 832 584 832 584 l 832 584 b 757 377 619 54 518 57 b 426 59 524 410 602 608 b 602 608 647 724 687 753 b 690 754 689 759 686 758 b 686 758 686 758 686 758 b 683 758 681 757 679 757 b 636 756 498 748 328 669 b 318 674 307 677 296 678 b 284 679 272 679 260 676 b 236 672 214 663 193 651 b 152 628 116 595 87 558 b 58 520 36 477 21 432 b 7 387 0 339 0 291 b 0 267 2 244 6 220 b 8 208 10 197 13 185 b 15 173 18 162 22 150 b 36 104 57 60 86 21 b 95 9 106 -4 117 -15 l 131 -29 l 142 -39 b 158 -53 176 -66 194 -76 b 216 -89 238 -99 262 -106 b 285 -114 309 -119 334 -123 l 334 -123 b 334 -123 335 -123 335 -123 b 347 -124 358 -115 358 -102 b 359 -90 349 -80 337 -80 b 299 -77 261 -68 225 -52 l 225 -52 b 225 -52 225 -52 225 -52 b 220 -50 216 -48 211 -45 b 201 -40 191 -35 181 -28 b 182 -28 182 -28 182 -28 b 177 -25 173 -23 170 -20 l 152 -7 b 136 7 121 22 108 38 b 79 73 57 114 42 157 b 38 168 35 178 32 189 b 29 201 27 212 25 223 b 21 246 18 269 18 291 b 16 337 22 383 35 427 b 48 471 69 513 97 550 b 111 569 126 586 143 602 b 160 617 178 631 198 643 b 218 654 239 663 262 667 b 273 670 284 670 295 669 b 303 669 311 667 318 664 l 315 663 b 75 548 24 270 168 278 b 217 281 263 311 300 353 l 307 363 b 379 452 410 589 348 652 b 348 652 499 734 644 749 b 638 748 635 747 635 747 b 536 683 449 425 421 323 b 379 169 348 -12 458 -5 b 583 2 696 214 777 407 b 777 407 793 450 819 509 b 814 484 808 458 804 433 b 795 384 787 335 777 286 l 775 274 b 762 210 746 148 720 95 l 720 95 b 720 95 712 76 696 52 b 696 52 696 52 696 52 b 685 34 672 19 658 4 b 652 -1 647 -7 641 -12 l 670 -12 b 675 -12 680 -11 684 -10 b 698 -6 711 2 724 13 l 726 15 l 735 24 b 741 31 748 38 754 45 b 835 149 887 367 917 520 b 956 714 1009 786 1009 786 b 987 786 966 781 947 772 z m 189 296 b 70 291 155 537 340 647 b 430 563 308 302 189 296 z"},"o":{"x_min":0,"x_max":346,"ha":346,"o":"m 363 213 b 358 202 353 191 348 180 b 347 177 346 174 344 172 l 344 172 l 344 172 b 344 171 344 171 344 171 l 344 171 l 342 168 b 342 166 340 164 339 162 l 339 162 b 329 143 300 105 244 114 l 245 115 b 248 122 251 129 253 136 b 268 182 272 218 270 245 b 269 276 260 298 249 312 b 229 340 203 343 203 343 l 203 343 b 194 346 184 347 173 347 b 171 347 169 347 167 347 b 125 347 88 329 58 297 b 14 249 -6 176 -1 122 b 0 117 0 92 17 58 b 24 46 32 35 42 26 l 42 26 b 42 26 42 26 42 26 b 44 25 45 24 47 23 b 99 -18 147 6 147 6 l 147 6 b 180 19 211 54 233 94 b 267 86 303 104 303 104 b 313 108 321 114 328 120 b 341 132 350 146 355 154 l 355 154 l 355 155 b 357 157 358 159 358 161 l 359 163 l 361 167 b 369 183 376 198 382 213 z m 208 194 b 195 187 187 175 185 162 l 185 162 b 185 161 185 161 185 161 b 185 160 185 159 185 158 b 184 149 184 142 186 135 b 186 135 187 130 190 125 b 190 125 190 125 190 125 b 192 121 195 117 199 113 b 204 107 210 103 216 100 b 210 88 202 75 192 62 b 191 61 191 61 190 60 b 190 60 190 59 189 59 b 189 58 188 57 187 57 b 187 56 187 56 187 56 b 135 -5 95 28 91 31 b 91 31 91 31 91 31 l 91 31 b 83 38 78 45 77 47 b 57 82 58 143 89 219 b 125 308 166 325 182 328 b 183 328 185 329 186 329 b 187 329 187 329 187 329 b 188 329 188 329 188 329 b 228 327 246 290 249 251 b 249 247 251 230 248 199 b 243 200 239 200 234 200 b 226 200 217 198 208 194 z"},"N":{"x_min":0,"x_max":1159,"ha":1159,"o":"m 1365 789 b 1079 758 1077 300 1007 101 b 1037 294 835 579 850 662 l 850 662 b 850 662 850 662 850 663 b 851 666 852 669 854 672 b 857 678 863 687 874 693 b 874 693 873 693 873 693 b 874 694 875 694 875 694 b 890 701 907 705 925 707 l 925 708 b 927 708 929 710 930 712 b 930 714 929 716 927 717 l 927 717 b 927 717 927 717 927 717 b 926 718 925 718 924 718 b 922 718 921 718 919 717 l 920 718 b 920 718 710 729 529 649 b 492 634 457 614 426 590 b 423 588 421 586 418 584 b 418 584 418 584 418 584 l 418 584 b 385 558 356 527 333 492 b 326 492 319 492 312 492 b -36 475 -110 -13 177 -100 l 177 -100 b 177 -100 231 -121 313 -112 l 313 -112 b 389 -105 452 -72 503 -26 l 504 -25 l 512 -16 b 529 0 544 18 558 37 b 593 79 621 129 643 183 b 643 183 643 183 643 183 l 648 196 b 663 233 675 272 686 312 b 705 386 724 459 747 522 b 759 555 773 585 789 611 b 789 611 789 611 789 611 b 800 632 813 647 824 658 b 822 655 821 652 819 650 b 815 642 803 612 810 558 b 831 418 953 206 959 73 b 961 15 931 10 927 10 b 927 10 926 10 926 10 b 926 4 931 0 936 0 l 936 0 b 1112 45 1007 705 1367 746 b 1392 748 1388 792 1365 789 z m 327 343 b 327 355 328 367 331 379 b 331 382 332 385 333 388 b 333 391 334 394 335 397 b 335 401 336 404 337 407 b 338 410 339 412 340 415 b 340 415 347 441 367 476 b 373 474 380 473 386 470 b 389 469 392 468 394 467 b 394 467 395 467 395 467 b 395 467 395 467 396 466 b 396 466 396 466 396 466 b 396 466 397 466 397 466 b 483 427 503 318 475 225 b 475 225 475 225 474 225 b 462 221 449 219 437 220 b 424 220 411 222 399 226 b 397 227 396 228 394 228 b 393 229 391 229 390 230 b 387 231 384 233 381 234 b 376 237 371 241 366 245 b 356 253 348 262 342 273 b 337 283 333 295 330 306 b 328 318 327 330 327 343 z m 786 672 l 767 657 b 678 585 628 460 593 331 b 582 291 572 250 560 208 l 558 198 l 557 196 b 547 161 536 126 522 94 l 523 94 b 523 94 487 -9 413 -59 l 413 -59 b 381 -81 343 -95 296 -97 b 292 -97 288 -97 284 -97 b 280 -97 276 -97 273 -97 l 273 -97 b 230 -98 197 -86 197 -86 l 197 -86 b 196 -86 195 -86 194 -85 b 193 -85 193 -85 193 -85 l 193 -85 b -70 -4 41 470 311 481 b 316 481 321 481 326 481 b 324 477 321 473 319 468 b 315 462 312 455 309 449 b 306 442 304 435 301 428 b 300 425 299 421 298 418 b 297 414 296 411 296 407 b 295 403 294 400 293 396 b 293 393 292 389 291 385 b 290 378 290 371 290 364 b 289 356 289 349 290 341 b 291 326 294 312 299 297 b 304 283 312 270 321 258 b 330 246 342 236 354 229 b 361 225 367 222 374 219 b 377 217 381 216 384 215 b 388 214 391 213 394 212 b 408 208 422 206 437 206 b 448 206 459 208 470 211 b 444 140 387 82 308 78 b 281 77 258 82 240 92 l 240 92 b 240 92 240 92 240 92 b 239 93 238 93 237 94 b 237 94 237 94 236 94 b 236 95 235 96 234 96 b 234 96 234 96 234 96 b 226 101 219 107 214 114 b 214 114 214 114 214 115 b 200 132 195 148 195 148 b 181 188 186 237 207 281 b 214 294 210 305 199 311 l 198 312 b 194 314 189 315 185 314 b 178 314 170 309 166 302 b 126 229 137 144 188 95 b 188 95 188 95 188 95 b 194 89 201 83 211 77 b 211 77 211 77 211 77 b 237 62 268 53 305 55 b 403 59 467 133 491 219 b 500 223 508 228 515 234 b 527 242 536 252 545 263 b 554 274 561 286 568 298 b 574 311 579 324 583 337 b 585 344 586 350 587 357 b 588 364 589 371 589 378 b 589 392 589 406 586 420 b 584 434 579 448 572 461 b 564 474 554 486 542 495 b 536 500 529 504 522 507 b 515 511 508 514 500 516 b 493 518 485 520 477 521 b 473 521 469 521 465 521 b 461 521 457 521 453 520 b 443 518 436 509 436 498 b 436 486 446 476 459 476 l 460 476 b 463 476 465 477 468 477 b 471 478 473 478 476 478 b 482 479 487 479 493 479 b 505 478 516 476 527 471 b 538 466 548 459 556 450 b 564 441 571 429 574 417 b 578 405 580 392 579 378 b 579 372 578 365 578 359 b 577 352 575 346 573 339 b 566 314 554 290 537 270 b 525 255 511 243 495 234 b 516 331 488 440 398 478 l 398 478 b 398 478 388 483 374 487 b 396 521 429 563 481 599 b 505 616 638 701 867 708 b 837 701 811 688 786 672 z"},"+":{"x_min":0,"x_max":379,"ha":379,"o":"m 321 185 l 228 185 b 216 185 209 194 212 206 l 239 305 b 241 314 236 322 227 322 b 217 322 208 314 205 305 l 179 206 b 175 194 163 185 151 185 l 59 185 b 50 185 41 177 39 169 b 36 160 41 153 50 153 l 143 153 b 155 153 162 143 159 131 l 132 32 b 130 23 135 15 144 15 b 154 15 163 23 166 32 l 192 131 b 196 143 208 153 220 153 l 312 153 b 321 153 330 160 332 169 b 335 177 330 185 321 185 z"},"G":{"x_min":0,"x_max":875,"ha":875,"o":"m 757 322 l 755 319 b 755 318 754 317 754 316 b 746 300 739 284 733 267 b 675 152 591 112 584 109 b 577 106 569 103 562 101 b 560 101 559 100 558 100 b 488 83 440 105 427 113 b 345 159 332 272 361 391 b 370 392 379 393 387 394 b 457 402 524 422 586 454 b 618 469 647 488 675 509 b 689 519 702 531 715 542 b 722 548 728 554 734 561 b 737 564 740 567 743 570 b 745 572 747 574 749 576 l 754 582 b 830 674 833 777 711 784 b 613 790 524 745 452 674 b 443 693 432 711 420 728 b 414 736 408 743 402 750 b 396 757 389 763 382 769 b 368 782 353 792 336 801 b 303 818 267 828 230 830 b 212 831 194 830 176 827 b 158 824 140 819 123 812 b 115 809 106 805 98 800 b 91 796 83 791 75 785 b 61 774 48 760 38 745 b 16 715 4 680 1 644 b -2 608 4 572 19 539 b 23 531 28 524 33 516 b 38 509 43 502 49 495 b 60 481 73 469 87 458 b 115 436 147 420 180 410 b 214 399 248 393 283 391 b 285 391 288 390 290 390 b 264 291 265 194 305 127 l 305 127 b 305 127 351 34 472 37 b 476 37 480 37 483 38 l 490 38 l 497 39 b 506 40 515 41 524 43 b 535 46 547 49 558 53 b 558 53 558 53 558 53 l 558 53 b 564 56 570 58 575 60 b 584 64 592 68 600 73 b 607 78 615 83 622 88 b 623 89 624 90 624 90 b 663 119 690 156 710 191 b 704 168 699 144 695 121 b 689 87 683 52 676 18 l 675 9 b 666 -36 654 -79 636 -116 l 636 -117 b 636 -117 631 -129 619 -147 b 619 -147 619 -147 619 -147 b 611 -159 603 -170 593 -180 b 557 -216 512 -231 484 -237 b 478 -238 471 -239 464 -240 b 272 -265 233 -47 288 93 b 291 104 287 112 277 114 b 266 117 255 112 251 102 b 193 -44 258 -243 426 -254 l 426 -254 b 426 -254 426 -254 426 -254 b 427 -254 427 -254 428 -254 b 531 -260 607 -201 607 -201 l 607 -201 b 616 -194 625 -186 634 -178 l 640 -173 l 647 -166 b 692 -119 724 -57 746 10 l 749 20 b 759 51 767 83 773 116 b 791 210 806 302 839 369 b 805 369 774 351 757 322 z m 436 570 b 437 553 438 537 438 520 l 438 520 b 438 520 438 519 438 519 b 439 505 451 495 464 496 b 477 497 487 508 487 522 b 484 555 480 589 470 622 b 536 711 622 775 712 773 b 814 770 817 680 752 596 l 752 596 l 752 595 b 751 594 749 592 748 591 l 742 583 l 742 583 b 742 582 741 582 741 582 l 741 582 l 741 582 b 740 580 738 578 736 576 b 734 573 731 570 728 567 b 722 560 716 554 710 548 b 697 536 684 525 671 515 b 644 493 614 475 584 459 b 553 443 521 431 488 421 b 455 411 421 404 387 400 b 379 399 371 398 363 398 b 367 413 371 428 377 444 l 381 456 b 395 495 414 534 435 570 b 436 570 436 570 436 570 z m 326 489 l 318 473 b 308 448 299 422 292 397 b 289 397 286 397 284 398 b 266 399 249 401 232 404 b 216 408 199 412 183 417 b 167 423 151 430 136 438 b 121 446 107 455 93 466 b 80 477 68 489 58 502 b 52 509 48 516 43 523 b 38 530 35 537 31 545 b 17 575 13 610 17 643 b 19 659 23 675 29 691 b 36 706 44 720 54 733 b 64 746 75 758 89 767 b 102 777 116 784 132 790 b 147 795 163 799 180 801 b 196 803 212 804 229 802 b 261 799 293 789 320 773 b 348 756 372 733 389 707 b 394 700 398 693 402 686 b 404 682 406 679 407 675 b 408 673 409 672 410 670 l 412 664 b 415 656 418 649 421 641 b 382 596 350 544 326 489 z"},"q":{"x_min":0,"x_max":454,"ha":454,"o":"m 490 213 l 471 213 b 467 202 462 191 456 180 b 448 162 440 146 432 131 l 429 124 b 415 102 393 72 365 52 b 361 49 358 47 355 45 b 354 45 353 44 353 44 b 353 44 353 44 353 44 b 348 41 342 38 337 36 l 337 36 b 336 35 335 35 333 34 b 332 36 330 38 328 40 b 328 40 328 40 328 40 b 322 46 316 50 311 52 l 317 90 l 317 90 l 324 126 l 330 158 b 335 184 341 211 347 237 b 352 257 357 276 361 296 b 364 308 364 316 363 323 b 358 338 343 344 343 344 b 327 350 312 344 303 337 b 293 330 288 320 286 313 b 284 305 282 297 280 288 b 276 271 271 253 267 232 b 267 250 264 268 259 284 b 254 301 244 316 230 328 b 221 336 211 341 200 344 b 189 347 177 347 165 346 b 130 343 101 331 77 313 b 53 294 34 271 21 244 b 8 218 1 189 -1 160 b -3 130 0 103 9 78 b 17 54 31 34 51 20 b 70 5 95 0 126 3 b 145 6 163 13 178 23 b 193 33 207 46 219 62 b 222 68 226 74 229 79 b 231 83 234 87 236 92 l 237 85 b 230 48 223 8 219 -32 b 214 -65 211 -96 210 -128 b 210 -132 209 -137 209 -142 b 209 -142 209 -142 209 -142 l 209 -142 b 208 -172 209 -201 212 -228 b 216 -260 223 -287 234 -309 b 243 -327 256 -341 272 -352 b 273 -353 274 -353 275 -354 b 306 -372 331 -362 339 -357 b 343 -355 346 -353 350 -350 b 359 -343 366 -333 373 -321 l 373 -321 b 373 -321 373 -321 373 -321 b 379 -308 385 -292 388 -273 b 409 -180 383 -79 383 -79 b 374 -35 361 -4 347 16 l 344 20 l 348 22 l 348 22 b 371 32 394 49 414 74 b 439 104 455 134 460 145 l 460 145 b 460 145 460 145 460 145 l 470 167 l 470 167 b 478 183 484 199 490 213 z m 251 204 b 249 181 244 158 237 135 b 230 111 219 90 206 71 b 198 60 188 49 175 38 b 162 28 148 22 135 20 b 118 17 105 23 95 37 b 85 51 79 69 75 92 b 72 115 71 139 74 166 b 76 194 82 219 90 243 b 99 267 110 287 124 303 b 138 319 155 329 174 330 b 188 332 201 329 211 323 b 221 316 229 307 235 296 b 241 284 246 270 248 254 b 250 238 251 222 251 204 z m 367 -92 b 367 -92 386 -191 369 -272 b 364 -293 358 -312 347 -326 b 346 -327 344 -329 343 -330 b 337 -336 330 -341 322 -343 b 313 -345 306 -340 300 -335 b 279 -311 275 -249 275 -248 b 273 -169 289 -63 303 11 b 306 11 310 11 313 11 b 318 11 323 11 329 12 b 342 -7 357 -39 367 -92 z"},"d":{"x_min":0,"x_max":471,"ha":471,"o":"m 654 764 b 645 764 636 764 627 763 b 578 760 535 743 498 715 b 461 686 429 649 402 603 b 389 583 378 561 367 538 b 320 430 288 292 288 292 b 285 278 281 262 278 245 b 277 258 275 271 272 283 b 268 297 261 310 250 322 b 242 330 233 337 222 341 b 211 345 199 347 187 347 b 152 347 121 338 95 322 b 69 305 48 283 32 258 b 17 232 6 204 2 174 b -3 144 -3 116 3 90 b 9 64 22 43 40 26 b 59 9 83 1 114 2 b 134 3 152 7 168 16 b 184 25 199 37 212 53 b 228 71 240 90 250 110 b 251 113 252 117 254 120 b 251 89 253 61 262 38 b 262 38 266 20 285 9 b 296 2 311 -2 333 0 b 342 0 349 2 356 4 b 357 4 357 5 358 5 b 363 7 368 9 373 12 b 376 13 377 14 377 14 l 377 14 b 430 47 476 140 506 213 l 487 213 b 483 202 478 191 473 180 b 442 113 411 65 383 40 b 361 22 347 19 338 22 b 320 32 328 108 341 180 l 356 258 b 356 258 356 258 356 258 b 357 262 358 267 359 271 b 362 286 365 300 368 315 b 369 315 369 315 369 315 l 369 315 b 370 321 371 327 373 333 l 373 333 l 376 348 b 381 368 387 392 394 419 b 401 447 409 474 419 503 b 429 531 440 559 454 587 b 467 615 482 640 499 663 b 516 686 535 705 556 720 b 556 720 557 720 558 721 b 564 725 570 729 577 732 b 594 741 621 753 654 760 b 656 760 656 763 654 764 z m 259 194 b 255 170 248 147 238 124 b 228 101 216 81 201 62 b 192 52 180 42 166 33 b 152 23 138 18 125 18 b 108 17 95 24 87 39 b 79 55 75 74 74 97 b 73 120 75 146 81 173 b 86 199 94 225 105 248 b 116 271 129 291 144 306 b 159 322 176 330 195 330 b 209 330 221 326 231 319 b 241 311 248 301 253 288 b 257 276 260 261 261 245 b 262 228 261 211 259 194 z"},"1":{"x_min":0,"x_max":258,"ha":258,"o":"m 192 343 b 190 343 188 342 186 342 l 75 284 b 73 284 72 283 70 282 l 67 280 b 65 280 64 279 63 278 b 63 278 62 277 62 277 b 53 272 51 263 51 255 b 50 248 56 243 63 243 b 71 243 78 248 82 255 b 90 270 102 278 112 282 b 113 282 113 282 113 283 b 118 284 122 285 125 286 l 122 285 b 124 286 126 286 128 286 b 132 286 135 285 137 282 b 138 279 138 274 136 267 l 83 69 b 80 58 77 49 74 44 b 71 39 67 35 62 33 b 57 30 50 28 42 26 b 36 25 25 24 11 24 b 6 23 2 19 0 14 l 0 14 b -1 9 2 5 7 5 l 170 5 b 175 5 180 9 181 14 b 182 19 180 23 175 23 b 166 24 159 24 154 25 b 146 26 140 27 136 29 b 131 31 128 33 126 36 b 124 39 123 43 123 48 b 124 52 125 60 128 69 l 183 278 b 189 300 195 318 199 332 b 201 338 197 343 192 343 z m 128 286 b 128 286 127 286 125 286 z"},"5":{"x_min":0,"x_max":323,"ha":323,"o":"m 255 351 b 252 351 249 350 247 348 l 247 348 b 245 346 242 344 240 343 b 237 343 233 342 227 342 l 153 342 b 120 342 85 315 77 282 l 53 194 b 51 186 53 179 59 175 b 63 172 69 171 76 173 b 82 174 88 176 94 176 b 102 178 112 179 123 179 b 136 179 147 176 155 171 b 164 166 170 158 172 146 b 175 135 174 121 170 104 b 163 78 152 58 137 45 b 123 32 105 26 83 26 b 68 26 56 30 48 37 b 42 43 38 52 37 63 b 36 70 31 74 24 74 b 14 74 4 66 2 57 b -3 40 2 25 14 16 l 14 16 b 14 16 14 16 15 16 b 17 15 19 14 21 13 b 33 7 62 -2 107 8 b 116 9 125 11 134 15 b 134 15 134 15 134 15 l 134 15 b 136 15 138 16 141 17 b 160 25 176 37 190 53 b 203 68 213 87 218 109 b 224 128 224 145 220 160 b 216 174 207 185 194 193 b 181 201 165 205 146 205 b 136 205 126 204 115 202 b 105 201 95 198 86 194 l 114 302 l 198 302 b 221 302 245 315 260 334 b 266 342 263 351 255 351 z"}}}
